  0
SECTION
  2
HEADER
  9
$ACADVER
  1
AC1032
  9
$ACADMAINTVER
 90
       55
  9
$DWGCODEPAGE
  3
ANSI_1254
  9
$LASTSAVEDBY
  1
lamasat
  9
$REQUIREDVERSIONS
160
                 0
  9
$INSBASE
 10
0.0
 20
0.0
 30
0.0
  9
$EXTMIN
 10
-32.49778
 20
-295.04954
 30
0.0
  9
$EXTMAX
 10
32.49778
 20
-71.19538
 30
0.0
  9
$LIMMIN
 10
0.0
 20
0.0
  9
$LIMMAX
 10
12.0
 20
9.0
  9
$ORTHOMODE
 70
     0
  9
$REGENMODE
 70
     1
  9
$FILLMODE
 70
     1
  9
$QTEXTMODE
 70
     0
  9
$MIRRTEXT
 70
     1
  9
$LTSCALE
 40
1.0
  9
$ATTMODE
 70
     1
  9
$TEXTSIZE
 40
0.2
  9
$TRACEWID
 40
0.05
  9
$TEXTSTYLE
  7
Standard
  9
$CLAYER
  8
0
  9
$CELTYPE
  6
ByLayer
  9
$CECOLOR
 62
   256
  9
$CELTSCALE
 40
1.0
  9
$DISPSILH
 70
     0
  9
$DIMSCALE
 40
1.0
  9
$DIMASZ
 40
0.18
  9
$DIMEXO
 40
0.0625
  9
$DIMDLI
 40
0.38
  9
$DIMRND
 40
0.0
  9
$DIMDLE
 40
0.0
  9
$DIMEXE
 40
0.18
  9
$DIMTP
 40
0.0
  9
$DIMTM
 40
0.0
  9
$DIMTXT
 40
0.18
  9
$DIMCEN
 40
0.09
  9
$DIMTSZ
 40
0.0
  9
$DIMTOL
 70
     0
  9
$DIMLIM
 70
     0
  9
$DIMTIH
 70
     1
  9
$DIMTOH
 70
     1
  9
$DIMSE1
 70
     0
  9
$DIMSE2
 70
     0
  9
$DIMTAD
 70
     0
  9
$DIMZIN
 70
     0
  9
$DIMBLK
  1

  9
$DIMASO
 70
     1
  9
$DIMSHO
 70
     1
  9
$DIMPOST
  1

  9
$DIMAPOST
  1

  9
$DIMALT
 70
     0
  9
$DIMALTD
 70
     2
  9
$DIMALTF
 40
25.4
  9
$DIMLFAC
 40
1.0
  9
$DIMTOFL
 70
     0
  9
$DIMTVP
 40
0.0
  9
$DIMTIX
 70
     0
  9
$DIMSOXD
 70
     0
  9
$DIMSAH
 70
     0
  9
$DIMBLK1
  1

  9
$DIMBLK2
  1

  9
$DIMSTYLE
  2
Standard
  9
$DIMCLRD
 70
     0
  9
$DIMCLRE
 70
     0
  9
$DIMCLRT
 70
     0
  9
$DIMTFAC
 40
1.0
  9
$DIMGAP
 40
0.09
  9
$DIMJUST
 70
     0
  9
$DIMSD1
 70
     0
  9
$DIMSD2
 70
     0
  9
$DIMTOLJ
 70
     1
  9
$DIMTZIN
 70
     0
  9
$DIMALTZ
 70
     0
  9
$DIMALTTZ
 70
     0
  9
$DIMUPT
 70
     0
  9
$DIMDEC
 70
     4
  9
$DIMTDEC
 70
     4
  9
$DIMALTU
 70
     2
  9
$DIMALTTD
 70
     2
  9
$DIMTXSTY
  7
Standard
  9
$DIMAUNIT
 70
     0
  9
$DIMADEC
 70
     0
  9
$DIMALTRND
 40
0.0
  9
$DIMAZIN
 70
     0
  9
$DIMDSEP
 70
    46
  9
$DIMATFIT
 70
     3
  9
$DIMFRAC
 70
     0
  9
$DIMLDRBLK
  1

  9
$DIMLUNIT
 70
     2
  9
$DIMLWD
 70
    -2
  9
$DIMLWE
 70
    -2
  9
$DIMTMOVE
 70
     0
  9
$DIMFXL
 40
1.0
  9
$DIMFXLON
 70
     0
  9
$DIMJOGANG
 40
0.7853981633974483
  9
$DIMTFILL
 70
     0
  9
$DIMTFILLCLR
 70
     0
  9
$DIMARCSYM
 70
     0
  9
$DIMLTYPE
  6

  9
$DIMLTEX1
  6

  9
$DIMLTEX2
  6

  9
$DIMTXTDIRECTION
 70
     0
  9
$LUNITS
 70
     2
  9
$LUPREC
 70
     4
  9
$SKETCHINC
 40
0.1
  9
$FILLETRAD
 40
0.0
  9
$AUNITS
 70
     0
  9
$AUPREC
 70
     0
  9
$MENU
  1
.
  9
$ELEVATION
 40
0.0
  9
$PELEVATION
 40
0.0
  9
$THICKNESS
 40
0.0
  9
$LIMCHECK
 70
     0
  9
$CHAMFERA
 40
0.0
  9
$CHAMFERB
 40
0.0
  9
$CHAMFERC
 40
0.0
  9
$CHAMFERD
 40
0.0
  9
$SKPOLY
 70
     0
  9
$TDCREATE
 40
2461303.508068241
  9
$TDUCREATE
 40
2461303.383068241
  9
$TDUPDATE
 40
2461303.508068507
  9
$TDUUPDATE
 40
2461303.383068507
  9
$TDINDWG
 40
0.0000000116
  9
$TDUSRTIMER
 40
0.0000000116
  9
$USRTIMER
 70
     1
  9
$ANGBASE
 50
0.0
  9
$ANGDIR
 70
     0
  9
$PDMODE
 70
     0
  9
$PDSIZE
 40
0.0
  9
$PLINEWID
 40
0.0
  9
$SPLFRAME
 70
     0
  9
$SPLINETYPE
 70
     6
  9
$SPLINESEGS
 70
     8
  9
$HANDSEED
  5
93
  9
$SURFTAB1
 70
     6
  9
$SURFTAB2
 70
     6
  9
$SURFTYPE
 70
     6
  9
$SURFU
 70
     6
  9
$SURFV
 70
     6
  9
$UCSBASE
  2

  9
$UCSNAME
  2

  9
$UCSORG
 10
0.0
 20
0.0
 30
0.0
  9
$UCSXDIR
 10
1.0
 20
0.0
 30
0.0
  9
$UCSYDIR
 10
0.0
 20
1.0
 30
0.0
  9
$UCSORTHOREF
  2

  9
$UCSORTHOVIEW
 70
     0
  9
$UCSORGTOP
 10
0.0
 20
0.0
 30
0.0
  9
$UCSORGBOTTOM
 10
0.0
 20
0.0
 30
0.0
  9
$UCSORGLEFT
 10
0.0
 20
0.0
 30
0.0
  9
$UCSORGRIGHT
 10
0.0
 20
0.0
 30
0.0
  9
$UCSORGFRONT
 10
0.0
 20
0.0
 30
0.0
  9
$UCSORGBACK
 10
0.0
 20
0.0
 30
0.0
  9
$PUCSBASE
  2

  9
$PUCSNAME
  2

  9
$PUCSORG
 10
0.0
 20
0.0
 30
0.0
  9
$PUCSXDIR
 10
1.0
 20
0.0
 30
0.0
  9
$PUCSYDIR
 10
0.0
 20
1.0
 30
0.0
  9
$PUCSORTHOREF
  2

  9
$PUCSORTHOVIEW
 70
     0
  9
$PUCSORGTOP
 10
0.0
 20
0.0
 30
0.0
  9
$PUCSORGBOTTOM
 10
0.0
 20
0.0
 30
0.0
  9
$PUCSORGLEFT
 10
0.0
 20
0.0
 30
0.0
  9
$PUCSORGRIGHT
 10
0.0
 20
0.0
 30
0.0
  9
$PUCSORGFRONT
 10
0.0
 20
0.0
 30
0.0
  9
$PUCSORGBACK
 10
0.0
 20
0.0
 30
0.0
  9
$USERI1
 70
     0
  9
$USERI2
 70
     0
  9
$USERI3
 70
     0
  9
$USERI4
 70
     0
  9
$USERI5
 70
     0
  9
$USERR1
 40
0.0
  9
$USERR2
 40
0.0
  9
$USERR3
 40
0.0
  9
$USERR4
 40
0.0
  9
$USERR5
 40
0.0
  9
$WORLDVIEW
 70
     1
  9
$SHADEDGE
 70
     3
  9
$SHADEDIF
 70
    70
  9
$TILEMODE
 70
     1
  9
$MAXACTVP
 70
    64
  9
$PINSBASE
 10
0.0
 20
0.0
 30
0.0
  9
$PLIMCHECK
 70
     0
  9
$PEXTMIN
 10
1.000000000000000E+20
 20
1.000000000000000E+20
 30
1.000000000000000E+20
  9
$PEXTMAX
 10
-1.000000000000000E+20
 20
-1.000000000000000E+20
 30
-1.000000000000000E+20
  9
$PLIMMIN
 10
0.0
 20
0.0
  9
$PLIMMAX
 10
12.0
 20
9.0
  9
$UNITMODE
 70
     0
  9
$VISRETAIN
 70
     1
  9
$PLINEGEN
 70
     0
  9
$PSLTSCALE
 70
     1
  9
$TREEDEPTH
 70
  3020
  9
$CMLSTYLE
  2
Standard
  9
$CMLJUST
 70
     0
  9
$CMLSCALE
 40
1.0
  9
$PROXYGRAPHICS
 70
     1
  9
$MEASUREMENT
 70
     0
  9
$CELWEIGHT
370
    -1
  9
$ENDCAPS
280
     0
  9
$JOINSTYLE
280
     0
  9
$LWDISPLAY
290
     0
  9
$INSUNITS
 70
     5
  9
$HYPERLINKBASE
  1

  9
$STYLESHEET
  1

  9
$XEDIT
290
     1
  9
$CEPSNTYPE
380
     0
  9
$PSTYLEMODE
290
     1
  9
$FINGERPRINTGUID
  2
{7a4a0b47-79b0-4ae1-816a-ff403813b9ed}
  9
$VERSIONGUID
  2
{FAEB1C32-E019-11D5-929B-00C0DF256EC4}
  9
$EXTNAMES
290
     1
  9
$PSVPSCALE
 40
0.0
  9
$OLESTARTUP
290
     0
  9
$SORTENTS
280
   127
  9
$INDEXCTL
280
     0
  9
$HIDETEXT
280
     1
  9
$XCLIPFRAME
280
     2
  9
$HALOGAP
280
     0
  9
$OBSCOLOR
 70
   257
  9
$OBSLTYPE
280
     0
  9
$INTERSECTIONDISPLAY
280
     0
  9
$INTERSECTIONCOLOR
 70
   257
  9
$DIMASSOC
280
     2
  9
$PROJECTNAME
  1

  9
$CAMERADISPLAY
290
     0
  9
$LENSLENGTH
 40
50.0
  9
$CAMERAHEIGHT
 40
0.0
  9
$STEPSPERSEC
 40
2.0
  9
$STEPSIZE
 40
6.0
  9
$3DDWFPREC
 40
2.0
  9
$PSOLWIDTH
 40
0.25
  9
$PSOLHEIGHT
 40
4.0
  9
$LOFTANG1
 40
1.570796326794897
  9
$LOFTANG2
 40
1.570796326794897
  9
$LOFTMAG1
 40
0.0
  9
$LOFTMAG2
 40
0.0
  9
$LOFTPARAM
 70
     7
  9
$LOFTNORMALS
280
     1
  9
$LATITUDE
 40
37.795
  9
$LONGITUDE
 40
-122.394
  9
$NORTHDIRECTION
 40
0.0
  9
$TIMEZONE
 70
 -8000
  9
$LIGHTGLYPHDISPLAY
280
     1
  9
$TILEMODELIGHTSYNCH
280
     1
  9
$CMATERIAL
347
44
  9
$SOLIDHIST
280
     0
  9
$SHOWHIST
280
     1
  9
$DWFFRAME
280
     2
  9
$DGNFRAME
280
     2
  9
$REALWORLDSCALE
290
     1
  9
$INTERFERECOLOR
 62
   256
  9
$CSHADOW
280
     0
  9
$SHADOWPLANELOCATION
 40
0.0
  0
ENDSEC
  0
SECTION
  2
CLASSES
  0
CLASS
  1
ACDBDICTIONARYWDFLT
  2
AcDbDictionaryWithDefault
  3
ObjectDBX Classes
 90
        0
 91
        3
280
     0
281
     0
  0
CLASS
  1
VISUALSTYLE
  2
AcDbVisualStyle
  3
ObjectDBX Classes
 90
     4095
 91
        3
280
     0
281
     0
  0
CLASS
  1
MATERIAL
  2
AcDbMaterial
  3
ObjectDBX Classes
 90
     1153
 91
        3
280
     0
281
     0
  0
CLASS
  1
SCALE
  2
AcDbScale
  3
ObjectDBX Classes
 90
     1153
 91
        3
280
     0
281
     0
  0
CLASS
  1
TABLESTYLE
  2
AcDbTableStyle
  3
ObjectDBX Classes
 90
     4095
 91
        3
280
     0
281
     0
  0
CLASS
  1
MLEADERSTYLE
  2
AcDbMLeaderStyle
  3
ACDB_MLEADERSTYLE_CLASS
 90
     4095
 91
        3
280
     0
281
     0
  0
CLASS
  1
SUN
  2
AcDbSun
  3
SCENEOE
 90
     1153
 91
        3
280
     0
281
     0
  0
CLASS
  1
DICTIONARYVAR
  2
AcDbDictionaryVar
  3
ObjectDBX Classes
 90
        0
 91
        3
280
     0
281
     0
  0
CLASS
  1
CELLSTYLEMAP
  2
AcDbCellStyleMap
  3
ObjectDBX Classes
 90
     1152
 91
        3
280
     0
281
     0
  0
ENDSEC
  0
SECTION
  2
TABLES
  0
TABLE
  2
VPORT
  5
8
330
0
100
AcDbSymbolTable
 70
     1
  0
VPORT
  5
29
330
8
100
AcDbSymbolTableRecord
100
AcDbViewportTableRecord
  2
*Active
 70
     0
 10
0.0
 20
0.0
 11
1.0
 21
1.0
 12
10.42990654205607
 22
4.5
 13
0.0
 23
0.0
 14
0.5
 24
0.5
 15
0.5
 25
0.5
 16
0.0
 26
0.0
 36
1.0
 17
0.0
 27
0.0
 37
0.0
 40
9.0
 41
1.972972972850329
 42
50.0
 43
0.0
 44
0.0
 50
0.0
 51
0.0
 71
     0
 72
   100
 73
     1
 74
     3
 75
     0
 76
     0
 77
     0
 78
     0
281
     0
 65
     1
110
0.0
120
0.0
130
0.0
111
1.0
121
0.0
131
0.0
112
0.0
122
1.0
132
0.0
 79
     0
146
0.0
348
2F
 60
     3
 61
     5
292
     1
282
     1
141
0.0
142
0.0
 63
   250
361
5D
  0
ENDTAB
  0
TABLE
  2
LTYPE
  5
5
330
0
100
AcDbSymbolTable
 70
     1
  0
LTYPE
  5
14
330
5
100
AcDbSymbolTableRecord
100
AcDbLinetypeTableRecord
  2
ByBlock
 70
     0
  3

 72
    65
 73
     0
 40
0.0
  0
LTYPE
  5
15
330
5
100
AcDbSymbolTableRecord
100
AcDbLinetypeTableRecord
  2
ByLayer
 70
     0
  3

 72
    65
 73
     0
 40
0.0
  0
LTYPE
  5
16
330
5
100
AcDbSymbolTableRecord
100
AcDbLinetypeTableRecord
  2
Continuous
 70
     0
  3
Solid line
 72
    65
 73
     0
 40
0.0
  0
ENDTAB
  0
TABLE
  2
LAYER
  5
2
330
0
100
AcDbSymbolTable
 70
     2
  0
LAYER
  5
10
330
2
100
AcDbSymbolTableRecord
100
AcDbLayerTableRecord
  2
0
 70
     0
 62
     7
  6
Continuous
370
    -3
390
F
347
46
348
0
  0
LAYER
  5
5F
330
2
100
AcDbSymbolTableRecord
100
AcDbLayerTableRecord
  2
Layer 1
 70
     0
 62
     7
  6
Continuous
370
    -3
390
F
347
46
348
0
  0
ENDTAB
  0
TABLE
  2
STYLE
  5
3
330
0
100
AcDbSymbolTable
 70
     1
  0
STYLE
  5
11
330
3
100
AcDbSymbolTableRecord
100
AcDbTextStyleTableRecord
  2
Standard
 70
     0
 40
0.0
 41
1.0
 50
0.0
 71
     0
 42
0.2
  3
txt
  4

  0
ENDTAB
  0
TABLE
  2
VIEW
  5
6
330
0
100
AcDbSymbolTable
 70
     0
  0
ENDTAB
  0
TABLE
  2
UCS
  5
7
330
0
100
AcDbSymbolTable
 70
     0
  0
ENDTAB
  0
TABLE
  2
APPID
  5
9
330
0
100
AcDbSymbolTable
 70
     2
  0
APPID
  5
12
330
9
100
AcDbSymbolTableRecord
100
AcDbRegAppTableRecord
  2
ACAD
 70
     0
  0
APPID
  5
5E
330
9
100
AcDbSymbolTableRecord
100
AcDbRegAppTableRecord
  2
ODA
 70
     0
  0
ENDTAB
  0
TABLE
  2
DIMSTYLE
  5
A
330
0
100
AcDbSymbolTable
 70
     1
100
AcDbDimStyleTable
  0
DIMSTYLE
105
27
330
A
100
AcDbSymbolTableRecord
100
AcDbDimStyleTableRecord
  2
Standard
 70
     0
178
     0
340
11
  0
ENDTAB
  0
TABLE
  2
BLOCK_RECORD
  5
1
330
0
100
AcDbSymbolTable
 70
     1
  0
BLOCK_RECORD
  5
1F
330
1
100
AcDbSymbolTableRecord
100
AcDbBlockTableRecord
  2
*Model_Space
340
22
 70
     0
280
     1
281
     0
  0
BLOCK_RECORD
  5
1B
330
1
100
AcDbSymbolTableRecord
100
AcDbBlockTableRecord
  2
*Paper_Space
340
1E
 70
     0
280
     1
281
     0
  0
BLOCK_RECORD
  5
23
330
1
100
AcDbSymbolTableRecord
100
AcDbBlockTableRecord
  2
*Paper_Space0
340
26
 70
     0
280
     1
281
     0
  0
ENDTAB
  0
ENDSEC
  0
SECTION
  2
BLOCKS
  0
BLOCK
  5
20
330
1F
100
AcDbEntity
  8
0
100
AcDbBlockBegin
  2
*Model_Space
 70
     0
 10
0.0
 20
0.0
 30
0.0
  3
*Model_Space
  1

  0
ENDBLK
  5
21
330
1F
100
AcDbEntity
  8
0
100
AcDbBlockEnd
  0
BLOCK
  5
1C
330
1B
100
AcDbEntity
 67
     1
  8
0
100
AcDbBlockBegin
  2
*Paper_Space
 70
     0
 10
0.0
 20
0.0
 30
0.0
  3
*Paper_Space
  1

  0
ENDBLK
  5
1D
330
1B
100
AcDbEntity
 67
     1
  8
0
100
AcDbBlockEnd
  0
BLOCK
  5
24
330
23
100
AcDbEntity
  8
0
100
AcDbBlockBegin
  2
*Paper_Space0
 70
     0
 10
0.0
 20
0.0
 30
0.0
  3
*Paper_Space0
  1

  0
ENDBLK
  5
25
330
23
100
AcDbEntity
  8
0
100
AcDbBlockEnd
  0
ENDSEC
  0
SECTION
  2
ENTITIES
  0
SPLINE
  5
60
330
1F
100
AcDbEntity
  8
Layer 1
 62
   250
370
    20
100
AcDbSpline
210
0.0
220
0.0
230
1.0
 70
    11
 71
     3
 72
    53
 73
    49
 74
     0
 42
0.0000000001
 43
0.0000000001
 40
0.0
 40
0.0
 40
0.0
 40
0.0
 40
0.0625
 40
0.0625
 40
0.0625
 40
0.125
 40
0.125
 40
0.125
 40
0.1875
 40
0.1875
 40
0.1875
 40
0.25
 40
0.25
 40
0.25
 40
0.3125
 40
0.3125
 40
0.3125
 40
0.375
 40
0.375
 40
0.375
 40
0.4375
 40
0.4375
 40
0.4375
 40
0.5
 40
0.5
 40
0.5
 40
0.5625
 40
0.5625
 40
0.5625
 40
0.625
 40
0.625
 40
0.625
 40
0.6875
 40
0.6875
 40
0.6875
 40
0.75
 40
0.75
 40
0.75
 40
0.8125
 40
0.8125
 40
0.8125
 40
0.875
 40
0.875
 40
0.875
 40
0.9375
 40
0.9375
 40
0.9375
 40
1.0
 40
1.0
 40
1.0
 40
1.0
 10
-7.21794
 20
-83.47466
 30
0.0
 10
-7.21794
 20
-83.47466
 30
0.0
 10
-0.22368
 20
-83.5757
 30
0.0
 10
-0.22368
 20
-83.5757
 30
0.0
 10
-0.22368
 20
-83.5757
 30
0.0
 10
7.48699
 20
-83.47466
 30
0.0
 10
7.48699
 20
-83.47466
 30
0.0
 10
7.48699
 20
-83.47466
 30
0.0
 10
7.38879
 20
-78.88613
 30
0.0
 10
7.38879
 20
-78.88613
 30
0.0
 10
7.38879
 20
-78.88613
 30
0.0
 10
7.32911
 20
-73.19934
 30
0.0
 10
7.32911
 20
-73.19934
 30
0.0
 10
7.32911
 20
-73.19934
 30
0.0
 10
4.21557
 20
-74.57817
 30
0.0
 10
4.21557
 20
-74.57817
 30
0.0
 10
4.21557
 20
-74.57817
 30
0.0
 10
4.16855
 20
-74.94449
 30
0.0
 10
4.16855
 20
-74.94449
 30
0.0
 10
4.16855
 20
-74.94449
 30
0.0
 10
3.88184
 20
-74.72596
 30
0.0
 10
3.88184
 20
-74.72596
 30
0.0
 10
3.88184
 20
-74.72596
 30
0.0
 10
3.40957
 20
-74.9351
 30
0.0
 10
3.40957
 20
-74.9351
 30
0.0
 10
3.40957
 20
-74.9351
 30
0.0
 10
3.36116
 20
-75.31225
 30
0.0
 10
3.36116
 20
-75.31225
 30
0.0
 10
3.36116
 20
-75.31225
 30
0.0
 10
3.06598
 20
-75.08727
 30
0.0
 10
3.06598
 20
-75.08727
 30
0.0
 10
3.06598
 20
-75.08727
 30
0.0
 10
0.729
 20
-76.1222
 30
0.0
 10
0.729
 20
-76.1222
 30
0.0
 10
0.729
 20
-76.1222
 30
0.0
 10
-0.23672
 20
-76.54397
 30
0.0
 10
-0.23672
 20
-76.54397
 30
0.0
 10
-0.23672
 20
-76.54397
 30
0.0
 10
-0.32471
 20
-76.95373
 30
0.0
 10
-0.32471
 20
-76.95373
 30
0.0
 10
-0.32471
 20
-76.95373
 30
0.0
 10
-0.46551
 20
-76.59437
 30
0.0
 10
-0.46551
 20
-76.59437
 30
0.0
 10
-0.46551
 20
-76.59437
 30
0.0
 10
-7.22496
 20
-77.51759
 30
0.0
 10
-7.22496
 20
-77.51759
 30
0.0
 10
-7.22496
 20
-77.51759
 30
0.0
 10
-7.21794
 20
-83.47466
 30
0.0
 10
-7.21794
 20
-83.47466
 30
0.0
  0
SPLINE
  5
61
330
1F
100
AcDbEntity
  8
Layer 1
 62
   250
370
    20
100
AcDbSpline
210
0.0
220
0.0
230
1.0
 70
    11
 71
     3
 72
    44
 73
    40
 74
     0
 42
0.0000000001
 43
0.0000000001
 40
0.0
 40
0.0
 40
0.0
 40
0.0
 40
0.0769230769230769
 40
0.0769230769230769
 40
0.0769230769230769
 40
0.1538461538461539
 40
0.1538461538461539
 40
0.1538461538461539
 40
0.2307692307692308
 40
0.2307692307692308
 40
0.2307692307692308
 40
0.3076923076923077
 40
0.3076923076923077
 40
0.3076923076923077
 40
0.3846153846153846
 40
0.3846153846153846
 40
0.3846153846153846
 40
0.4615384615384616
 40
0.4615384615384616
 40
0.4615384615384616
 40
0.5384615384615385
 40
0.5384615384615385
 40
0.5384615384615385
 40
0.6153846153846154
 40
0.6153846153846154
 40
0.6153846153846154
 40
0.6923076923076923
 40
0.6923076923076923
 40
0.6923076923076923
 40
0.7692307692307693
 40
0.7692307692307693
 40
0.7692307692307693
 40
0.8461538461538463
 40
0.8461538461538463
 40
0.8461538461538463
 40
0.9230769230769231
 40
0.9230769230769231
 40
0.9230769230769231
 40
1.0
 40
1.0
 40
1.0
 40
1.0
 10
7.93875
 20
-81.73354
 30
0.0
 10
7.93875
 20
-81.73354
 30
0.0
 10
15.10571
 20
-81.83708
 30
0.0
 10
15.10571
 20
-81.83708
 30
0.0
 10
15.10571
 20
-81.83708
 30
0.0
 10
23.00677
 20
-81.73354
 30
0.0
 10
23.00677
 20
-81.73354
 30
0.0
 10
23.00677
 20
-81.73354
 30
0.0
 10
22.90615
 20
-77.03172
 30
0.0
 10
22.90615
 20
-77.03172
 30
0.0
 10
22.90615
 20
-77.03172
 30
0.0
 10
22.84499
 20
-71.20452
 30
0.0
 10
22.84499
 20
-71.20452
 30
0.0
 10
22.84499
 20
-71.20452
 30
0.0
 10
18.9328
 20
-72.93703
 30
0.0
 10
18.9328
 20
-72.93703
 30
0.0
 10
18.9328
 20
-72.93703
 30
0.0
 10
18.77907
 20
-73.3696
 30
0.0
 10
18.77907
 20
-73.3696
 30
0.0
 10
18.77907
 20
-73.3696
 30
0.0
 10
18.36094
 20
-73.19028
 30
0.0
 10
18.36094
 20
-73.19028
 30
0.0
 10
18.36094
 20
-73.19028
 30
0.0
 10
16.08191
 20
-74.19955
 30
0.0
 10
16.08191
 20
-74.19955
 30
0.0
 10
16.08191
 20
-74.19955
 30
0.0
 10
15.09235
 20
-74.63173
 30
0.0
 10
15.09235
 20
-74.63173
 30
0.0
 10
15.09235
 20
-74.63173
 30
0.0
 10
15.00219
 20
-75.05161
 30
0.0
 10
15.00219
 20
-75.05161
 30
0.0
 10
15.00219
 20
-75.05161
 30
0.0
 10
14.85791
 20
-74.68337
 30
0.0
 10
14.85791
 20
-74.68337
 30
0.0
 10
14.85791
 20
-74.68337
 30
0.0
 10
7.93156
 20
-75.62939
 30
0.0
 10
7.93156
 20
-75.62939
 30
0.0
 10
7.93156
 20
-75.62939
 30
0.0
 10
7.93875
 20
-81.73354
 30
0.0
 10
7.93875
 20
-81.73354
 30
0.0
  0
SPLINE
  5
62
330
1F
100
AcDbEntity
  8
Layer 1
 62
   250
370
    20
100
AcDbSpline
210
0.0
220
0.0
230
1.0
 70
    11
 71
     3
 72
    74
 73
    70
 74
     0
 42
0.0000000001
 43
0.0000000001
 40
0.0
 40
0.0
 40
0.0
 40
0.0
 40
0.0434782608695652
 40
0.0434782608695652
 40
0.0434782608695652
 40
0.0869565217391304
 40
0.0869565217391304
 40
0.0869565217391304
 40
0.1304347826086956
 40
0.1304347826086956
 40
0.1304347826086956
 40
0.1739130434782609
 40
0.1739130434782609
 40
0.1739130434782609
 40
0.2173913043478261
 40
0.2173913043478261
 40
0.2173913043478261
 40
0.2608695652173913
 40
0.2608695652173913
 40
0.2608695652173913
 40
0.3043478260869565
 40
0.3043478260869565
 40
0.3043478260869565
 40
0.3478260869565217
 40
0.3478260869565217
 40
0.3478260869565217
 40
0.3913043478260869
 40
0.3913043478260869
 40
0.3913043478260869
 40
0.4347826086956522
 40
0.4347826086956522
 40
0.4347826086956522
 40
0.4782608695652174
 40
0.4782608695652174
 40
0.4782608695652174
 40
0.5217391304347826
 40
0.5217391304347826
 40
0.5217391304347826
 40
0.5652173913043478
 40
0.5652173913043478
 40
0.5652173913043478
 40
0.6086956521739131
 40
0.6086956521739131
 40
0.6086956521739131
 40
0.6521739130434783
 40
0.6521739130434783
 40
0.6521739130434783
 40
0.6956521739130435
 40
0.6956521739130435
 40
0.6956521739130435
 40
0.7391304347826086
 40
0.7391304347826086
 40
0.7391304347826086
 40
0.7826086956521738
 40
0.7826086956521738
 40
0.7826086956521738
 40
0.8260869565217391
 40
0.8260869565217391
 40
0.8260869565217391
 40
0.8695652173913043
 40
0.8695652173913043
 40
0.8695652173913043
 40
0.9130434782608695
 40
0.9130434782608695
 40
0.9130434782608695
 40
0.9565217391304348
 40
0.9565217391304348
 40
0.9565217391304348
 40
1.0
 40
1.0
 40
1.0
 40
1.0
 10
-32.48789
 20
-96.18034
 30
0.0
 10
-32.30676
 20
-94.99104
 30
0.0
 10
-30.89379
 20
-93.26088
 30
0.0
 10
-30.13899
 20
-92.19601
 30
0.0
 10
-29.18506
 20
-90.85024
 30
0.0
 10
-28.14635
 20
-89.53879
 30
0.0
 10
-27.16622
 20
-88.20364
 30
0.0
 10
-25.77192
 20
-86.51184
 30
0.0
 10
-24.55916
 20
-85.33421
 30
0.0
 10
-22.77832
 20
-84.03269
 30
0.0
 10
-21.48995
 20
-83.09114
 30
0.0
 10
-19.84783
 20
-82.50945
 30
0.0
 10
-17.84733
 20
-82.2924
 30
0.0
 10
-15.8762
 20
-83.31771
 30
0.0
 10
-13.95753
 20
-84.41029
 30
0.0
 10
-11.93392
 20
-85.3683
 30
0.0
 10
-10.80698
 20
-85.89495
 30
0.0
 10
-9.61185
 20
-86.30225
 30
0.0
 10
-8.36694
 20
-86.62247
 30
0.0
 10
-5.18814
 20
-87.44007
 30
0.0
 10
-1.50774
 20
-87.30945
 30
0.0
 10
1.75215
 20
-87.2655
 30
0.0
 10
1.11073
 20
-90.45684
 30
0.0
 10
-0.09695
 20
-94.61427
 30
0.0
 10
-0.1466
 20
-96.4446
 30
0.0
 10
-0.14229
 20
-96.46778
 30
0.0
 10
-0.13796
 20
-96.49097
 30
0.0
 10
-0.13364
 20
-96.51415
 30
0.0
 10
-0.13796
 20
-96.53732
 30
0.0
 10
-0.14229
 20
-96.56051
 30
0.0
 10
-0.1466
 20
-96.5837
 30
0.0
 10
-0.09695
 20
-98.41403
 30
0.0
 10
1.11073
 20
-102.57145
 30
0.0
 10
1.75215
 20
-105.76279
 30
0.0
 10
-1.50774
 20
-105.71884
 30
0.0
 10
-5.18814
 20
-105.58821
 30
0.0
 10
-8.36694
 20
-106.40582
 30
0.0
 10
-9.61185
 20
-106.72603
 30
0.0
 10
-10.80698
 20
-107.13333
 30
0.0
 10
-11.93392
 20
-107.65999
 30
0.0
 10
-13.95753
 20
-108.61799
 30
0.0
 10
-15.8762
 20
-109.71059
 30
0.0
 10
-17.84733
 20
-110.73589
 30
0.0
 10
-19.84783
 20
-110.51882
 30
0.0
 10
-21.48995
 20
-109.93714
 30
0.0
 10
-22.77832
 20
-108.99559
 30
0.0
 10
-24.55916
 20
-107.69408
 30
0.0
 10
-25.77192
 20
-106.51645
 30
0.0
 10
-27.16622
 20
-104.82465
 30
0.0
 10
-27.63617
 20
-104.18446
 30
0.0
 10
-28.1196
 20
-103.54973
 30
0.0
 10
-28.60068
 20
-102.91405
 30
0.0
 10
-28.60068
 20
-102.91405
 30
0.0
 10
-28.41726
 20
-102.58923
 30
0.0
 10
-28.41726
 20
-102.58923
 30
0.0
 10
-28.41726
 20
-102.58923
 30
0.0
 10
-28.82355
 20
-102.61915
 30
0.0
 10
-28.82355
 20
-102.61915
 30
0.0
 10
-29.27042
 20
-102.02693
 30
0.0
 10
-29.71317
 20
-101.43302
 30
0.0
 10
-30.13899
 20
-100.83227
 30
0.0
 10
-30.89379
 20
-99.76742
 30
0.0
 10
-32.30676
 20
-98.03725
 30
0.0
 10
-32.48789
 20
-96.84795
 30
0.0
 10
-32.2911
 20
-96.73669
 30
0.0
 10
-32.09431
 20
-96.6254
 30
0.0
 10
-31.89754
 20
-96.51415
 30
0.0
 10
-32.09431
 20
-96.40288
 30
0.0
 10
-32.2911
 20
-96.2916
 30
0.0
 10
-32.48789
 20
-96.18034
 30
0.0
  0
SPLINE
  5
63
330
1F
100
AcDbEntity
  8
Layer 1
 62
   250
370
    20
100
AcDbSpline
210
0.0
220
0.0
230
1.0
 70
    11
 71
     3
 72
    56
 73
    52
 74
     0
 42
0.0000000001
 43
0.0000000001
 40
0.0
 40
0.0
 40
0.0
 40
0.0
 40
0.0588235294117647
 40
0.0588235294117647
 40
0.0588235294117647
 40
0.1176470588235294
 40
0.1176470588235294
 40
0.1176470588235294
 40
0.1764705882352941
 40
0.1764705882352941
 40
0.1764705882352941
 40
0.2352941176470588
 40
0.2352941176470588
 40
0.2352941176470588
 40
0.2941176470588235
 40
0.2941176470588235
 40
0.2941176470588235
 40
0.3529411764705882
 40
0.3529411764705882
 40
0.3529411764705882
 40
0.4117647058823529
 40
0.4117647058823529
 40
0.4117647058823529
 40
0.4705882352941176
 40
0.4705882352941176
 40
0.4705882352941176
 40
0.5294117647058824
 40
0.5294117647058824
 40
0.5294117647058824
 40
0.5882352941176471
 40
0.5882352941176471
 40
0.5882352941176471
 40
0.6470588235294118
 40
0.6470588235294118
 40
0.6470588235294118
 40
0.7058823529411764
 40
0.7058823529411764
 40
0.7058823529411764
 40
0.7647058823529411
 40
0.7647058823529411
 40
0.7647058823529411
 40
0.8235294117647058
 40
0.8235294117647058
 40
0.8235294117647058
 40
0.8823529411764706
 40
0.8823529411764706
 40
0.8823529411764706
 40
0.9411764705882353
 40
0.9411764705882353
 40
0.9411764705882353
 40
1.0
 40
1.0
 40
1.0
 40
1.0
 10
-0.07031
 20
-96.19674
 30
0.0
 10
0.10193
 20
-95.06586
 30
0.0
 10
1.4455
 20
-93.42067
 30
0.0
 10
2.16322
 20
-92.40812
 30
0.0
 10
3.07031
 20
-91.12845
 30
0.0
 10
4.058
 20
-89.88143
 30
0.0
 10
4.98996
 20
-88.61185
 30
0.0
 10
6.31578
 20
-87.00315
 30
0.0
 10
7.46897
 20
-85.88337
 30
0.0
 10
9.16235
 20
-84.64577
 30
0.0
 10
10.38742
 20
-83.75048
 30
0.0
 10
11.94888
 20
-83.19737
 30
0.0
 10
13.85112
 20
-82.99097
 30
0.0
 10
15.72543
 20
-83.96591
 30
0.0
 10
17.54985
 20
-85.00483
 30
0.0
 10
19.47407
 20
-85.91578
 30
0.0
 10
20.54565
 20
-86.41657
 30
0.0
 10
21.68208
 20
-86.80386
 30
0.0
 10
22.86583
 20
-87.10835
 30
0.0
 10
25.88849
 20
-87.88579
 30
0.0
 10
29.38812
 20
-87.76158
 30
0.0
 10
32.48788
 20
-87.71979
 30
0.0
 10
30.09768
 20
-99.61223
 30
0.0
 10
30.09768
 20
-93.41605
 30
0.0
 10
32.48788
 20
-105.3085
 30
0.0
 10
29.38812
 20
-105.26671
 30
0.0
 10
25.88849
 20
-105.1425
 30
0.0
 10
22.86583
 20
-105.91993
 30
0.0
 10
21.68208
 20
-106.22443
 30
0.0
 10
20.54565
 20
-106.61172
 30
0.0
 10
19.47407
 20
-107.11251
 30
0.0
 10
17.54985
 20
-108.02346
 30
0.0
 10
15.72543
 20
-109.06238
 30
0.0
 10
13.85112
 20
-110.03732
 30
0.0
 10
11.94888
 20
-109.83092
 30
0.0
 10
10.38742
 20
-109.27781
 30
0.0
 10
9.16235
 20
-108.38252
 30
0.0
 10
7.46897
 20
-107.14492
 30
0.0
 10
6.31578
 20
-106.02514
 30
0.0
 10
4.98996
 20
-104.41644
 30
0.0
 10
4.058
 20
-103.14686
 30
0.0
 10
3.07031
 20
-101.89984
 30
0.0
 10
2.16322
 20
-100.62017
 30
0.0
 10
1.4455
 20
-99.60761
 30
0.0
 10
0.10193
 20
-97.96244
 30
0.0
 10
-0.07031
 20
-96.83156
 30
0.0
 10
0.11682
 20
-96.72576
 30
0.0
 10
0.30394
 20
-96.61995
 30
0.0
 10
0.49106
 20
-96.51415
 30
0.0
 10
0.30394
 20
-96.40835
 30
0.0
 10
0.11682
 20
-96.30254
 30
0.0
 10
-0.07031
 20
-96.19674
 30
0.0
  0
SPLINE
  5
64
330
1F
100
AcDbEntity
  8
Layer 1
 62
   250
370
    20
100
AcDbSpline
210
0.0
220
0.0
230
1.0
 70
    11
 71
     3
 72
    74
 73
    70
 74
     0
 42
0.0000000001
 43
0.0000000001
 40
0.0
 40
0.0
 40
0.0
 40
0.0
 40
0.0434782608695652
 40
0.0434782608695652
 40
0.0434782608695652
 40
0.0869565217391304
 40
0.0869565217391304
 40
0.0869565217391304
 40
0.1304347826086956
 40
0.1304347826086956
 40
0.1304347826086956
 40
0.1739130434782609
 40
0.1739130434782609
 40
0.1739130434782609
 40
0.2173913043478261
 40
0.2173913043478261
 40
0.2173913043478261
 40
0.2608695652173913
 40
0.2608695652173913
 40
0.2608695652173913
 40
0.3043478260869565
 40
0.3043478260869565
 40
0.3043478260869565
 40
0.3478260869565217
 40
0.3478260869565217
 40
0.3478260869565217
 40
0.3913043478260869
 40
0.3913043478260869
 40
0.3913043478260869
 40
0.4347826086956522
 40
0.4347826086956522
 40
0.4347826086956522
 40
0.4782608695652174
 40
0.4782608695652174
 40
0.4782608695652174
 40
0.5217391304347826
 40
0.5217391304347826
 40
0.5217391304347826
 40
0.5652173913043478
 40
0.5652173913043478
 40
0.5652173913043478
 40
0.6086956521739131
 40
0.6086956521739131
 40
0.6086956521739131
 40
0.6521739130434783
 40
0.6521739130434783
 40
0.6521739130434783
 40
0.6956521739130435
 40
0.6956521739130435
 40
0.6956521739130435
 40
0.7391304347826086
 40
0.7391304347826086
 40
0.7391304347826086
 40
0.7826086956521738
 40
0.7826086956521738
 40
0.7826086956521738
 40
0.8260869565217391
 40
0.8260869565217391
 40
0.8260869565217391
 40
0.8695652173913043
 40
0.8695652173913043
 40
0.8695652173913043
 40
0.9130434782608695
 40
0.9130434782608695
 40
0.9130434782608695
 40
0.9565217391304348
 40
0.9565217391304348
 40
0.9565217391304348
 40
1.0
 40
1.0
 40
1.0
 40
1.0
 10
32.48789
 20
-122.14249
 30
0.0
 10
32.30676
 20
-120.95319
 30
0.0
 10
30.89379
 20
-119.22303
 30
0.0
 10
30.13899
 20
-118.15816
 30
0.0
 10
29.18506
 20
-116.81239
 30
0.0
 10
28.14635
 20
-115.50094
 30
0.0
 10
27.16622
 20
-114.16579
 30
0.0
 10
25.77192
 20
-112.47399
 30
0.0
 10
24.55916
 20
-111.29636
 30
0.0
 10
22.77832
 20
-109.99484
 30
0.0
 10
21.48995
 20
-109.05329
 30
0.0
 10
19.84783
 20
-108.4716
 30
0.0
 10
17.84733
 20
-108.25455
 30
0.0
 10
15.8762
 20
-109.27986
 30
0.0
 10
13.95753
 20
-110.37244
 30
0.0
 10
11.93392
 20
-111.33045
 30
0.0
 10
10.80698
 20
-111.8571
 30
0.0
 10
9.61185
 20
-112.2644
 30
0.0
 10
8.36694
 20
-112.58462
 30
0.0
 10
5.18814
 20
-113.40222
 30
0.0
 10
1.50774
 20
-113.2716
 30
0.0
 10
-1.75215
 20
-113.22765
 30
0.0
 10
-1.11073
 20
-116.41899
 30
0.0
 10
0.09695
 20
-120.57642
 30
0.0
 10
0.1466
 20
-122.40675
 30
0.0
 10
0.14229
 20
-122.42993
 30
0.0
 10
0.13796
 20
-122.45312
 30
0.0
 10
0.13364
 20
-122.4763
 30
0.0
 10
0.13796
 20
-122.49947
 30
0.0
 10
0.14229
 20
-122.52266
 30
0.0
 10
0.1466
 20
-122.54585
 30
0.0
 10
0.09695
 20
-124.37618
 30
0.0
 10
-1.11073
 20
-128.5336
 30
0.0
 10
-1.75215
 20
-131.72494
 30
0.0
 10
1.50774
 20
-131.68099
 30
0.0
 10
5.18814
 20
-131.55036
 30
0.0
 10
8.36694
 20
-132.36797
 30
0.0
 10
9.61185
 20
-132.68818
 30
0.0
 10
10.80698
 20
-133.09548
 30
0.0
 10
11.93392
 20
-133.62214
 30
0.0
 10
13.95753
 20
-134.58014
 30
0.0
 10
15.8762
 20
-135.67274
 30
0.0
 10
17.84733
 20
-136.69804
 30
0.0
 10
19.84783
 20
-136.48097
 30
0.0
 10
21.48995
 20
-135.89929
 30
0.0
 10
22.77832
 20
-134.95774
 30
0.0
 10
24.55916
 20
-133.65623
 30
0.0
 10
25.77192
 20
-132.4786
 30
0.0
 10
27.16622
 20
-130.7868
 30
0.0
 10
27.63617
 20
-130.14661
 30
0.0
 10
28.1196
 20
-129.51188
 30
0.0
 10
28.60068
 20
-128.8762
 30
0.0
 10
28.60068
 20
-128.8762
 30
0.0
 10
28.41726
 20
-128.55138
 30
0.0
 10
28.41726
 20
-128.55138
 30
0.0
 10
28.41726
 20
-128.55138
 30
0.0
 10
28.82355
 20
-128.5813
 30
0.0
 10
28.82355
 20
-128.5813
 30
0.0
 10
29.27042
 20
-127.98908
 30
0.0
 10
29.71317
 20
-127.39517
 30
0.0
 10
30.13899
 20
-126.79442
 30
0.0
 10
30.89379
 20
-125.72957
 30
0.0
 10
32.30676
 20
-123.9994
 30
0.0
 10
32.48789
 20
-122.8101
 30
0.0
 10
32.2911
 20
-122.69884
 30
0.0
 10
32.09431
 20
-122.58755
 30
0.0
 10
31.89754
 20
-122.4763
 30
0.0
 10
32.09431
 20
-122.36503
 30
0.0
 10
32.2911
 20
-122.25375
 30
0.0
 10
32.48789
 20
-122.14249
 30
0.0
  0
SPLINE
  5
65
330
1F
100
AcDbEntity
  8
Layer 1
 62
   250
370
    20
100
AcDbSpline
210
0.0
220
0.0
230
1.0
 70
    11
 71
     3
 72
    56
 73
    52
 74
     0
 42
0.0000000001
 43
0.0000000001
 40
0.0
 40
0.0
 40
0.0
 40
0.0
 40
0.0588235294117647
 40
0.0588235294117647
 40
0.0588235294117647
 40
0.1176470588235294
 40
0.1176470588235294
 40
0.1176470588235294
 40
0.1764705882352941
 40
0.1764705882352941
 40
0.1764705882352941
 40
0.2352941176470588
 40
0.2352941176470588
 40
0.2352941176470588
 40
0.2941176470588235
 40
0.2941176470588235
 40
0.2941176470588235
 40
0.3529411764705882
 40
0.3529411764705882
 40
0.3529411764705882
 40
0.4117647058823529
 40
0.4117647058823529
 40
0.4117647058823529
 40
0.4705882352941176
 40
0.4705882352941176
 40
0.4705882352941176
 40
0.5294117647058824
 40
0.5294117647058824
 40
0.5294117647058824
 40
0.5882352941176471
 40
0.5882352941176471
 40
0.5882352941176471
 40
0.6470588235294118
 40
0.6470588235294118
 40
0.6470588235294118
 40
0.7058823529411764
 40
0.7058823529411764
 40
0.7058823529411764
 40
0.7647058823529411
 40
0.7647058823529411
 40
0.7647058823529411
 40
0.8235294117647058
 40
0.8235294117647058
 40
0.8235294117647058
 40
0.8823529411764706
 40
0.8823529411764706
 40
0.8823529411764706
 40
0.9411764705882353
 40
0.9411764705882353
 40
0.9411764705882353
 40
1.0
 40
1.0
 40
1.0
 40
1.0
 10
0.07031
 20
-122.15889
 30
0.0
 10
-0.10193
 20
-121.02801
 30
0.0
 10
-1.4455
 20
-119.38282
 30
0.0
 10
-2.16322
 20
-118.37027
 30
0.0
 10
-3.07031
 20
-117.0906
 30
0.0
 10
-4.058
 20
-115.84358
 30
0.0
 10
-4.98996
 20
-114.574
 30
0.0
 10
-6.31578
 20
-112.9653
 30
0.0
 10
-7.46897
 20
-111.84552
 30
0.0
 10
-9.16235
 20
-110.60792
 30
0.0
 10
-10.38742
 20
-109.71263
 30
0.0
 10
-11.94888
 20
-109.15952
 30
0.0
 10
-13.85112
 20
-108.95312
 30
0.0
 10
-15.72543
 20
-109.92806
 30
0.0
 10
-17.54985
 20
-110.96698
 30
0.0
 10
-19.47407
 20
-111.87793
 30
0.0
 10
-20.54565
 20
-112.37872
 30
0.0
 10
-21.68208
 20
-112.76601
 30
0.0
 10
-22.86583
 20
-113.0705
 30
0.0
 10
-25.88849
 20
-113.84794
 30
0.0
 10
-29.38812
 20
-113.72373
 30
0.0
 10
-32.48788
 20
-113.68194
 30
0.0
 10
-30.09768
 20
-125.57438
 30
0.0
 10
-30.09768
 20
-119.3782
 30
0.0
 10
-32.48788
 20
-131.27065
 30
0.0
 10
-29.38812
 20
-131.22886
 30
0.0
 10
-25.88849
 20
-131.10465
 30
0.0
 10
-22.86583
 20
-131.88208
 30
0.0
 10
-21.68208
 20
-132.18658
 30
0.0
 10
-20.54565
 20
-132.57387
 30
0.0
 10
-19.47407
 20
-133.07466
 30
0.0
 10
-17.54985
 20
-133.98561
 30
0.0
 10
-15.72543
 20
-135.02453
 30
0.0
 10
-13.85112
 20
-135.99947
 30
0.0
 10
-11.94888
 20
-135.79307
 30
0.0
 10
-10.38742
 20
-135.23996
 30
0.0
 10
-9.16235
 20
-134.34467
 30
0.0
 10
-7.46897
 20
-133.10707
 30
0.0
 10
-6.31578
 20
-131.98729
 30
0.0
 10
-4.98996
 20
-130.37859
 30
0.0
 10
-4.058
 20
-129.10901
 30
0.0
 10
-3.07031
 20
-127.86199
 30
0.0
 10
-2.16322
 20
-126.58232
 30
0.0
 10
-1.4455
 20
-125.56976
 30
0.0
 10
-0.10193
 20
-123.92459
 30
0.0
 10
0.07031
 20
-122.79371
 30
0.0
 10
-0.11682
 20
-122.68791
 30
0.0
 10
-0.30394
 20
-122.5821
 30
0.0
 10
-0.49106
 20
-122.4763
 30
0.0
 10
-0.30394
 20
-122.3705
 30
0.0
 10
-0.11682
 20
-122.26469
 30
0.0
 10
0.07031
 20
-122.15889
 30
0.0
  0
SPLINE
  5
66
330
1F
100
AcDbEntity
  8
Layer 1
 62
   250
370
    20
100
AcDbSpline
210
0.0
220
0.0
230
1.0
 70
    11
 71
     3
 72
    74
 73
    70
 74
     0
 42
0.0000000001
 43
0.0000000001
 40
0.0
 40
0.0
 40
0.0
 40
0.0
 40
0.0434782608695652
 40
0.0434782608695652
 40
0.0434782608695652
 40
0.0869565217391304
 40
0.0869565217391304
 40
0.0869565217391304
 40
0.1304347826086956
 40
0.1304347826086956
 40
0.1304347826086956
 40
0.1739130434782609
 40
0.1739130434782609
 40
0.1739130434782609
 40
0.2173913043478261
 40
0.2173913043478261
 40
0.2173913043478261
 40
0.2608695652173913
 40
0.2608695652173913
 40
0.2608695652173913
 40
0.3043478260869565
 40
0.3043478260869565
 40
0.3043478260869565
 40
0.3478260869565217
 40
0.3478260869565217
 40
0.3478260869565217
 40
0.3913043478260869
 40
0.3913043478260869
 40
0.3913043478260869
 40
0.4347826086956522
 40
0.4347826086956522
 40
0.4347826086956522
 40
0.4782608695652174
 40
0.4782608695652174
 40
0.4782608695652174
 40
0.5217391304347826
 40
0.5217391304347826
 40
0.5217391304347826
 40
0.5652173913043478
 40
0.5652173913043478
 40
0.5652173913043478
 40
0.6086956521739131
 40
0.6086956521739131
 40
0.6086956521739131
 40
0.6521739130434783
 40
0.6521739130434783
 40
0.6521739130434783
 40
0.6956521739130435
 40
0.6956521739130435
 40
0.6956521739130435
 40
0.7391304347826086
 40
0.7391304347826086
 40
0.7391304347826086
 40
0.7826086956521738
 40
0.7826086956521738
 40
0.7826086956521738
 40
0.8260869565217391
 40
0.8260869565217391
 40
0.8260869565217391
 40
0.8695652173913043
 40
0.8695652173913043
 40
0.8695652173913043
 40
0.9130434782608695
 40
0.9130434782608695
 40
0.9130434782608695
 40
0.9565217391304348
 40
0.9565217391304348
 40
0.9565217391304348
 40
1.0
 40
1.0
 40
1.0
 40
1.0
 10
-32.48789
 20
-148.02885
 30
0.0
 10
-32.30676
 20
-146.83955
 30
0.0
 10
-30.89379
 20
-145.10939
 30
0.0
 10
-30.13899
 20
-144.04452
 30
0.0
 10
-29.18506
 20
-142.69875
 30
0.0
 10
-28.14635
 20
-141.3873
 30
0.0
 10
-27.16622
 20
-140.05215
 30
0.0
 10
-25.77192
 20
-138.36035
 30
0.0
 10
-24.55916
 20
-137.18272
 30
0.0
 10
-22.77832
 20
-135.8812
 30
0.0
 10
-21.48995
 20
-134.93965
 30
0.0
 10
-19.84783
 20
-134.35796
 30
0.0
 10
-17.84733
 20
-134.14091
 30
0.0
 10
-15.8762
 20
-135.16622
 30
0.0
 10
-13.95753
 20
-136.2588
 30
0.0
 10
-11.93392
 20
-137.21681
 30
0.0
 10
-10.80698
 20
-137.74346
 30
0.0
 10
-9.61185
 20
-138.15076
 30
0.0
 10
-8.36694
 20
-138.47098
 30
0.0
 10
-5.18814
 20
-139.28858
 30
0.0
 10
-1.50774
 20
-139.15796
 30
0.0
 10
1.75215
 20
-139.11401
 30
0.0
 10
1.11073
 20
-142.30535
 30
0.0
 10
-0.09695
 20
-146.46278
 30
0.0
 10
-0.1466
 20
-148.29311
 30
0.0
 10
-0.14229
 20
-148.31629
 30
0.0
 10
-0.13796
 20
-148.33948
 30
0.0
 10
-0.13364
 20
-148.36266
 30
0.0
 10
-0.13796
 20
-148.38583
 30
0.0
 10
-0.14229
 20
-148.40902
 30
0.0
 10
-0.1466
 20
-148.43221
 30
0.0
 10
-0.09695
 20
-150.26254
 30
0.0
 10
1.11073
 20
-154.41996
 30
0.0
 10
1.75215
 20
-157.6113
 30
0.0
 10
-1.50774
 20
-157.56735
 30
0.0
 10
-5.18814
 20
-157.43672
 30
0.0
 10
-8.36694
 20
-158.25433
 30
0.0
 10
-9.61185
 20
-158.57454
 30
0.0
 10
-10.80698
 20
-158.98184
 30
0.0
 10
-11.93392
 20
-159.5085
 30
0.0
 10
-13.95753
 20
-160.4665
 30
0.0
 10
-15.8762
 20
-161.5591
 30
0.0
 10
-17.84733
 20
-162.5844
 30
0.0
 10
-19.84783
 20
-162.36733
 30
0.0
 10
-21.48995
 20
-161.78565
 30
0.0
 10
-22.77832
 20
-160.8441
 30
0.0
 10
-24.55916
 20
-159.54259
 30
0.0
 10
-25.77192
 20
-158.36496
 30
0.0
 10
-27.16622
 20
-156.67316
 30
0.0
 10
-27.63617
 20
-156.03297
 30
0.0
 10
-28.1196
 20
-155.39824
 30
0.0
 10
-28.60068
 20
-154.76256
 30
0.0
 10
-28.60068
 20
-154.76256
 30
0.0
 10
-28.41726
 20
-154.43774
 30
0.0
 10
-28.41726
 20
-154.43774
 30
0.0
 10
-28.41726
 20
-154.43774
 30
0.0
 10
-28.82355
 20
-154.46766
 30
0.0
 10
-28.82355
 20
-154.46766
 30
0.0
 10
-29.27042
 20
-153.87544
 30
0.0
 10
-29.71317
 20
-153.28153
 30
0.0
 10
-30.13899
 20
-152.68078
 30
0.0
 10
-30.89379
 20
-151.61593
 30
0.0
 10
-32.30676
 20
-149.88576
 30
0.0
 10
-32.48789
 20
-148.69646
 30
0.0
 10
-32.2911
 20
-148.5852
 30
0.0
 10
-32.09431
 20
-148.47391
 30
0.0
 10
-31.89754
 20
-148.36266
 30
0.0
 10
-32.09431
 20
-148.25139
 30
0.0
 10
-32.2911
 20
-148.14011
 30
0.0
 10
-32.48789
 20
-148.02885
 30
0.0
  0
SPLINE
  5
67
330
1F
100
AcDbEntity
  8
Layer 1
 62
   250
370
    20
100
AcDbSpline
210
0.0
220
0.0
230
1.0
 70
    11
 71
     3
 72
    56
 73
    52
 74
     0
 42
0.0000000001
 43
0.0000000001
 40
0.0
 40
0.0
 40
0.0
 40
0.0
 40
0.0588235294117647
 40
0.0588235294117647
 40
0.0588235294117647
 40
0.1176470588235294
 40
0.1176470588235294
 40
0.1176470588235294
 40
0.1764705882352941
 40
0.1764705882352941
 40
0.1764705882352941
 40
0.2352941176470588
 40
0.2352941176470588
 40
0.2352941176470588
 40
0.2941176470588235
 40
0.2941176470588235
 40
0.2941176470588235
 40
0.3529411764705882
 40
0.3529411764705882
 40
0.3529411764705882
 40
0.4117647058823529
 40
0.4117647058823529
 40
0.4117647058823529
 40
0.4705882352941176
 40
0.4705882352941176
 40
0.4705882352941176
 40
0.5294117647058824
 40
0.5294117647058824
 40
0.5294117647058824
 40
0.5882352941176471
 40
0.5882352941176471
 40
0.5882352941176471
 40
0.6470588235294118
 40
0.6470588235294118
 40
0.6470588235294118
 40
0.7058823529411764
 40
0.7058823529411764
 40
0.7058823529411764
 40
0.7647058823529411
 40
0.7647058823529411
 40
0.7647058823529411
 40
0.8235294117647058
 40
0.8235294117647058
 40
0.8235294117647058
 40
0.8823529411764706
 40
0.8823529411764706
 40
0.8823529411764706
 40
0.9411764705882353
 40
0.9411764705882353
 40
0.9411764705882353
 40
1.0
 40
1.0
 40
1.0
 40
1.0
 10
-0.07031
 20
-148.04525
 30
0.0
 10
0.10193
 20
-146.91437
 30
0.0
 10
1.4455
 20
-145.26918
 30
0.0
 10
2.16322
 20
-144.25663
 30
0.0
 10
3.07031
 20
-142.97696
 30
0.0
 10
4.058
 20
-141.72994
 30
0.0
 10
4.98996
 20
-140.46036
 30
0.0
 10
6.31578
 20
-138.85166
 30
0.0
 10
7.46897
 20
-137.73188
 30
0.0
 10
9.16235
 20
-136.49428
 30
0.0
 10
10.38742
 20
-135.59899
 30
0.0
 10
11.94888
 20
-135.04588
 30
0.0
 10
13.85112
 20
-134.83948
 30
0.0
 10
15.72543
 20
-135.81442
 30
0.0
 10
17.54985
 20
-136.85334
 30
0.0
 10
19.47407
 20
-137.76429
 30
0.0
 10
20.54565
 20
-138.26508
 30
0.0
 10
21.68208
 20
-138.65237
 30
0.0
 10
22.86583
 20
-138.95686
 30
0.0
 10
25.88849
 20
-139.7343
 30
0.0
 10
29.38812
 20
-139.61009
 30
0.0
 10
32.48788
 20
-139.5683
 30
0.0
 10
30.09768
 20
-151.46074
 30
0.0
 10
30.09768
 20
-145.26456
 30
0.0
 10
32.48788
 20
-157.15701
 30
0.0
 10
29.38812
 20
-157.11522
 30
0.0
 10
25.88849
 20
-156.99101
 30
0.0
 10
22.86583
 20
-157.76844
 30
0.0
 10
21.68208
 20
-158.07294
 30
0.0
 10
20.54565
 20
-158.46023
 30
0.0
 10
19.47407
 20
-158.96102
 30
0.0
 10
17.54985
 20
-159.87197
 30
0.0
 10
15.72543
 20
-160.91089
 30
0.0
 10
13.85112
 20
-161.88583
 30
0.0
 10
11.94888
 20
-161.67943
 30
0.0
 10
10.38742
 20
-161.12632
 30
0.0
 10
9.16235
 20
-160.23103
 30
0.0
 10
7.46897
 20
-158.99343
 30
0.0
 10
6.31578
 20
-157.87365
 30
0.0
 10
4.98996
 20
-156.26495
 30
0.0
 10
4.058
 20
-154.99537
 30
0.0
 10
3.07031
 20
-153.74835
 30
0.0
 10
2.16322
 20
-152.46868
 30
0.0
 10
1.4455
 20
-151.45612
 30
0.0
 10
0.10193
 20
-149.81095
 30
0.0
 10
-0.07031
 20
-148.68007
 30
0.0
 10
0.11682
 20
-148.57427
 30
0.0
 10
0.30394
 20
-148.46846
 30
0.0
 10
0.49106
 20
-148.36266
 30
0.0
 10
0.30394
 20
-148.25686
 30
0.0
 10
0.11682
 20
-148.15105
 30
0.0
 10
-0.07031
 20
-148.04525
 30
0.0
  0
SPLINE
  5
68
330
1F
100
AcDbEntity
  8
Layer 1
 62
   250
370
    20
100
AcDbSpline
210
0.0
220
0.0
230
1.0
 70
    11
 71
     3
 72
    74
 73
    70
 74
     0
 42
0.0000000001
 43
0.0000000001
 40
0.0
 40
0.0
 40
0.0
 40
0.0
 40
0.0434782608695652
 40
0.0434782608695652
 40
0.0434782608695652
 40
0.0869565217391304
 40
0.0869565217391304
 40
0.0869565217391304
 40
0.1304347826086956
 40
0.1304347826086956
 40
0.1304347826086956
 40
0.1739130434782609
 40
0.1739130434782609
 40
0.1739130434782609
 40
0.2173913043478261
 40
0.2173913043478261
 40
0.2173913043478261
 40
0.2608695652173913
 40
0.2608695652173913
 40
0.2608695652173913
 40
0.3043478260869565
 40
0.3043478260869565
 40
0.3043478260869565
 40
0.3478260869565217
 40
0.3478260869565217
 40
0.3478260869565217
 40
0.3913043478260869
 40
0.3913043478260869
 40
0.3913043478260869
 40
0.4347826086956522
 40
0.4347826086956522
 40
0.4347826086956522
 40
0.4782608695652174
 40
0.4782608695652174
 40
0.4782608695652174
 40
0.5217391304347826
 40
0.5217391304347826
 40
0.5217391304347826
 40
0.5652173913043478
 40
0.5652173913043478
 40
0.5652173913043478
 40
0.6086956521739131
 40
0.6086956521739131
 40
0.6086956521739131
 40
0.6521739130434783
 40
0.6521739130434783
 40
0.6521739130434783
 40
0.6956521739130435
 40
0.6956521739130435
 40
0.6956521739130435
 40
0.7391304347826086
 40
0.7391304347826086
 40
0.7391304347826086
 40
0.7826086956521738
 40
0.7826086956521738
 40
0.7826086956521738
 40
0.8260869565217391
 40
0.8260869565217391
 40
0.8260869565217391
 40
0.8695652173913043
 40
0.8695652173913043
 40
0.8695652173913043
 40
0.9130434782608695
 40
0.9130434782608695
 40
0.9130434782608695
 40
0.9565217391304348
 40
0.9565217391304348
 40
0.9565217391304348
 40
1.0
 40
1.0
 40
1.0
 40
1.0
 10
32.48789
 20
-173.991
 30
0.0
 10
32.30676
 20
-172.8017
 30
0.0
 10
30.89379
 20
-171.07154
 30
0.0
 10
30.13899
 20
-170.00667
 30
0.0
 10
29.18506
 20
-168.6609
 30
0.0
 10
28.14635
 20
-167.34945
 30
0.0
 10
27.16622
 20
-166.0143
 30
0.0
 10
25.77192
 20
-164.3225
 30
0.0
 10
24.55916
 20
-163.14487
 30
0.0
 10
22.77832
 20
-161.84335
 30
0.0
 10
21.48995
 20
-160.9018
 30
0.0
 10
19.84783
 20
-160.32011
 30
0.0
 10
17.84733
 20
-160.10306
 30
0.0
 10
15.8762
 20
-161.12837
 30
0.0
 10
13.95753
 20
-162.22095
 30
0.0
 10
11.93392
 20
-163.17896
 30
0.0
 10
10.80698
 20
-163.70561
 30
0.0
 10
9.61185
 20
-164.11291
 30
0.0
 10
8.36694
 20
-164.43313
 30
0.0
 10
5.18814
 20
-165.25073
 30
0.0
 10
1.50774
 20
-165.12011
 30
0.0
 10
-1.75215
 20
-165.07616
 30
0.0
 10
-1.11073
 20
-168.2675
 30
0.0
 10
0.09695
 20
-172.42493
 30
0.0
 10
0.1466
 20
-174.25526
 30
0.0
 10
0.14229
 20
-174.27844
 30
0.0
 10
0.13796
 20
-174.30163
 30
0.0
 10
0.13364
 20
-174.32481
 30
0.0
 10
0.13796
 20
-174.34798
 30
0.0
 10
0.14229
 20
-174.37117
 30
0.0
 10
0.1466
 20
-174.39436
 30
0.0
 10
0.09695
 20
-176.22469
 30
0.0
 10
-1.11073
 20
-180.38211
 30
0.0
 10
-1.75215
 20
-183.57345
 30
0.0
 10
1.50774
 20
-183.5295
 30
0.0
 10
5.18814
 20
-183.39887
 30
0.0
 10
8.36694
 20
-184.21648
 30
0.0
 10
9.61185
 20
-184.53669
 30
0.0
 10
10.80698
 20
-184.94399
 30
0.0
 10
11.93392
 20
-185.47065
 30
0.0
 10
13.95753
 20
-186.42865
 30
0.0
 10
15.8762
 20
-187.52125
 30
0.0
 10
17.84733
 20
-188.54655
 30
0.0
 10
19.84783
 20
-188.32948
 30
0.0
 10
21.48995
 20
-187.7478
 30
0.0
 10
22.77832
 20
-186.80625
 30
0.0
 10
24.55916
 20
-185.50474
 30
0.0
 10
25.77192
 20
-184.32711
 30
0.0
 10
27.16622
 20
-182.63531
 30
0.0
 10
27.63617
 20
-181.99512
 30
0.0
 10
28.1196
 20
-181.36039
 30
0.0
 10
28.60068
 20
-180.72471
 30
0.0
 10
28.60068
 20
-180.72471
 30
0.0
 10
28.41726
 20
-180.39989
 30
0.0
 10
28.41726
 20
-180.39989
 30
0.0
 10
28.41726
 20
-180.39989
 30
0.0
 10
28.82355
 20
-180.42981
 30
0.0
 10
28.82355
 20
-180.42981
 30
0.0
 10
29.27042
 20
-179.83759
 30
0.0
 10
29.71317
 20
-179.24368
 30
0.0
 10
30.13899
 20
-178.64293
 30
0.0
 10
30.89379
 20
-177.57808
 30
0.0
 10
32.30676
 20
-175.84791
 30
0.0
 10
32.48789
 20
-174.65861
 30
0.0
 10
32.2911
 20
-174.54735
 30
0.0
 10
32.09431
 20
-174.43606
 30
0.0
 10
31.89754
 20
-174.32481
 30
0.0
 10
32.09431
 20
-174.21354
 30
0.0
 10
32.2911
 20
-174.10226
 30
0.0
 10
32.48789
 20
-173.991
 30
0.0
  0
SPLINE
  5
69
330
1F
100
AcDbEntity
  8
Layer 1
 62
   250
370
    20
100
AcDbSpline
210
0.0
220
0.0
230
1.0
 70
    11
 71
     3
 72
    56
 73
    52
 74
     0
 42
0.0000000001
 43
0.0000000001
 40
0.0
 40
0.0
 40
0.0
 40
0.0
 40
0.0588235294117647
 40
0.0588235294117647
 40
0.0588235294117647
 40
0.1176470588235294
 40
0.1176470588235294
 40
0.1176470588235294
 40
0.1764705882352941
 40
0.1764705882352941
 40
0.1764705882352941
 40
0.2352941176470588
 40
0.2352941176470588
 40
0.2352941176470588
 40
0.2941176470588235
 40
0.2941176470588235
 40
0.2941176470588235
 40
0.3529411764705882
 40
0.3529411764705882
 40
0.3529411764705882
 40
0.4117647058823529
 40
0.4117647058823529
 40
0.4117647058823529
 40
0.4705882352941176
 40
0.4705882352941176
 40
0.4705882352941176
 40
0.5294117647058824
 40
0.5294117647058824
 40
0.5294117647058824
 40
0.5882352941176471
 40
0.5882352941176471
 40
0.5882352941176471
 40
0.6470588235294118
 40
0.6470588235294118
 40
0.6470588235294118
 40
0.7058823529411764
 40
0.7058823529411764
 40
0.7058823529411764
 40
0.7647058823529411
 40
0.7647058823529411
 40
0.7647058823529411
 40
0.8235294117647058
 40
0.8235294117647058
 40
0.8235294117647058
 40
0.8823529411764706
 40
0.8823529411764706
 40
0.8823529411764706
 40
0.9411764705882353
 40
0.9411764705882353
 40
0.9411764705882353
 40
1.0
 40
1.0
 40
1.0
 40
1.0
 10
0.07031
 20
-174.0074
 30
0.0
 10
-0.10193
 20
-172.87652
 30
0.0
 10
-1.4455
 20
-171.23133
 30
0.0
 10
-2.16322
 20
-170.21878
 30
0.0
 10
-3.07031
 20
-168.93911
 30
0.0
 10
-4.058
 20
-167.69209
 30
0.0
 10
-4.98996
 20
-166.42251
 30
0.0
 10
-6.31578
 20
-164.81381
 30
0.0
 10
-7.46897
 20
-163.69403
 30
0.0
 10
-9.16235
 20
-162.45643
 30
0.0
 10
-10.38742
 20
-161.56114
 30
0.0
 10
-11.94888
 20
-161.00803
 30
0.0
 10
-13.85112
 20
-160.80163
 30
0.0
 10
-15.72543
 20
-161.77657
 30
0.0
 10
-17.54985
 20
-162.81549
 30
0.0
 10
-19.47407
 20
-163.72644
 30
0.0
 10
-20.54565
 20
-164.22723
 30
0.0
 10
-21.68208
 20
-164.61452
 30
0.0
 10
-22.86583
 20
-164.91901
 30
0.0
 10
-25.88849
 20
-165.69645
 30
0.0
 10
-29.38812
 20
-165.57224
 30
0.0
 10
-32.48788
 20
-165.53045
 30
0.0
 10
-30.09768
 20
-177.42289
 30
0.0
 10
-30.09768
 20
-171.22671
 30
0.0
 10
-32.48788
 20
-183.11916
 30
0.0
 10
-29.38812
 20
-183.07737
 30
0.0
 10
-25.88849
 20
-182.95316
 30
0.0
 10
-22.86583
 20
-183.73059
 30
0.0
 10
-21.68208
 20
-184.03509
 30
0.0
 10
-20.54565
 20
-184.42238
 30
0.0
 10
-19.47407
 20
-184.92317
 30
0.0
 10
-17.54985
 20
-185.83412
 30
0.0
 10
-15.72543
 20
-186.87304
 30
0.0
 10
-13.85112
 20
-187.84798
 30
0.0
 10
-11.94888
 20
-187.64158
 30
0.0
 10
-10.38742
 20
-187.08847
 30
0.0
 10
-9.16235
 20
-186.19318
 30
0.0
 10
-7.46897
 20
-184.95558
 30
0.0
 10
-6.31578
 20
-183.8358
 30
0.0
 10
-4.98996
 20
-182.2271
 30
0.0
 10
-4.058
 20
-180.95752
 30
0.0
 10
-3.07031
 20
-179.7105
 30
0.0
 10
-2.16322
 20
-178.43083
 30
0.0
 10
-1.4455
 20
-177.41827
 30
0.0
 10
-0.10193
 20
-175.7731
 30
0.0
 10
0.07031
 20
-174.64222
 30
0.0
 10
-0.11682
 20
-174.53642
 30
0.0
 10
-0.30394
 20
-174.43061
 30
0.0
 10
-0.49106
 20
-174.32481
 30
0.0
 10
-0.30394
 20
-174.21901
 30
0.0
 10
-0.11682
 20
-174.1132
 30
0.0
 10
0.07031
 20
-174.0074
 30
0.0
  0
SPLINE
  5
6A
330
1F
100
AcDbEntity
  8
Layer 1
 62
   250
370
    20
100
AcDbSpline
210
0.0
220
0.0
230
1.0
 70
    11
 71
     3
 72
    41
 73
    37
 74
     0
 42
0.0000000001
 43
0.0000000001
 40
0.0
 40
0.0
 40
0.0
 40
0.0
 40
0.0833333333333333
 40
0.0833333333333333
 40
0.0833333333333333
 40
0.1666666666666667
 40
0.1666666666666667
 40
0.1666666666666667
 40
0.25
 40
0.25
 40
0.25
 40
0.3333333333333333
 40
0.3333333333333333
 40
0.3333333333333333
 40
0.4166666666666666
 40
0.4166666666666666
 40
0.4166666666666666
 40
0.5
 40
0.5
 40
0.5
 40
0.5833333333333333
 40
0.5833333333333333
 40
0.5833333333333333
 40
0.6666666666666666
 40
0.6666666666666666
 40
0.6666666666666666
 40
0.75
 40
0.75
 40
0.75
 40
0.8333333333333333
 40
0.8333333333333333
 40
0.8333333333333333
 40
0.9166666666666666
 40
0.9166666666666666
 40
0.9166666666666666
 40
1.0
 40
1.0
 40
1.0
 40
1.0
 10
6.96851
 20
-206.9465
 30
0.0
 10
6.96851
 20
-195.58127
 30
0.0
 10
6.9685
 20
-189.89865
 30
0.0
 10
6.9685
 20
-189.89865
 30
0.0
 10
6.97858
 20
-188.42094
 30
0.0
 10
7.44756
 20
-187.53137
 30
0.0
 10
8.37546
 20
-187.22993
 30
0.0
 10
8.38466
 20
-187.22807
 30
0.0
 10
8.39391
 20
-187.22624
 30
0.0
 10
8.40317
 20
-187.22443
 30
0.0
 10
8.57127
 20
-187.18866
 30
0.0
 10
8.73821
 20
-187.15586
 30
0.0
 10
8.90409
 20
-187.12576
 30
0.0
 10
10.69078
 20
-186.80167
 30
0.0
 10
12.35527
 20
-186.792
 30
0.0
 10
14.02617
 20
-186.76581
 30
0.0
 10
13.75148
 20
-189.59317
 30
0.0
 10
13.38731
 20
-192.04708
 30
0.0
 10
13.61135
 20
-194.02324
 30
0.0
 10
13.86296
 20
-196.24241
 30
0.0
 10
15.00943
 20
-197.1059
 30
0.0
 10
15.70035
 20
-199.07387
 30
0.0
 10
16.2407
 20
-200.61297
 30
0.0
 10
16.17619
 20
-201.79183
 30
0.0
 10
15.914
 20
-202.83216
 30
0.0
 10
14.81174
 20
-203.12122
 30
0.0
 10
13.72804
 20
-203.47855
 30
0.0
 10
12.66288
 20
-203.90396
 30
0.0
 10
12.66288
 20
-203.90396
 30
0.0
 10
12.3366
 20
-203.60075
 30
0.0
 10
12.3366
 20
-203.60075
 30
0.0
 10
12.3366
 20
-203.60075
 30
0.0
 10
12.4172
 20
-204.00339
 30
0.0
 10
12.4172
 20
-204.00339
 30
0.0
 10
10.54327
 20
-204.77235
 30
0.0
 10
8.72703
 20
-205.75331
 30
0.0
 10
6.96851
 20
-206.9465
 30
0.0
  0
SPLINE
  5
6B
330
1F
100
AcDbEntity
  8
Layer 1
 62
   250
370
    20
100
AcDbSpline
210
0.0
220
0.0
230
1.0
 70
    11
 71
     3
 72
    17
 73
    13
 74
     0
 42
0.0000000001
 43
0.0000000001
 40
0.0
 40
0.0
 40
0.0
 40
0.0
 40
0.25
 40
0.25
 40
0.25
 40
0.5
 40
0.5
 40
0.5
 40
0.75
 40
0.75
 40
0.75
 40
1.0
 40
1.0
 40
1.0
 40
1.0
 10
7.29736
 20
-189.58596
 30
0.0
 10
7.32693
 20
-189.58518
 30
0.0
 10
7.35026
 20
-189.56059
 30
0.0
 10
7.34949
 20
-189.53102
 30
0.0
 10
7.34871
 20
-189.50145
 30
0.0
 10
7.32412
 20
-189.47812
 30
0.0
 10
7.29455
 20
-189.47889
 30
0.0
 10
7.26498
 20
-189.47967
 30
0.0
 10
7.24165
 20
-189.50426
 30
0.0
 10
7.24242
 20
-189.53383
 30
0.0
 10
7.2432
 20
-189.5634
 30
0.0
 10
7.26779
 20
-189.58673
 30
0.0
 10
7.29736
 20
-189.58596
 30
0.0
  0
SPLINE
  5
6C
330
1F
100
AcDbEntity
  8
Layer 1
 62
   242
370
    20
100
AcDbSpline
210
0.0
220
0.0
230
1.0
 70
    11
 71
     3
 72
    41
 73
    37
 74
     0
 42
0.0000000001
 43
0.0000000001
 40
0.0
 40
0.0
 40
0.0
 40
0.0
 40
0.0833333333333333
 40
0.0833333333333333
 40
0.0833333333333333
 40
0.1666666666666667
 40
0.1666666666666667
 40
0.1666666666666667
 40
0.25
 40
0.25
 40
0.25
 40
0.3333333333333333
 40
0.3333333333333333
 40
0.3333333333333333
 40
0.4166666666666666
 40
0.4166666666666666
 40
0.4166666666666666
 40
0.5
 40
0.5
 40
0.5
 40
0.5833333333333333
 40
0.5833333333333333
 40
0.5833333333333333
 40
0.6666666666666666
 40
0.6666666666666666
 40
0.6666666666666666
 40
0.75
 40
0.75
 40
0.75
 40
0.8333333333333333
 40
0.8333333333333333
 40
0.8333333333333333
 40
0.9166666666666666
 40
0.9166666666666666
 40
0.9166666666666666
 40
1.0
 40
1.0
 40
1.0
 40
1.0
 10
-29.99634
 20
-195.11502
 30
0.0
 10
-30.22563
 20
-197.13735
 30
0.0
 10
-31.27041
 20
-197.92425
 30
0.0
 10
-31.90004
 20
-199.71766
 30
0.0
 10
-32.39247
 20
-201.12024
 30
0.0
 10
-32.33368
 20
-202.19453
 30
0.0
 10
-32.09473
 20
-203.14258
 30
0.0
 10
-31.12913
 20
-203.39581
 30
0.0
 10
-30.17915
 20
-203.70653
 30
0.0
 10
-29.24479
 20
-204.07457
 30
0.0
 10
-28.97277
 20
-203.86129
 30
0.0
 10
-28.76358
 20
-203.75857
 30
0.0
 10
-28.69377
 20
-203.82263
 30
0.0
 10
-28.636
 20
-203.87565
 30
0.0
 10
-28.68393
 20
-204.03367
 30
0.0
 10
-28.80945
 20
-204.25059
 30
0.0
 10
-27.13662
 20
-204.9451
 30
0.0
 10
-25.51439
 20
-205.82559
 30
0.0
 10
-23.94274
 20
-206.89197
 30
0.0
 10
-23.94274
 20
-196.53486
 30
0.0
 10
-23.94273
 20
-191.35631
 30
0.0
 10
-23.94273
 20
-191.35631
 30
0.0
 10
-23.95192
 20
-190.00966
 30
0.0
 10
-24.37929
 20
-189.19901
 30
0.0
 10
-25.22489
 20
-188.9243
 30
0.0
 10
-25.23328
 20
-188.92261
 30
0.0
 10
-25.24169
 20
-188.92095
 30
0.0
 10
-25.25014
 20
-188.9193
 30
0.0
 10
-25.40333
 20
-188.88669
 30
0.0
 10
-25.55546
 20
-188.8568
 30
0.0
 10
-25.70663
 20
-188.82938
 30
0.0
 10
-27.33484
 20
-188.53403
 30
0.0
 10
-28.85169
 20
-188.52522
 30
0.0
 10
-30.37436
 20
-188.50134
 30
0.0
 10
-30.12405
 20
-191.07792
 30
0.0
 10
-29.79217
 20
-193.31416
 30
0.0
 10
-29.99634
 20
-195.11502
 30
0.0
  0
SPLINE
  5
6D
330
1F
100
AcDbEntity
  8
Layer 1
 62
   242
370
    20
100
AcDbSpline
210
0.0
220
0.0
230
1.0
 70
    11
 71
     3
 72
    17
 73
    13
 74
     0
 42
0.0000000001
 43
0.0000000001
 40
0.0
 40
0.0
 40
0.0
 40
0.0
 40
0.25
 40
0.25
 40
0.25
 40
0.5
 40
0.5
 40
0.5
 40
0.75
 40
0.75
 40
0.75
 40
1.0
 40
1.0
 40
1.0
 40
1.0
 10
-24.19236
 20
-191.02383
 30
0.0
 10
-24.19307
 20
-191.05078
 30
0.0
 10
-24.21547
 20
-191.07204
 30
0.0
 10
-24.24242
 20
-191.07134
 30
0.0
 10
-24.26936
 20
-191.07063
 30
0.0
 10
-24.29063
 20
-191.04823
 30
0.0
 10
-24.28993
 20
-191.02128
 30
0.0
 10
-24.28922
 20
-190.99433
 30
0.0
 10
-24.26681
 20
-190.97306
 30
0.0
 10
-24.23987
 20
-190.97377
 30
0.0
 10
-24.21292
 20
-190.97448
 30
0.0
 10
-24.19166
 20
-190.99689
 30
0.0
 10
-24.19236
 20
-191.02383
 30
0.0
  0
SPLINE
  5
6E
330
1F
100
AcDbEntity
  8
Layer 1
 62
   114
370
    20
100
AcDbSpline
210
0.0
220
0.0
230
1.0
 70
    11
 71
     3
 72
    59
 73
    55
 74
     0
 42
0.0000000001
 43
0.0000000001
 40
0.0
 40
0.0
 40
0.0
 40
0.0
 40
0.0555555555555556
 40
0.0555555555555556
 40
0.0555555555555556
 40
0.1111111111111111
 40
0.1111111111111111
 40
0.1111111111111111
 40
0.1666666666666667
 40
0.1666666666666667
 40
0.1666666666666667
 40
0.2222222222222222
 40
0.2222222222222222
 40
0.2222222222222222
 40
0.2777777777777778
 40
0.2777777777777778
 40
0.2777777777777778
 40
0.3333333333333333
 40
0.3333333333333333
 40
0.3333333333333333
 40
0.3888888888888888
 40
0.3888888888888888
 40
0.3888888888888888
 40
0.4444444444444444
 40
0.4444444444444444
 40
0.4444444444444444
 40
0.5
 40
0.5
 40
0.5
 40
0.5555555555555556
 40
0.5555555555555556
 40
0.5555555555555556
 40
0.611111111111111
 40
0.611111111111111
 40
0.611111111111111
 40
0.6666666666666666
 40
0.6666666666666666
 40
0.6666666666666666
 40
0.7222222222222222
 40
0.7222222222222222
 40
0.7222222222222222
 40
0.7777777777777777
 40
0.7777777777777777
 40
0.7777777777777777
 40
0.8333333333333333
 40
0.8333333333333333
 40
0.8333333333333333
 40
0.8888888888888888
 40
0.8888888888888888
 40
0.8888888888888888
 40
0.9444444444444444
 40
0.9444444444444444
 40
0.9444444444444444
 40
1.0
 40
1.0
 40
1.0
 40
1.0
 10
-28.94829
 20
-269.94037
 30
0.0
 10
-30.01133
 20
-269.505
 30
0.0
 10
-31.09421
 20
-269.1426
 30
0.0
 10
-32.19702
 20
-268.85341
 30
0.0
 10
-32.44184
 20
-267.88204
 30
0.0
 10
-32.50208
 20
-266.78134
 30
0.0
 10
-31.99754
 20
-265.34427
 30
0.0
 10
-31.35243
 20
-263.50675
 30
0.0
 10
-30.28196
 20
-262.70051
 30
0.0
 10
-30.04703
 20
-260.62846
 30
0.0
 10
-29.83784
 20
-258.78331
 30
0.0
 10
-30.17788
 20
-256.49207
 30
0.0
 10
-30.43435
 20
-253.85214
 30
0.0
 10
-28.87422
 20
-253.8766
 30
0.0
 10
-27.32007
 20
-253.88563
 30
0.0
 10
-25.65183
 20
-254.18825
 30
0.0
 10
-25.49694
 20
-254.21634
 30
0.0
 10
-25.34107
 20
-254.24697
 30
0.0
 10
-25.18412
 20
-254.28037
 30
0.0
 10
-25.17546
 20
-254.28206
 30
0.0
 10
-25.16684
 20
-254.28377
 30
0.0
 10
-25.15824
 20
-254.2855
 30
0.0
 10
-24.29186
 20
-254.56696
 30
0.0
 10
-23.85397
 20
-255.39756
 30
0.0
 10
-23.84455
 20
-256.77731
 30
0.0
 10
-23.84455
 20
-256.77731
 30
0.0
 10
-23.84456
 20
-262.08321
 30
0.0
 10
-23.84457
 20
-272.695
 30
0.0
 10
-25.32598
 20
-271.68983
 30
0.0
 10
-26.85128
 20
-270.84595
 30
0.0
 10
-28.42041
 20
-270.16323
 30
0.0
 10
-28.42041
 20
-270.16323
 30
0.0
 10
-28.38512
 20
-269.98696
 30
0.0
 10
-28.38512
 20
-269.98696
 30
0.0
 10
-28.38512
 20
-269.98696
 30
0.0
 10
-28.52579
 20
-270.11769
 30
0.0
 10
-28.52579
 20
-270.11769
 30
0.0
 10
-28.52579
 20
-270.11769
 30
0.0
 10
-28.58459
 20
-270.0925
 30
0.0
 10
-28.58459
 20
-270.0925
 30
0.0
 10
-28.58459
 20
-270.0925
 30
0.0
 10
-28.53268
 20
-269.83322
 30
0.0
 10
-28.53268
 20
-269.83322
 30
0.0
 10
-28.53268
 20
-269.83322
 30
0.0
 10
-28.74063
 20
-270.02645
 30
0.0
 10
-28.74063
 20
-270.02645
 30
0.0
 10
-28.74063
 20
-270.02645
 30
0.0
 10
-28.76311
 20
-270.01705
 30
0.0
 10
-28.76311
 20
-270.01705
 30
0.0
 10
-28.76311
 20
-270.01705
 30
0.0
 10
-28.70194
 20
-269.71145
 30
0.0
 10
-28.70194
 20
-269.71145
 30
0.0
 10
-28.70194
 20
-269.71145
 30
0.0
 10
-28.94829
 20
-269.94037
 30
0.0
 10
-28.94829
 20
-269.94037
 30
0.0
  0
SPLINE
  5
6F
330
1F
100
AcDbEntity
  8
Layer 1
 62
   114
370
    20
100
AcDbSpline
210
0.0
220
0.0
230
1.0
 70
    11
 71
     3
 72
    17
 73
    13
 74
     0
 42
0.0000000001
 43
0.0000000001
 40
0.0
 40
0.0
 40
0.0
 40
0.0
 40
0.25
 40
0.25
 40
0.25
 40
0.5
 40
0.5
 40
0.5
 40
0.75
 40
0.75
 40
0.75
 40
1.0
 40
1.0
 40
1.0
 40
1.0
 10
-24.20028
 20
-256.43405
 30
0.0
 10
-24.20101
 20
-256.46166
 30
0.0
 10
-24.17922
 20
-256.48462
 30
0.0
 10
-24.15161
 20
-256.48534
 30
0.0
 10
-24.124
 20
-256.48606
 30
0.0
 10
-24.10104
 20
-256.46428
 30
0.0
 10
-24.10032
 20
-256.43667
 30
0.0
 10
-24.09959
 20
-256.40906
 30
0.0
 10
-24.12138
 20
-256.3861
 30
0.0
 10
-24.14899
 20
-256.38537
 30
0.0
 10
-24.1766
 20
-256.38465
 30
0.0
 10
-24.19956
 20
-256.40644
 30
0.0
 10
-24.20028
 20
-256.43405
 30
0.0
  0
SPLINE
  5
70
330
1F
100
AcDbEntity
  8
Layer 1
 62
   250
370
    20
100
AcDbSpline
210
0.0
220
0.0
230
1.0
 70
    11
 71
     3
 72
    65
 73
    61
 74
     0
 42
0.0000000001
 43
0.0000000001
 40
0.0
 40
0.0
 40
0.0
 40
0.0
 40
0.05
 40
0.05
 40
0.05
 40
0.1
 40
0.1
 40
0.1
 40
0.15
 40
0.15
 40
0.15
 40
0.2
 40
0.2
 40
0.2
 40
0.25
 40
0.25
 40
0.25
 40
0.3
 40
0.3
 40
0.3
 40
0.35
 40
0.35
 40
0.35
 40
0.4
 40
0.4
 40
0.4
 40
0.45
 40
0.45
 40
0.45
 40
0.5
 40
0.5
 40
0.5
 40
0.55
 40
0.55
 40
0.55
 40
0.6000000000000001
 40
0.6000000000000001
 40
0.6000000000000001
 40
0.65
 40
0.65
 40
0.65
 40
0.7000000000000001
 40
0.7000000000000001
 40
0.7000000000000001
 40
0.75
 40
0.75
 40
0.75
 40
0.8
 40
0.8
 40
0.8
 40
0.8500000000000001
 40
0.8500000000000001
 40
0.8500000000000001
 40
0.9
 40
0.9
 40
0.9
 40
0.9500000000000001
 40
0.9500000000000001
 40
0.9500000000000001
 40
1.0
 40
1.0
 40
1.0
 40
1.0
 10
-15.02843
 20
-198.86148
 30
0.0
 10
-15.26806
 20
-196.74798
 30
0.0
 10
-16.35994
 20
-195.92562
 30
0.0
 10
-17.01796
 20
-194.05134
 30
0.0
 10
-17.53259
 20
-192.58555
 30
0.0
 10
-17.47114
 20
-191.46282
 30
0.0
 10
-17.22143
 20
-190.47203
 30
0.0
 10
-16.17166
 20
-190.19674
 30
0.0
 10
-15.13957
 20
-189.85641
 30
0.0
 10
-14.12514
 20
-189.45125
 30
0.0
 10
-14.12514
 20
-189.45125
 30
0.0
 10
-13.81438
 20
-189.74002
 30
0.0
 10
-13.81438
 20
-189.74002
 30
0.0
 10
-13.81438
 20
-189.74002
 30
0.0
 10
-13.88569
 20
-189.38378
 30
0.0
 10
-13.88569
 20
-189.38378
 30
0.0
 10
-13.88569
 20
-189.38378
 30
0.0
 10
-13.65644
 20
-189.59683
 30
0.0
 10
-13.65644
 20
-189.59683
 30
0.0
 10
-13.65644
 20
-189.59683
 30
0.0
 10
-13.71884
 20
-189.28511
 30
0.0
 10
-13.71884
 20
-189.28511
 30
0.0
 10
-13.71884
 20
-189.28511
 30
0.0
 10
-13.69591
 20
-189.27553
 30
0.0
 10
-13.69591
 20
-189.27553
 30
0.0
 10
-13.69591
 20
-189.27553
 30
0.0
 10
-13.4838
 20
-189.47263
 30
0.0
 10
-13.4838
 20
-189.47263
 30
0.0
 10
-13.4838
 20
-189.47263
 30
0.0
 10
-13.53674
 20
-189.20815
 30
0.0
 10
-13.53674
 20
-189.20815
 30
0.0
 10
-13.53674
 20
-189.20815
 30
0.0
 10
-13.47677
 20
-189.18246
 30
0.0
 10
-13.47677
 20
-189.18246
 30
0.0
 10
-13.47677
 20
-189.18246
 30
0.0
 10
-13.33328
 20
-189.31579
 30
0.0
 10
-13.33328
 20
-189.31579
 30
0.0
 10
-13.33328
 20
-189.31579
 30
0.0
 10
-13.36928
 20
-189.13601
 30
0.0
 10
-13.36928
 20
-189.13601
 30
0.0
 10
-11.76876
 20
-188.43964
 30
0.0
 10
-10.21297
 20
-187.57888
 30
0.0
 10
-8.70192
 20
-186.5536
 30
0.0
 10
-8.70192
 20
-197.37763
 30
0.0
 10
-8.70191
 20
-202.78965
 30
0.0
 10
-8.70191
 20
-202.78965
 30
0.0
 10
-8.71151
 20
-204.197
 30
0.0
 10
-9.15815
 20
-205.04421
 30
0.0
 10
-10.04187
 20
-205.3313
 30
0.0
 10
-10.05064
 20
-205.33307
 30
0.0
 10
-10.05944
 20
-205.3348
 30
0.0
 10
-10.06827
 20
-205.33652
 30
0.0
 10
-10.22836
 20
-205.3706
 30
0.0
 10
-10.38735
 20
-205.40183
 30
0.0
 10
-10.54533
 20
-205.43049
 30
0.0
 10
-12.24694
 20
-205.73916
 30
0.0
 10
-13.83217
 20
-205.74837
 30
0.0
 10
-15.4235
 20
-205.77331
 30
0.0
 10
-15.1619
 20
-203.08059
 30
0.0
 10
-14.81507
 20
-200.74353
 30
0.0
 10
-15.02843
 20
-198.86148
 30
0.0
  0
SPLINE
  5
71
330
1F
100
AcDbEntity
  8
Layer 1
 62
   250
370
    20
100
AcDbSpline
210
0.0
220
0.0
230
1.0
 70
    11
 71
     3
 72
    17
 73
    13
 74
     0
 42
0.0000000001
 43
0.0000000001
 40
0.0
 40
0.0
 40
0.0
 40
0.0
 40
0.25
 40
0.25
 40
0.25
 40
0.5
 40
0.5
 40
0.5
 40
0.75
 40
0.75
 40
0.75
 40
1.0
 40
1.0
 40
1.0
 40
1.0
 10
-9.0151
 20
-203.08747
 30
0.0
 10
-9.04327
 20
-203.0882
 30
0.0
 10
-9.06549
 20
-203.11161
 30
0.0
 10
-9.06475
 20
-203.13978
 30
0.0
 10
-9.06401
 20
-203.16795
 30
0.0
 10
-9.0406
 20
-203.19016
 30
0.0
 10
-9.01243
 20
-203.18942
 30
0.0
 10
-8.98427
 20
-203.18868
 30
0.0
 10
-8.96205
 20
-203.16527
 30
0.0
 10
-8.96278
 20
-203.13711
 30
0.0
 10
-8.96352
 20
-203.10894
 30
0.0
 10
-8.98694
 20
-203.08673
 30
0.0
 10
-9.0151
 20
-203.08747
 30
0.0
  0
SPLINE
  5
72
330
1F
100
AcDbEntity
  8
Layer 1
 62
   250
370
    20
100
AcDbSpline
210
0.0
220
0.0
230
1.0
 70
    11
 71
     3
 72
    50
 73
    46
 74
     0
 42
0.0000000001
 43
0.0000000001
 40
0.0
 40
0.0
 40
0.0
 40
0.0
 40
0.0666666666666667
 40
0.0666666666666667
 40
0.0666666666666667
 40
0.1333333333333333
 40
0.1333333333333333
 40
0.1333333333333333
 40
0.2
 40
0.2
 40
0.2
 40
0.2666666666666667
 40
0.2666666666666667
 40
0.2666666666666667
 40
0.3333333333333333
 40
0.3333333333333333
 40
0.3333333333333333
 40
0.4
 40
0.4
 40
0.4
 40
0.4666666666666667
 40
0.4666666666666667
 40
0.4666666666666667
 40
0.5333333333333333
 40
0.5333333333333333
 40
0.5333333333333333
 40
0.6
 40
0.6
 40
0.6
 40
0.6666666666666666
 40
0.6666666666666666
 40
0.6666666666666666
 40
0.7333333333333333
 40
0.7333333333333333
 40
0.7333333333333333
 40
0.8
 40
0.8
 40
0.8
 40
0.8666666666666667
 40
0.8666666666666667
 40
0.8666666666666667
 40
0.9333333333333333
 40
0.9333333333333333
 40
0.9333333333333333
 40
1.0
 40
1.0
 40
1.0
 40
1.0
 10
29.76386
 20
-199.61767
 30
0.0
 10
30.00913
 20
-197.45444
 30
0.0
 10
31.1267
 20
-196.61272
 30
0.0
 10
31.80021
 20
-194.69436
 30
0.0
 10
32.32694
 20
-193.19407
 30
0.0
 10
32.26404
 20
-192.04492
 30
0.0
 10
32.00846
 20
-191.03082
 30
0.0
 10
30.78207
 20
-190.70921
 30
0.0
 10
29.57928
 20
-190.30091
 30
0.0
 10
28.39998
 20
-189.80616
 30
0.0
 10
28.39998
 20
-189.80616
 30
0.0
 10
28.18288
 20
-190.0079
 30
0.0
 10
28.18288
 20
-190.0079
 30
0.0
 10
28.18288
 20
-190.0079
 30
0.0
 10
28.23708
 20
-189.7372
 30
0.0
 10
28.23708
 20
-189.7372
 30
0.0
 10
28.23708
 20
-189.7372
 30
0.0
 10
28.17569
 20
-189.7109
 30
0.0
 10
28.17569
 20
-189.7109
 30
0.0
 10
28.17569
 20
-189.7109
 30
0.0
 10
28.02883
 20
-189.84737
 30
0.0
 10
28.02883
 20
-189.84737
 30
0.0
 10
28.02883
 20
-189.84737
 30
0.0
 10
28.06567
 20
-189.66336
 30
0.0
 10
28.06567
 20
-189.66336
 30
0.0
 10
26.42749
 20
-188.95061
 30
0.0
 10
24.83509
 20
-188.06959
 30
0.0
 10
23.28849
 20
-187.02019
 30
0.0
 10
23.28849
 20
-198.09891
 30
0.0
 10
23.28848
 20
-203.63827
 30
0.0
 10
23.28848
 20
-203.63827
 30
0.0
 10
23.29831
 20
-205.07873
 30
0.0
 10
23.75547
 20
-205.94587
 30
0.0
 10
24.65997
 20
-206.23971
 30
0.0
 10
24.66894
 20
-206.24153
 30
0.0
 10
24.67795
 20
-206.24331
 30
0.0
 10
24.68699
 20
-206.24507
 30
0.0
 10
24.85084
 20
-206.27993
 30
0.0
 10
25.01358
 20
-206.31191
 30
0.0
 10
25.17528
 20
-206.34125
 30
0.0
 10
26.91693
 20
-206.65718
 30
0.0
 10
28.53946
 20
-206.66661
 30
0.0
 10
30.16823
 20
-206.69214
 30
0.0
 10
29.90047
 20
-203.93606
 30
0.0
 10
29.54547
 20
-201.54401
 30
0.0
 10
29.76386
 20
-199.61767
 30
0.0
  0
SPLINE
  5
73
330
1F
100
AcDbEntity
  8
Layer 1
 62
   250
370
    20
100
AcDbSpline
210
0.0
220
0.0
230
1.0
 70
    11
 71
     3
 72
    17
 73
    13
 74
     0
 42
0.0000000001
 43
0.0000000001
 40
0.0
 40
0.0
 40
0.0
 40
0.0
 40
0.25
 40
0.25
 40
0.25
 40
0.5
 40
0.5
 40
0.5
 40
0.75
 40
0.75
 40
0.75
 40
1.0
 40
1.0
 40
1.0
 40
1.0
 10
23.60905
 20
-203.94308
 30
0.0
 10
23.63787
 20
-203.94384
 30
0.0
 10
23.66062
 20
-203.9678
 30
0.0
 10
23.65987
 20
-203.99663
 30
0.0
 10
23.65911
 20
-204.02545
 30
0.0
 10
23.63514
 20
-204.0482
 30
0.0
 10
23.60632
 20
-204.04744
 30
0.0
 10
23.57749
 20
-204.04669
 30
0.0
 10
23.55475
 20
-204.02271
 30
0.0
 10
23.5555
 20
-203.99389
 30
0.0
 10
23.55626
 20
-203.96506
 30
0.0
 10
23.58022
 20
-203.94232
 30
0.0
 10
23.60905
 20
-203.94308
 30
0.0
  0
SPLINE
  5
74
330
1F
100
AcDbEntity
  8
Layer 1
 62
   242
370
    20
100
AcDbSpline
210
0.0
220
0.0
230
1.0
 70
    11
 71
     3
 72
    41
 73
    37
 74
     0
 42
0.0000000001
 43
0.0000000001
 40
0.0
 40
0.0
 40
0.0
 40
0.0
 40
0.0833333333333333
 40
0.0833333333333333
 40
0.0833333333333333
 40
0.1666666666666667
 40
0.1666666666666667
 40
0.1666666666666667
 40
0.25
 40
0.25
 40
0.25
 40
0.3333333333333333
 40
0.3333333333333333
 40
0.3333333333333333
 40
0.4166666666666666
 40
0.4166666666666666
 40
0.4166666666666666
 40
0.5
 40
0.5
 40
0.5
 40
0.5833333333333333
 40
0.5833333333333333
 40
0.5833333333333333
 40
0.6666666666666666
 40
0.6666666666666666
 40
0.6666666666666666
 40
0.75
 40
0.75
 40
0.75
 40
0.8333333333333333
 40
0.8333333333333333
 40
0.8333333333333333
 40
0.9166666666666666
 40
0.9166666666666666
 40
0.9166666666666666
 40
1.0
 40
1.0
 40
1.0
 40
1.0
 10
-17.69276
 20
-195.11502
 30
0.0
 10
-17.46347
 20
-197.13735
 30
0.0
 10
-16.41869
 20
-197.92425
 30
0.0
 10
-15.78906
 20
-199.71766
 30
0.0
 10
-15.29663
 20
-201.12024
 30
0.0
 10
-15.35542
 20
-202.19453
 30
0.0
 10
-15.59437
 20
-203.14258
 30
0.0
 10
-16.55997
 20
-203.39581
 30
0.0
 10
-17.50995
 20
-203.70653
 30
0.0
 10
-18.44431
 20
-204.07457
 30
0.0
 10
-18.71633
 20
-203.86129
 30
0.0
 10
-18.92552
 20
-203.75857
 30
0.0
 10
-18.99533
 20
-203.82263
 30
0.0
 10
-19.0531
 20
-203.87565
 30
0.0
 10
-19.00517
 20
-204.03367
 30
0.0
 10
-18.87965
 20
-204.25059
 30
0.0
 10
-20.55248
 20
-204.9451
 30
0.0
 10
-22.17471
 20
-205.82559
 30
0.0
 10
-23.74636
 20
-206.89197
 30
0.0
 10
-23.74636
 20
-196.53486
 30
0.0
 10
-23.74637
 20
-191.35631
 30
0.0
 10
-23.74637
 20
-191.35631
 30
0.0
 10
-23.73718
 20
-190.00966
 30
0.0
 10
-23.30981
 20
-189.19901
 30
0.0
 10
-22.46421
 20
-188.9243
 30
0.0
 10
-22.45582
 20
-188.92261
 30
0.0
 10
-22.44741
 20
-188.92095
 30
0.0
 10
-22.43896
 20
-188.9193
 30
0.0
 10
-22.28577
 20
-188.88669
 30
0.0
 10
-22.13364
 20
-188.8568
 30
0.0
 10
-21.98247
 20
-188.82938
 30
0.0
 10
-20.35426
 20
-188.53403
 30
0.0
 10
-18.83741
 20
-188.52522
 30
0.0
 10
-17.31474
 20
-188.50134
 30
0.0
 10
-17.56505
 20
-191.07792
 30
0.0
 10
-17.89693
 20
-193.31416
 30
0.0
 10
-17.69276
 20
-195.11502
 30
0.0
  0
SPLINE
  5
75
330
1F
100
AcDbEntity
  8
Layer 1
 62
   242
370
    20
100
AcDbSpline
210
0.0
220
0.0
230
1.0
 70
    11
 71
     3
 72
    17
 73
    13
 74
     0
 42
0.0000000001
 43
0.0000000001
 40
0.0
 40
0.0
 40
0.0
 40
0.0
 40
0.25
 40
0.25
 40
0.25
 40
0.5
 40
0.5
 40
0.5
 40
0.75
 40
0.75
 40
0.75
 40
1.0
 40
1.0
 40
1.0
 40
1.0
 10
-23.49674
 20
-191.02383
 30
0.0
 10
-23.49603
 20
-191.05078
 30
0.0
 10
-23.47363
 20
-191.07204
 30
0.0
 10
-23.44668
 20
-191.07134
 30
0.0
 10
-23.41974
 20
-191.07063
 30
0.0
 10
-23.39847
 20
-191.04823
 30
0.0
 10
-23.39917
 20
-191.02128
 30
0.0
 10
-23.39988
 20
-190.99433
 30
0.0
 10
-23.42229
 20
-190.97306
 30
0.0
 10
-23.44923
 20
-190.97377
 30
0.0
 10
-23.47618
 20
-190.97448
 30
0.0
 10
-23.49744
 20
-190.99689
 30
0.0
 10
-23.49674
 20
-191.02383
 30
0.0
  0
SPLINE
  5
76
330
1F
100
AcDbEntity
  8
Layer 1
 62
   114
370
    20
100
AcDbSpline
210
0.0
220
0.0
230
1.0
 70
    11
 71
     3
 72
    59
 73
    55
 74
     0
 42
0.0000000001
 43
0.0000000001
 40
0.0
 40
0.0
 40
0.0
 40
0.0
 40
0.0555555555555556
 40
0.0555555555555556
 40
0.0555555555555556
 40
0.1111111111111111
 40
0.1111111111111111
 40
0.1111111111111111
 40
0.1666666666666667
 40
0.1666666666666667
 40
0.1666666666666667
 40
0.2222222222222222
 40
0.2222222222222222
 40
0.2222222222222222
 40
0.2777777777777778
 40
0.2777777777777778
 40
0.2777777777777778
 40
0.3333333333333333
 40
0.3333333333333333
 40
0.3333333333333333
 40
0.3888888888888888
 40
0.3888888888888888
 40
0.3888888888888888
 40
0.4444444444444444
 40
0.4444444444444444
 40
0.4444444444444444
 40
0.5
 40
0.5
 40
0.5
 40
0.5555555555555556
 40
0.5555555555555556
 40
0.5555555555555556
 40
0.611111111111111
 40
0.611111111111111
 40
0.611111111111111
 40
0.6666666666666666
 40
0.6666666666666666
 40
0.6666666666666666
 40
0.7222222222222222
 40
0.7222222222222222
 40
0.7222222222222222
 40
0.7777777777777777
 40
0.7777777777777777
 40
0.7777777777777777
 40
0.8333333333333333
 40
0.8333333333333333
 40
0.8333333333333333
 40
0.8888888888888888
 40
0.8888888888888888
 40
0.8888888888888888
 40
0.9444444444444444
 40
0.9444444444444444
 40
0.9444444444444444
 40
1.0
 40
1.0
 40
1.0
 40
1.0
 10
-18.74081
 20
-269.94037
 30
0.0
 10
-17.67777
 20
-269.505
 30
0.0
 10
-16.59489
 20
-269.1426
 30
0.0
 10
-15.49208
 20
-268.85341
 30
0.0
 10
-15.24726
 20
-267.88204
 30
0.0
 10
-15.18702
 20
-266.78134
 30
0.0
 10
-15.69156
 20
-265.34427
 30
0.0
 10
-16.33667
 20
-263.50675
 30
0.0
 10
-17.40714
 20
-262.70051
 30
0.0
 10
-17.64207
 20
-260.62846
 30
0.0
 10
-17.85126
 20
-258.78331
 30
0.0
 10
-17.51122
 20
-256.49207
 30
0.0
 10
-17.25475
 20
-253.85214
 30
0.0
 10
-18.81488
 20
-253.8766
 30
0.0
 10
-20.36903
 20
-253.88563
 30
0.0
 10
-22.03727
 20
-254.18825
 30
0.0
 10
-22.19216
 20
-254.21634
 30
0.0
 10
-22.34803
 20
-254.24697
 30
0.0
 10
-22.50498
 20
-254.28037
 30
0.0
 10
-22.51364
 20
-254.28206
 30
0.0
 10
-22.52226
 20
-254.28377
 30
0.0
 10
-22.53086
 20
-254.2855
 30
0.0
 10
-23.39724
 20
-254.56696
 30
0.0
 10
-23.83513
 20
-255.39756
 30
0.0
 10
-23.84455
 20
-256.77731
 30
0.0
 10
-23.84455
 20
-256.77731
 30
0.0
 10
-23.84454
 20
-262.08321
 30
0.0
 10
-23.84453
 20
-272.695
 30
0.0
 10
-22.36312
 20
-271.68983
 30
0.0
 10
-20.83782
 20
-270.84595
 30
0.0
 10
-19.26869
 20
-270.16323
 30
0.0
 10
-19.26869
 20
-270.16323
 30
0.0
 10
-19.30398
 20
-269.98696
 30
0.0
 10
-19.30398
 20
-269.98696
 30
0.0
 10
-19.30398
 20
-269.98696
 30
0.0
 10
-19.16331
 20
-270.11769
 30
0.0
 10
-19.16331
 20
-270.11769
 30
0.0
 10
-19.16331
 20
-270.11769
 30
0.0
 10
-19.10451
 20
-270.0925
 30
0.0
 10
-19.10451
 20
-270.0925
 30
0.0
 10
-19.10451
 20
-270.0925
 30
0.0
 10
-19.15642
 20
-269.83322
 30
0.0
 10
-19.15642
 20
-269.83322
 30
0.0
 10
-19.15642
 20
-269.83322
 30
0.0
 10
-18.94847
 20
-270.02645
 30
0.0
 10
-18.94847
 20
-270.02645
 30
0.0
 10
-18.94847
 20
-270.02645
 30
0.0
 10
-18.92599
 20
-270.01705
 30
0.0
 10
-18.92599
 20
-270.01705
 30
0.0
 10
-18.92599
 20
-270.01705
 30
0.0
 10
-18.98716
 20
-269.71145
 30
0.0
 10
-18.98716
 20
-269.71145
 30
0.0
 10
-18.98716
 20
-269.71145
 30
0.0
 10
-18.74081
 20
-269.94037
 30
0.0
 10
-18.74081
 20
-269.94037
 30
0.0
  0
SPLINE
  5
77
330
1F
100
AcDbEntity
  8
Layer 1
 62
   114
370
    20
100
AcDbSpline
210
0.0
220
0.0
230
1.0
 70
    11
 71
     3
 72
    17
 73
    13
 74
     0
 42
0.0000000001
 43
0.0000000001
 40
0.0
 40
0.0
 40
0.0
 40
0.0
 40
0.25
 40
0.25
 40
0.25
 40
0.5
 40
0.5
 40
0.5
 40
0.75
 40
0.75
 40
0.75
 40
1.0
 40
1.0
 40
1.0
 40
1.0
 10
-23.48882
 20
-256.43405
 30
0.0
 10
-23.48809
 20
-256.46166
 30
0.0
 10
-23.50988
 20
-256.48462
 30
0.0
 10
-23.53749
 20
-256.48534
 30
0.0
 10
-23.5651
 20
-256.48606
 30
0.0
 10
-23.58806
 20
-256.46428
 30
0.0
 10
-23.58878
 20
-256.43667
 30
0.0
 10
-23.58951
 20
-256.40906
 30
0.0
 10
-23.56772
 20
-256.3861
 30
0.0
 10
-23.54011
 20
-256.38537
 30
0.0
 10
-23.5125
 20
-256.38465
 30
0.0
 10
-23.48954
 20
-256.40644
 30
0.0
 10
-23.48882
 20
-256.43405
 30
0.0
  0
SPLINE
  5
78
330
1F
100
AcDbEntity
  8
Layer 1
 62
   250
370
    20
100
AcDbSpline
210
0.0
220
0.0
230
1.0
 70
    11
 71
     3
 72
    65
 73
    61
 74
     0
 42
0.0000000001
 43
0.0000000001
 40
0.0
 40
0.0
 40
0.0
 40
0.0
 40
0.05
 40
0.05
 40
0.05
 40
0.1
 40
0.1
 40
0.1
 40
0.15
 40
0.15
 40
0.15
 40
0.2
 40
0.2
 40
0.2
 40
0.25
 40
0.25
 40
0.25
 40
0.3
 40
0.3
 40
0.3
 40
0.35
 40
0.35
 40
0.35
 40
0.4
 40
0.4
 40
0.4
 40
0.45
 40
0.45
 40
0.45
 40
0.5
 40
0.5
 40
0.5
 40
0.55
 40
0.55
 40
0.55
 40
0.6000000000000001
 40
0.6000000000000001
 40
0.6000000000000001
 40
0.65
 40
0.65
 40
0.65
 40
0.7000000000000001
 40
0.7000000000000001
 40
0.7000000000000001
 40
0.75
 40
0.75
 40
0.75
 40
0.8
 40
0.8
 40
0.8
 40
0.8500000000000001
 40
0.8500000000000001
 40
0.8500000000000001
 40
0.9
 40
0.9
 40
0.9
 40
0.9500000000000001
 40
0.9500000000000001
 40
0.9500000000000001
 40
1.0
 40
1.0
 40
1.0
 40
1.0
 10
-2.37539
 20
-198.86148
 30
0.0
 10
-2.13576
 20
-196.74798
 30
0.0
 10
-1.04388
 20
-195.92562
 30
0.0
 10
-0.38586
 20
-194.05134
 30
0.0
 10
0.12877
 20
-192.58555
 30
0.0
 10
0.06732
 20
-191.46282
 30
0.0
 10
-0.18239
 20
-190.47203
 30
0.0
 10
-1.23216
 20
-190.19674
 30
0.0
 10
-2.26425
 20
-189.85641
 30
0.0
 10
-3.27868
 20
-189.45125
 30
0.0
 10
-3.27868
 20
-189.45125
 30
0.0
 10
-3.58944
 20
-189.74002
 30
0.0
 10
-3.58944
 20
-189.74002
 30
0.0
 10
-3.58944
 20
-189.74002
 30
0.0
 10
-3.51813
 20
-189.38378
 30
0.0
 10
-3.51813
 20
-189.38378
 30
0.0
 10
-3.51813
 20
-189.38378
 30
0.0
 10
-3.74738
 20
-189.59683
 30
0.0
 10
-3.74738
 20
-189.59683
 30
0.0
 10
-3.74738
 20
-189.59683
 30
0.0
 10
-3.68498
 20
-189.28511
 30
0.0
 10
-3.68498
 20
-189.28511
 30
0.0
 10
-3.68498
 20
-189.28511
 30
0.0
 10
-3.70791
 20
-189.27553
 30
0.0
 10
-3.70791
 20
-189.27553
 30
0.0
 10
-3.70791
 20
-189.27553
 30
0.0
 10
-3.92002
 20
-189.47263
 30
0.0
 10
-3.92002
 20
-189.47263
 30
0.0
 10
-3.92002
 20
-189.47263
 30
0.0
 10
-3.86708
 20
-189.20815
 30
0.0
 10
-3.86708
 20
-189.20815
 30
0.0
 10
-3.86708
 20
-189.20815
 30
0.0
 10
-3.92705
 20
-189.18246
 30
0.0
 10
-3.92705
 20
-189.18246
 30
0.0
 10
-3.92705
 20
-189.18246
 30
0.0
 10
-4.07054
 20
-189.31579
 30
0.0
 10
-4.07054
 20
-189.31579
 30
0.0
 10
-4.07054
 20
-189.31579
 30
0.0
 10
-4.03454
 20
-189.13601
 30
0.0
 10
-4.03454
 20
-189.13601
 30
0.0
 10
-5.63506
 20
-188.43964
 30
0.0
 10
-7.19085
 20
-187.57888
 30
0.0
 10
-8.7019
 20
-186.5536
 30
0.0
 10
-8.7019
 20
-197.37763
 30
0.0
 10
-8.70191
 20
-202.78965
 30
0.0
 10
-8.70191
 20
-202.78965
 30
0.0
 10
-8.69231
 20
-204.197
 30
0.0
 10
-8.24567
 20
-205.04421
 30
0.0
 10
-7.36195
 20
-205.3313
 30
0.0
 10
-7.35318
 20
-205.33307
 30
0.0
 10
-7.34438
 20
-205.3348
 30
0.0
 10
-7.33555
 20
-205.33652
 30
0.0
 10
-7.17546
 20
-205.3706
 30
0.0
 10
-7.01647
 20
-205.40183
 30
0.0
 10
-6.85849
 20
-205.43049
 30
0.0
 10
-5.15688
 20
-205.73916
 30
0.0
 10
-3.57165
 20
-205.74837
 30
0.0
 10
-1.98032
 20
-205.77331
 30
0.0
 10
-2.24192
 20
-203.08059
 30
0.0
 10
-2.58875
 20
-200.74353
 30
0.0
 10
-2.37539
 20
-198.86148
 30
0.0
  0
SPLINE
  5
79
330
1F
100
AcDbEntity
  8
Layer 1
 62
   250
370
    20
100
AcDbSpline
210
0.0
220
0.0
230
1.0
 70
    11
 71
     3
 72
    17
 73
    13
 74
     0
 42
0.0000000001
 43
0.0000000001
 40
0.0
 40
0.0
 40
0.0
 40
0.0
 40
0.25
 40
0.25
 40
0.25
 40
0.5
 40
0.5
 40
0.5
 40
0.75
 40
0.75
 40
0.75
 40
1.0
 40
1.0
 40
1.0
 40
1.0
 10
-8.38872
 20
-203.08747
 30
0.0
 10
-8.36055
 20
-203.0882
 30
0.0
 10
-8.33833
 20
-203.11161
 30
0.0
 10
-8.33907
 20
-203.13978
 30
0.0
 10
-8.33981
 20
-203.16795
 30
0.0
 10
-8.36322
 20
-203.19016
 30
0.0
 10
-8.39139
 20
-203.18942
 30
0.0
 10
-8.41955
 20
-203.18868
 30
0.0
 10
-8.44177
 20
-203.16527
 30
0.0
 10
-8.44104
 20
-203.13711
 30
0.0
 10
-8.4403
 20
-203.10894
 30
0.0
 10
-8.41688
 20
-203.08673
 30
0.0
 10
-8.38872
 20
-203.08747
 30
0.0
  0
SPLINE
  5
7A
330
1F
100
AcDbEntity
  8
Layer 1
 62
   250
370
    20
100
AcDbSpline
210
0.0
220
0.0
230
1.0
 70
    11
 71
     3
 72
    50
 73
    46
 74
     0
 42
0.0000000001
 43
0.0000000001
 40
0.0
 40
0.0
 40
0.0
 40
0.0
 40
0.0666666666666667
 40
0.0666666666666667
 40
0.0666666666666667
 40
0.1333333333333333
 40
0.1333333333333333
 40
0.1333333333333333
 40
0.2
 40
0.2
 40
0.2
 40
0.2666666666666667
 40
0.2666666666666667
 40
0.2666666666666667
 40
0.3333333333333333
 40
0.3333333333333333
 40
0.3333333333333333
 40
0.4
 40
0.4
 40
0.4
 40
0.4666666666666667
 40
0.4666666666666667
 40
0.4666666666666667
 40
0.5333333333333333
 40
0.5333333333333333
 40
0.5333333333333333
 40
0.6
 40
0.6
 40
0.6
 40
0.6666666666666666
 40
0.6666666666666666
 40
0.6666666666666666
 40
0.7333333333333333
 40
0.7333333333333333
 40
0.7333333333333333
 40
0.8
 40
0.8
 40
0.8
 40
0.8666666666666667
 40
0.8666666666666667
 40
0.8666666666666667
 40
0.9333333333333333
 40
0.9333333333333333
 40
0.9333333333333333
 40
1.0
 40
1.0
 40
1.0
 40
1.0
 10
16.8131
 20
-199.61767
 30
0.0
 10
16.56783
 20
-197.45444
 30
0.0
 10
15.45026
 20
-196.61272
 30
0.0
 10
14.77675
 20
-194.69436
 30
0.0
 10
14.25002
 20
-193.19407
 30
0.0
 10
14.31292
 20
-192.04492
 30
0.0
 10
14.5685
 20
-191.03082
 30
0.0
 10
15.79489
 20
-190.70921
 30
0.0
 10
16.99768
 20
-190.30091
 30
0.0
 10
18.17698
 20
-189.80616
 30
0.0
 10
18.17698
 20
-189.80616
 30
0.0
 10
18.39408
 20
-190.0079
 30
0.0
 10
18.39408
 20
-190.0079
 30
0.0
 10
18.39408
 20
-190.0079
 30
0.0
 10
18.33988
 20
-189.7372
 30
0.0
 10
18.33988
 20
-189.7372
 30
0.0
 10
18.33988
 20
-189.7372
 30
0.0
 10
18.40127
 20
-189.7109
 30
0.0
 10
18.40127
 20
-189.7109
 30
0.0
 10
18.40127
 20
-189.7109
 30
0.0
 10
18.54813
 20
-189.84737
 30
0.0
 10
18.54813
 20
-189.84737
 30
0.0
 10
18.54813
 20
-189.84737
 30
0.0
 10
18.51129
 20
-189.66336
 30
0.0
 10
18.51129
 20
-189.66336
 30
0.0
 10
20.14947
 20
-188.95061
 30
0.0
 10
21.74187
 20
-188.06959
 30
0.0
 10
23.28847
 20
-187.02019
 30
0.0
 10
23.28847
 20
-198.09891
 30
0.0
 10
23.28848
 20
-203.63827
 30
0.0
 10
23.28848
 20
-203.63827
 30
0.0
 10
23.27865
 20
-205.07873
 30
0.0
 10
22.82149
 20
-205.94587
 30
0.0
 10
21.91699
 20
-206.23971
 30
0.0
 10
21.90802
 20
-206.24153
 30
0.0
 10
21.89901
 20
-206.24331
 30
0.0
 10
21.88997
 20
-206.24507
 30
0.0
 10
21.72612
 20
-206.27993
 30
0.0
 10
21.56338
 20
-206.31191
 30
0.0
 10
21.40168
 20
-206.34125
 30
0.0
 10
19.66003
 20
-206.65718
 30
0.0
 10
18.0375
 20
-206.66661
 30
0.0
 10
16.40873
 20
-206.69214
 30
0.0
 10
16.67649
 20
-203.93606
 30
0.0
 10
17.03149
 20
-201.54401
 30
0.0
 10
16.8131
 20
-199.61767
 30
0.0
  0
SPLINE
  5
7B
330
1F
100
AcDbEntity
  8
Layer 1
 62
   250
370
    20
100
AcDbSpline
210
0.0
220
0.0
230
1.0
 70
    11
 71
     3
 72
    17
 73
    13
 74
     0
 42
0.0000000001
 43
0.0000000001
 40
0.0
 40
0.0
 40
0.0
 40
0.0
 40
0.25
 40
0.25
 40
0.25
 40
0.5
 40
0.5
 40
0.5
 40
0.75
 40
0.75
 40
0.75
 40
1.0
 40
1.0
 40
1.0
 40
1.0
 10
22.96791
 20
-203.94308
 30
0.0
 10
22.93909
 20
-203.94384
 30
0.0
 10
22.91634
 20
-203.9678
 30
0.0
 10
22.91709
 20
-203.99663
 30
0.0
 10
22.91785
 20
-204.02545
 30
0.0
 10
22.94182
 20
-204.0482
 30
0.0
 10
22.97064
 20
-204.04744
 30
0.0
 10
22.99947
 20
-204.04669
 30
0.0
 10
23.02221
 20
-204.02271
 30
0.0
 10
23.02146
 20
-203.99389
 30
0.0
 10
23.0207
 20
-203.96506
 30
0.0
 10
22.99674
 20
-203.94232
 30
0.0
 10
22.96791
 20
-203.94308
 30
0.0
  0
SPLINE
  5
7C
330
1F
100
AcDbEntity
  8
Layer 1
 62
   250
370
    20
100
AcDbSpline
210
0.0
220
0.0
230
1.0
 70
    11
 71
     3
 72
    41
 73
    37
 74
     0
 42
0.0000000001
 43
0.0000000001
 40
0.0
 40
0.0
 40
0.0
 40
0.0
 40
0.0833333333333333
 40
0.0833333333333333
 40
0.0833333333333333
 40
0.1666666666666667
 40
0.1666666666666667
 40
0.1666666666666667
 40
0.25
 40
0.25
 40
0.25
 40
0.3333333333333333
 40
0.3333333333333333
 40
0.3333333333333333
 40
0.4166666666666666
 40
0.4166666666666666
 40
0.4166666666666666
 40
0.5
 40
0.5
 40
0.5
 40
0.5833333333333333
 40
0.5833333333333333
 40
0.5833333333333333
 40
0.6666666666666666
 40
0.6666666666666666
 40
0.6666666666666666
 40
0.75
 40
0.75
 40
0.75
 40
0.8333333333333333
 40
0.8333333333333333
 40
0.8333333333333333
 40
0.9166666666666666
 40
0.9166666666666666
 40
0.9166666666666666
 40
1.0
 40
1.0
 40
1.0
 40
1.0
 10
6.96849
 20
-206.9465
 30
0.0
 10
6.96849
 20
-195.58127
 30
0.0
 10
6.9685
 20
-189.89865
 30
0.0
 10
6.9685
 20
-189.89865
 30
0.0
 10
6.95842
 20
-188.42094
 30
0.0
 10
6.48944
 20
-187.53137
 30
0.0
 10
5.56154
 20
-187.22993
 30
0.0
 10
5.55234
 20
-187.22807
 30
0.0
 10
5.54309
 20
-187.22624
 30
0.0
 10
5.53383
 20
-187.22443
 30
0.0
 10
5.36573
 20
-187.18866
 30
0.0
 10
5.19879
 20
-187.15586
 30
0.0
 10
5.03291
 20
-187.12576
 30
0.0
 10
3.24622
 20
-186.80167
 30
0.0
 10
1.58173
 20
-186.792
 30
0.0
 10
-0.08917
 20
-186.76581
 30
0.0
 10
0.18552
 20
-189.59317
 30
0.0
 10
0.54969
 20
-192.04708
 30
0.0
 10
0.32565
 20
-194.02324
 30
0.0
 10
0.07404
 20
-196.24241
 30
0.0
 10
-1.07243
 20
-197.1059
 30
0.0
 10
-1.76335
 20
-199.07387
 30
0.0
 10
-2.3037
 20
-200.61297
 30
0.0
 10
-2.23919
 20
-201.79183
 30
0.0
 10
-1.977
 20
-202.83216
 30
0.0
 10
-0.87474
 20
-203.12122
 30
0.0
 10
0.20896
 20
-203.47855
 30
0.0
 10
1.27412
 20
-203.90396
 30
0.0
 10
1.27412
 20
-203.90396
 30
0.0
 10
1.6004
 20
-203.60075
 30
0.0
 10
1.6004
 20
-203.60075
 30
0.0
 10
1.6004
 20
-203.60075
 30
0.0
 10
1.5198
 20
-204.00339
 30
0.0
 10
1.5198
 20
-204.00339
 30
0.0
 10
3.39373
 20
-204.77235
 30
0.0
 10
5.20997
 20
-205.75331
 30
0.0
 10
6.96849
 20
-206.9465
 30
0.0
  0
SPLINE
  5
7D
330
1F
100
AcDbEntity
  8
Layer 1
 62
   250
370
    20
100
AcDbSpline
210
0.0
220
0.0
230
1.0
 70
    11
 71
     3
 72
    17
 73
    13
 74
     0
 42
0.0000000001
 43
0.0000000001
 40
0.0
 40
0.0
 40
0.0
 40
0.0
 40
0.25
 40
0.25
 40
0.25
 40
0.5
 40
0.5
 40
0.5
 40
0.75
 40
0.75
 40
0.75
 40
1.0
 40
1.0
 40
1.0
 40
1.0
 10
6.63964
 20
-189.58596
 30
0.0
 10
6.61007
 20
-189.58518
 30
0.0
 10
6.58674
 20
-189.56059
 30
0.0
 10
6.58751
 20
-189.53102
 30
0.0
 10
6.58829
 20
-189.50145
 30
0.0
 10
6.61288
 20
-189.47812
 30
0.0
 10
6.64245
 20
-189.47889
 30
0.0
 10
6.67202
 20
-189.47967
 30
0.0
 10
6.69535
 20
-189.50426
 30
0.0
 10
6.69458
 20
-189.53383
 30
0.0
 10
6.6938
 20
-189.5634
 30
0.0
 10
6.66921
 20
-189.58673
 30
0.0
 10
6.63964
 20
-189.58596
 30
0.0
  0
SPLINE
  5
7E
330
1F
100
AcDbEntity
  8
Layer 1
 62
   242
370
    20
100
AcDbSpline
210
0.0
220
0.0
230
1.0
 70
    11
 71
     3
 72
    47
 73
    43
 74
     0
 42
0.0000000001
 43
0.0000000001
 40
0.0
 40
0.0
 40
0.0
 40
0.0
 40
0.0714285714285714
 40
0.0714285714285714
 40
0.0714285714285714
 40
0.1428571428571428
 40
0.1428571428571428
 40
0.1428571428571428
 40
0.2142857142857143
 40
0.2142857142857143
 40
0.2142857142857143
 40
0.2857142857142857
 40
0.2857142857142857
 40
0.2857142857142857
 40
0.3571428571428571
 40
0.3571428571428571
 40
0.3571428571428571
 40
0.4285714285714285
 40
0.4285714285714285
 40
0.4285714285714285
 40
0.5
 40
0.5
 40
0.5
 40
0.5714285714285714
 40
0.5714285714285714
 40
0.5714285714285714
 40
0.6428571428571428
 40
0.6428571428571428
 40
0.6428571428571428
 40
0.7142857142857142
 40
0.7142857142857142
 40
0.7142857142857142
 40
0.7857142857142857
 40
0.7857142857142857
 40
0.7857142857142857
 40
0.8571428571428571
 40
0.8571428571428571
 40
0.8571428571428571
 40
0.9285714285714285
 40
0.9285714285714285
 40
0.9285714285714285
 40
1.0
 40
1.0
 40
1.0
 40
1.0
 10
-21.97146
 20
-228.89505
 30
0.0
 10
-23.37461
 20
-228.37502
 30
0.0
 10
-24.83766
 20
-226.31373
 30
0.0
 10
-26.27077
 20
-225.02305
 30
0.0
 10
-26.86481
 20
-224.55193
 30
0.0
 10
-27.46307
 20
-224.14266
 30
0.0
 10
-28.065
 20
-223.78674
 30
0.0
 10
-27.928
 20
-223.55425
 30
0.0
 10
-27.87398
 20
-223.38422
 30
0.0
 10
-27.93457
 20
-223.32915
 30
0.0
 10
-28.00232
 20
-223.26758
 30
0.0
 10
-28.19952
 20
-223.36242
 30
0.0
 10
-28.45726
 20
-223.56255
 30
0.0
 10
-29.6681
 20
-222.89407
 30
0.0
 10
-30.89315
 20
-222.43305
 30
0.0
 10
-32.12774
 20
-222.11141
 30
0.0
 10
-32.3752
 20
-221.16554
 30
0.0
 10
-32.44367
 20
-220.09182
 30
0.0
 10
-31.96389
 20
-218.68486
 30
0.0
 10
-31.35045
 20
-216.88586
 30
0.0
 10
-30.31279
 20
-216.08958
 30
0.0
 10
-30.10173
 20
-214.06528
 30
0.0
 10
-29.91379
 20
-212.26264
 30
0.0
 10
-30.26579
 20
-210.02949
 30
0.0
 10
-30.5393
 20
-207.45527
 30
0.0
 10
-28.87508
 20
-207.46638
 30
0.0
 10
-27.218
 20
-207.45955
 30
0.0
 10
-25.41153
 20
-207.82704
 30
0.0
 10
-24.52482
 20
-207.99126
 30
0.0
 10
-23.97567
 20
-208.42492
 30
0.0
 10
-23.81211
 20
-209.16634
 30
0.0
 10
-23.58476
 20
-209.46794
 30
0.0
 10
-23.63218
 20
-215.35258
 30
0.0
 10
-23.54219
 20
-218.44573
 30
0.0
 10
-23.50119
 20
-219.85521
 30
0.0
 10
-23.46018
 20
-221.26473
 30
0.0
 10
-23.41919
 20
-222.67423
 30
0.0
 10
-22.92925
 20
-222.91155
 30
0.0
 10
-22.43933
 20
-223.14885
 30
0.0
 10
-21.94939
 20
-223.38617
 30
0.0
 10
-21.95675
 20
-225.22247
 30
0.0
 10
-21.9641
 20
-227.05877
 30
0.0
 10
-21.97146
 20
-228.89505
 30
0.0
  0
SPLINE
  5
7F
330
1F
100
AcDbEntity
  8
Layer 1
 62
   114
370
    20
100
AcDbSpline
210
0.0
220
0.0
230
1.0
 70
    11
 71
     3
 72
    65
 73
    61
 74
     0
 42
0.0000000001
 43
0.0000000001
 40
0.0
 40
0.0
 40
0.0
 40
0.0
 40
0.05
 40
0.05
 40
0.05
 40
0.1
 40
0.1
 40
0.1
 40
0.15
 40
0.15
 40
0.15
 40
0.2
 40
0.2
 40
0.2
 40
0.25
 40
0.25
 40
0.25
 40
0.3
 40
0.3
 40
0.3
 40
0.35
 40
0.35
 40
0.35
 40
0.4
 40
0.4
 40
0.4
 40
0.45
 40
0.45
 40
0.45
 40
0.5
 40
0.5
 40
0.5
 40
0.55
 40
0.55
 40
0.55
 40
0.6000000000000001
 40
0.6000000000000001
 40
0.6000000000000001
 40
0.65
 40
0.65
 40
0.65
 40
0.7000000000000001
 40
0.7000000000000001
 40
0.7000000000000001
 40
0.75
 40
0.75
 40
0.75
 40
0.8
 40
0.8
 40
0.8
 40
0.8500000000000001
 40
0.8500000000000001
 40
0.8500000000000001
 40
0.9
 40
0.9
 40
0.9
 40
0.9500000000000001
 40
0.9500000000000001
 40
0.9500000000000001
 40
1.0
 40
1.0
 40
1.0
 40
1.0
 10
-21.86566
 20
-295.04018
 30
0.0
 10
-23.30074
 20
-294.5005
 30
0.0
 10
-24.78969
 20
-292.3814
 30
0.0
 10
-26.25171
 20
-291.052
 30
0.0
 10
-27.30236
 20
-290.21054
 30
0.0
 10
-28.36694
 20
-289.55928
 30
0.0
 10
-29.44215
 20
-289.05308
 30
0.0
 10
-29.44215
 20
-289.05308
 30
0.0
 10
-29.42244
 20
-288.79604
 30
0.0
 10
-29.42244
 20
-288.79604
 30
0.0
 10
-29.42244
 20
-288.79604
 30
0.0
 10
-29.58378
 20
-288.9872
 30
0.0
 10
-29.58378
 20
-288.9872
 30
0.0
 10
-29.58378
 20
-288.9872
 30
0.0
 10
-29.6115
 20
-288.97454
 30
0.0
 10
-29.6115
 20
-288.97454
 30
0.0
 10
-29.6115
 20
-288.97454
 30
0.0
 10
-29.58748
 20
-288.66123
 30
0.0
 10
-29.58748
 20
-288.66123
 30
0.0
 10
-29.58748
 20
-288.66123
 30
0.0
 10
-29.78584
 20
-288.89626
 30
0.0
 10
-29.78584
 20
-288.89626
 30
0.0
 10
-29.78584
 20
-288.89626
 30
0.0
 10
-29.7956
 20
-288.89197
 30
0.0
 10
-29.7956
 20
-288.89197
 30
0.0
 10
-29.7956
 20
-288.89197
 30
0.0
 10
-29.77021
 20
-288.56079
 30
0.0
 10
-29.77021
 20
-288.56079
 30
0.0
 10
-29.77021
 20
-288.56079
 30
0.0
 10
-29.98169
 20
-288.81135
 30
0.0
 10
-29.98169
 20
-288.81135
 30
0.0
 10
-30.72944
 20
-288.49316
 30
0.0
 10
-31.48206
 20
-288.24108
 30
0.0
 10
-32.23841
 20
-288.04016
 30
0.0
 10
-32.48733
 20
-287.06984
 30
0.0
 10
-32.55223
 20
-285.96941
 30
0.0
 10
-32.05379
 20
-284.53021
 30
0.0
 10
-31.41648
 20
-282.68998
 30
0.0
 10
-30.34943
 20
-281.8792
 30
0.0
 10
-30.12328
 20
-279.80619
 30
0.0
 10
-29.92191
 20
-277.96015
 30
0.0
 10
-30.27165
 20
-275.67038
 30
0.0
 10
-30.5393
 20
-273.03156
 30
0.0
 10
-28.83423
 20
-273.05107
 30
0.0
 10
-27.13639
 20
-273.05217
 30
0.0
 10
-25.28731
 20
-273.43753
 30
0.0
 10
-24.37961
 20
-273.61013
 30
0.0
 10
-23.81909
 20
-274.05712
 30
0.0
 10
-23.65513
 20
-274.81757
 30
0.0
 10
-23.42366
 20
-275.12769
 30
0.0
 10
-23.501
 20
-281.15674
 30
0.0
 10
-23.42392
 20
-284.32634
 30
0.0
 10
-23.38881
 20
-285.77068
 30
0.0
 10
-23.35367
 20
-287.21503
 30
0.0
 10
-23.31855
 20
-288.65937
 30
0.0
 10
-22.81774
 20
-288.90492
 30
0.0
 10
-22.31693
 20
-289.15046
 30
0.0
 10
-21.81611
 20
-289.39601
 30
0.0
 10
-21.83263
 20
-291.27739
 30
0.0
 10
-21.84914
 20
-293.1588
 30
0.0
 10
-21.86566
 20
-295.04018
 30
0.0
  0
SPLINE
  5
80
330
1F
100
AcDbEntity
  8
Layer 1
 62
   250
370
    20
100
AcDbSpline
210
0.0
220
0.0
230
1.0
 70
    11
 71
     3
 72
    56
 73
    52
 74
     0
 42
0.0000000001
 43
0.0000000001
 40
0.0
 40
0.0
 40
0.0
 40
0.0
 40
0.0588235294117647
 40
0.0588235294117647
 40
0.0588235294117647
 40
0.1176470588235294
 40
0.1176470588235294
 40
0.1176470588235294
 40
0.1764705882352941
 40
0.1764705882352941
 40
0.1764705882352941
 40
0.2352941176470588
 40
0.2352941176470588
 40
0.2352941176470588
 40
0.2941176470588235
 40
0.2941176470588235
 40
0.2941176470588235
 40
0.3529411764705882
 40
0.3529411764705882
 40
0.3529411764705882
 40
0.4117647058823529
 40
0.4117647058823529
 40
0.4117647058823529
 40
0.4705882352941176
 40
0.4705882352941176
 40
0.4705882352941176
 40
0.5294117647058824
 40
0.5294117647058824
 40
0.5294117647058824
 40
0.5882352941176471
 40
0.5882352941176471
 40
0.5882352941176471
 40
0.6470588235294118
 40
0.6470588235294118
 40
0.6470588235294118
 40
0.7058823529411764
 40
0.7058823529411764
 40
0.7058823529411764
 40
0.7647058823529411
 40
0.7647058823529411
 40
0.7647058823529411
 40
0.8235294117647058
 40
0.8235294117647058
 40
0.8235294117647058
 40
0.8823529411764706
 40
0.8823529411764706
 40
0.8823529411764706
 40
0.9411764705882353
 40
0.9411764705882353
 40
0.9411764705882353
 40
1.0
 40
1.0
 40
1.0
 40
1.0
 10
-12.30373
 20
-230.05841
 30
0.0
 10
-13.79289
 20
-229.47145
 30
0.0
 10
-15.31231
 20
-227.23491
 30
0.0
 10
-16.81662
 20
-225.82315
 30
0.0
 10
-17.89953
 20
-224.92748
 30
0.0
 10
-19.0001
 20
-224.23016
 30
0.0
 10
-20.11416
 20
-223.68407
 30
0.0
 10
-20.11416
 20
-223.68407
 30
0.0
 10
-20.08936
 20
-223.41608
 30
0.0
 10
-20.08936
 20
-223.41608
 30
0.0
 10
-20.08936
 20
-223.41608
 30
0.0
 10
-20.26091
 20
-223.61298
 30
0.0
 10
-20.26091
 20
-223.61298
 30
0.0
 10
-20.26091
 20
-223.61298
 30
0.0
 10
-20.28965
 20
-223.59929
 30
0.0
 10
-20.28965
 20
-223.59929
 30
0.0
 10
-20.28965
 20
-223.59929
 30
0.0
 10
-20.25942
 20
-223.27262
 30
0.0
 10
-20.25942
 20
-223.27262
 30
0.0
 10
-20.25942
 20
-223.27262
 30
0.0
 10
-20.47035
 20
-223.51472
 30
0.0
 10
-20.47035
 20
-223.51472
 30
0.0
 10
-21.31222
 20
-223.12697
 30
0.0
 10
-22.16153
 20
-222.82232
 30
0.0
 10
-23.01645
 20
-222.58074
 30
0.0
 10
-23.26033
 20
-221.56376
 30
0.0
 10
-23.30998
 20
-220.41397
 30
0.0
 10
-22.76601
 20
-218.91984
 30
0.0
 10
-22.07047
 20
-217.00935
 30
0.0
 10
-20.94328
 20
-216.18055
 30
0.0
 10
-20.67313
 20
-214.0203
 30
0.0
 10
-20.43257
 20
-212.0966
 30
0.0
 10
-20.75999
 20
-209.70063
 30
0.0
 10
-20.99601
 20
-206.94164
 30
0.0
 10
-19.21645
 20
-206.99005
 30
0.0
 10
-17.44415
 20
-207.01911
 30
0.0
 10
-15.52028
 20
-207.45178
 30
0.0
 10
-14.5756
 20
-207.64688
 30
0.0
 10
-13.99783
 20
-208.12269
 30
0.0
 10
-13.8392
 20
-208.91919
 30
0.0
 10
-13.60267
 20
-209.24673
 30
0.0
 10
-13.78253
 20
-215.539
 30
0.0
 10
-13.75419
 20
-218.84892
 30
0.0
 10
-13.74128
 20
-220.35719
 30
0.0
 10
-13.72835
 20
-221.8655
 30
0.0
 10
-13.71544
 20
-223.37378
 30
0.0
 10
-13.19669
 20
-223.63834
 30
0.0
 10
-12.67795
 20
-223.90288
 30
0.0
 10
-12.1592
 20
-224.16744
 30
0.0
 10
-12.20738
 20
-226.13109
 30
0.0
 10
-12.25554
 20
-228.09476
 30
0.0
 10
-12.30373
 20
-230.05841
 30
0.0
  0
SPLINE
  5
81
330
1F
100
AcDbEntity
  8
Layer 1
 62
   250
370
    20
100
AcDbSpline
210
0.0
220
0.0
230
1.0
 70
    11
 71
     3
 72
    71
 73
    67
 74
     0
 42
0.0000000001
 43
0.0000000001
 40
0.0
 40
0.0
 40
0.0
 40
0.0
 40
0.0454545454545455
 40
0.0454545454545455
 40
0.0454545454545455
 40
0.0909090909090909
 40
0.0909090909090909
 40
0.0909090909090909
 40
0.1363636363636364
 40
0.1363636363636364
 40
0.1363636363636364
 40
0.1818181818181818
 40
0.1818181818181818
 40
0.1818181818181818
 40
0.2272727272727273
 40
0.2272727272727273
 40
0.2272727272727273
 40
0.2727272727272727
 40
0.2727272727272727
 40
0.2727272727272727
 40
0.3181818181818182
 40
0.3181818181818182
 40
0.3181818181818182
 40
0.3636363636363636
 40
0.3636363636363636
 40
0.3636363636363636
 40
0.4090909090909091
 40
0.4090909090909091
 40
0.4090909090909091
 40
0.4545454545454546
 40
0.4545454545454546
 40
0.4545454545454546
 40
0.5
 40
0.5
 40
0.5
 40
0.5454545454545454
 40
0.5454545454545454
 40
0.5454545454545454
 40
0.5909090909090909
 40
0.5909090909090909
 40
0.5909090909090909
 40
0.6363636363636364
 40
0.6363636363636364
 40
0.6363636363636364
 40
0.6818181818181819
 40
0.6818181818181819
 40
0.6818181818181819
 40
0.7272727272727273
 40
0.7272727272727273
 40
0.7272727272727273
 40
0.7727272727272727
 40
0.7727272727272727
 40
0.7727272727272727
 40
0.8181818181818182
 40
0.8181818181818182
 40
0.8181818181818182
 40
0.8636363636363636
 40
0.8636363636363636
 40
0.8636363636363636
 40
0.9090909090909092
 40
0.9090909090909092
 40
0.9090909090909092
 40
0.9545454545454546
 40
0.9545454545454546
 40
0.9545454545454546
 40
1.0
 40
1.0
 40
1.0
 40
1.0
 10
-3.02751
 20
-229.33431
 30
0.0
 10
-4.48244
 20
-228.76085
 30
0.0
 10
-5.96694
 20
-226.57572
 30
0.0
 10
-7.43666
 20
-225.19642
 30
0.0
 10
-8.49468
 20
-224.32135
 30
0.0
 10
-9.56995
 20
-223.64005
 30
0.0
 10
-10.6584
 20
-223.10651
 30
0.0
 10
-10.6584
 20
-223.10651
 30
0.0
 10
-10.63417
 20
-222.84469
 30
0.0
 10
-10.63417
 20
-222.84469
 30
0.0
 10
-10.63417
 20
-222.84469
 30
0.0
 10
-10.80178
 20
-223.03706
 30
0.0
 10
-10.80178
 20
-223.03706
 30
0.0
 10
-10.80178
 20
-223.03706
 30
0.0
 10
-10.82985
 20
-223.02369
 30
0.0
 10
-10.82985
 20
-223.02369
 30
0.0
 10
-10.82985
 20
-223.02369
 30
0.0
 10
-10.80033
 20
-222.70454
 30
0.0
 10
-10.80033
 20
-222.70454
 30
0.0
 10
-10.80033
 20
-222.70454
 30
0.0
 10
-11.0064
 20
-222.94106
 30
0.0
 10
-11.0064
 20
-222.94106
 30
0.0
 10
-11.0064
 20
-222.94106
 30
0.0
 10
-11.01629
 20
-222.93651
 30
0.0
 10
-11.01629
 20
-222.93651
 30
0.0
 10
-11.01629
 20
-222.93651
 30
0.0
 10
-10.98507
 20
-222.59917
 30
0.0
 10
-10.98507
 20
-222.59917
 30
0.0
 10
-10.98507
 20
-222.59917
 30
0.0
 10
-11.19067
 20
-222.83512
 30
0.0
 10
-11.19067
 20
-222.83512
 30
0.0
 10
-11.19067
 20
-222.83512
 30
0.0
 10
-11.15719
 20
-222.47338
 30
0.0
 10
-11.15719
 20
-222.47338
 30
0.0
 10
-11.15719
 20
-222.47338
 30
0.0
 10
-11.40894
 20
-222.7623
 30
0.0
 10
-11.40894
 20
-222.7623
 30
0.0
 10
-12.09941
 20
-222.46688
 30
0.0
 10
-12.79477
 20
-222.22612
 30
0.0
 10
-13.49396
 20
-222.02855
 30
0.0
 10
-13.73224
 20
-221.03494
 30
0.0
 10
-13.78075
 20
-219.9116
 30
0.0
 10
-13.24928
 20
-218.45181
 30
0.0
 10
-12.56974
 20
-216.58524
 30
0.0
 10
-11.46846
 20
-215.77551
 30
0.0
 10
-11.20451
 20
-213.6649
 30
0.0
 10
-10.96949
 20
-211.78543
 30
0.0
 10
-11.28939
 20
-209.44453
 30
0.0
 10
-11.51997
 20
-206.74897
 30
0.0
 10
-9.78133
 20
-206.79626
 30
0.0
 10
-8.04976
 20
-206.82466
 30
0.0
 10
-6.17013
 20
-207.24738
 30
0.0
 10
-5.24717
 20
-207.43799
 30
0.0
 10
-4.68268
 20
-207.90287
 30
0.0
 10
-4.52768
 20
-208.68106
 30
0.0
 10
-4.2966
 20
-209.00106
 30
0.0
 10
-4.47233
 20
-215.14869
 30
0.0
 10
-4.44463
 20
-218.38252
 30
0.0
 10
-4.43202
 20
-219.85611
 30
0.0
 10
-4.41939
 20
-221.32975
 30
0.0
 10
-4.40678
 20
-222.80336
 30
0.0
 10
-3.89996
 20
-223.06184
 30
0.0
 10
-3.39314
 20
-223.3203
 30
0.0
 10
-2.88632
 20
-223.57877
 30
0.0
 10
-2.93339
 20
-225.49729
 30
0.0
 10
-2.98044
 20
-227.41581
 30
0.0
 10
-3.02751
 20
-229.33431
 30
0.0
  0
SPLINE
  5
82
330
1F
100
AcDbEntity
  8
Layer 1
 62
   250
370
    20
100
AcDbSpline
210
0.0
220
0.0
230
1.0
 70
    11
 71
     3
 72
    47
 73
    43
 74
     0
 42
0.0000000001
 43
0.0000000001
 40
0.0
 40
0.0
 40
0.0
 40
0.0
 40
0.0714285714285714
 40
0.0714285714285714
 40
0.0714285714285714
 40
0.1428571428571428
 40
0.1428571428571428
 40
0.1428571428571428
 40
0.2142857142857143
 40
0.2142857142857143
 40
0.2142857142857143
 40
0.2857142857142857
 40
0.2857142857142857
 40
0.2857142857142857
 40
0.3571428571428571
 40
0.3571428571428571
 40
0.3571428571428571
 40
0.4285714285714285
 40
0.4285714285714285
 40
0.4285714285714285
 40
0.5
 40
0.5
 40
0.5
 40
0.5714285714285714
 40
0.5714285714285714
 40
0.5714285714285714
 40
0.6428571428571428
 40
0.6428571428571428
 40
0.6428571428571428
 40
0.7142857142857142
 40
0.7142857142857142
 40
0.7142857142857142
 40
0.7857142857142857
 40
0.7857142857142857
 40
0.7857142857142857
 40
0.8571428571428571
 40
0.8571428571428571
 40
0.8571428571428571
 40
0.9285714285714285
 40
0.9285714285714285
 40
0.9285714285714285
 40
1.0
 40
1.0
 40
1.0
 40
1.0
 10
6.90119
 20
-229.91195
 30
0.0
 10
5.3735
 20
-229.30982
 30
0.0
 10
3.81478
 20
-227.01543
 30
0.0
 10
2.27157
 20
-225.56716
 30
0.0
 10
0.97924
 20
-224.4983
 30
0.0
 10
-0.3376
 20
-223.70467
 30
0.0
 10
-1.67222
 20
-223.11044
 30
0.0
 10
-1.67222
 20
-223.11044
 30
0.0
 10
-1.63498
 20
-222.70796
 30
0.0
 10
-1.63498
 20
-222.70796
 30
0.0
 10
-1.63498
 20
-222.70796
 30
0.0
 10
-1.89934
 20
-223.01135
 30
0.0
 10
-1.89934
 20
-223.01135
 30
0.0
 10
-2.62433
 20
-222.70118
 30
0.0
 10
-3.35444
 20
-222.44835
 30
0.0
 10
-4.08859
 20
-222.24089
 30
0.0
 10
-4.33879
 20
-221.19761
 30
0.0
 10
-4.38972
 20
-220.01809
 30
0.0
 10
-3.83167
 20
-218.48531
 30
0.0
 10
-3.11815
 20
-216.52543
 30
0.0
 10
-1.96181
 20
-215.67519
 30
0.0
 10
-1.68468
 20
-213.45906
 30
0.0
 10
-1.4379
 20
-211.4856
 30
0.0
 10
-1.77379
 20
-209.02768
 30
0.0
 10
-2.01591
 20
-206.19734
 30
0.0
 10
-0.19032
 20
-206.247
 30
0.0
 10
1.62782
 20
-206.27681
 30
0.0
 10
3.60143
 20
-206.72067
 30
0.0
 10
4.57054
 20
-206.9208
 30
0.0
 10
5.16326
 20
-207.40893
 30
0.0
 10
5.326
 20
-208.22603
 30
0.0
 10
5.56864
 20
-208.56203
 30
0.0
 10
5.38413
 20
-215.01705
 30
0.0
 10
5.41321
 20
-218.41257
 30
0.0
 10
5.42645
 20
-219.95984
 30
0.0
 10
5.43971
 20
-221.50715
 30
0.0
 10
5.45295
 20
-223.05444
 30
0.0
 10
5.98511
 20
-223.32585
 30
0.0
 10
6.51727
 20
-223.59723
 30
0.0
 10
7.04944
 20
-223.86864
 30
0.0
 10
7.00002
 20
-225.88305
 30
0.0
 10
6.9506
 20
-227.89751
 30
0.0
 10
6.90119
 20
-229.91195
 30
0.0
  0
SPLINE
  5
83
330
1F
100
AcDbEntity
  8
Layer 1
 62
   242
370
    20
100
AcDbSpline
210
0.0
220
0.0
230
1.0
 70
    11
 71
     3
 72
    47
 73
    43
 74
     0
 42
0.0000000001
 43
0.0000000001
 40
0.0
 40
0.0
 40
0.0
 40
0.0
 40
0.0714285714285714
 40
0.0714285714285714
 40
0.0714285714285714
 40
0.1428571428571428
 40
0.1428571428571428
 40
0.1428571428571428
 40
0.2142857142857143
 40
0.2142857142857143
 40
0.2142857142857143
 40
0.2857142857142857
 40
0.2857142857142857
 40
0.2857142857142857
 40
0.3571428571428571
 40
0.3571428571428571
 40
0.3571428571428571
 40
0.4285714285714285
 40
0.4285714285714285
 40
0.4285714285714285
 40
0.5
 40
0.5
 40
0.5
 40
0.5714285714285714
 40
0.5714285714285714
 40
0.5714285714285714
 40
0.6428571428571428
 40
0.6428571428571428
 40
0.6428571428571428
 40
0.7142857142857142
 40
0.7142857142857142
 40
0.7142857142857142
 40
0.7857142857142857
 40
0.7857142857142857
 40
0.7857142857142857
 40
0.8571428571428571
 40
0.8571428571428571
 40
0.8571428571428571
 40
0.9285714285714285
 40
0.9285714285714285
 40
0.9285714285714285
 40
1.0
 40
1.0
 40
1.0
 40
1.0
 10
7.46298
 20
-228.89505
 30
0.0
 10
8.86613
 20
-228.37502
 30
0.0
 10
10.32918
 20
-226.31373
 30
0.0
 10
11.76229
 20
-225.02305
 30
0.0
 10
12.35633
 20
-224.55193
 30
0.0
 10
12.95459
 20
-224.14266
 30
0.0
 10
13.55652
 20
-223.78674
 30
0.0
 10
13.41952
 20
-223.55425
 30
0.0
 10
13.3655
 20
-223.38422
 30
0.0
 10
13.42609
 20
-223.32915
 30
0.0
 10
13.49384
 20
-223.26758
 30
0.0
 10
13.69104
 20
-223.36242
 30
0.0
 10
13.94878
 20
-223.56255
 30
0.0
 10
15.15962
 20
-222.89407
 30
0.0
 10
16.38467
 20
-222.43305
 30
0.0
 10
17.61926
 20
-222.11141
 30
0.0
 10
17.86672
 20
-221.16554
 30
0.0
 10
17.93519
 20
-220.09182
 30
0.0
 10
17.45541
 20
-218.68486
 30
0.0
 10
16.84197
 20
-216.88586
 30
0.0
 10
15.80431
 20
-216.08958
 30
0.0
 10
15.59325
 20
-214.06528
 30
0.0
 10
15.40531
 20
-212.26264
 30
0.0
 10
15.75731
 20
-210.02949
 30
0.0
 10
16.03082
 20
-207.45527
 30
0.0
 10
14.3666
 20
-207.46638
 30
0.0
 10
12.70952
 20
-207.45955
 30
0.0
 10
10.90305
 20
-207.82704
 30
0.0
 10
10.01634
 20
-207.99126
 30
0.0
 10
9.46719
 20
-208.42492
 30
0.0
 10
9.30363
 20
-209.16634
 30
0.0
 10
9.07628
 20
-209.46794
 30
0.0
 10
9.1237
 20
-215.35258
 30
0.0
 10
9.03371
 20
-218.44573
 30
0.0
 10
8.99271
 20
-219.85521
 30
0.0
 10
8.9517
 20
-221.26473
 30
0.0
 10
8.91071
 20
-222.67423
 30
0.0
 10
8.42077
 20
-222.91155
 30
0.0
 10
7.93085
 20
-223.14885
 30
0.0
 10
7.44091
 20
-223.38617
 30
0.0
 10
7.44827
 20
-225.22247
 30
0.0
 10
7.45562
 20
-227.05877
 30
0.0
 10
7.46298
 20
-228.89505
 30
0.0
  0
SPLINE
  5
84
330
1F
100
AcDbEntity
  8
Layer 1
 62
   114
370
    20
100
AcDbSpline
210
0.0
220
0.0
230
1.0
 70
    11
 71
     3
 72
    65
 73
    61
 74
     0
 42
0.0000000001
 43
0.0000000001
 40
0.0
 40
0.0
 40
0.0
 40
0.0
 40
0.05
 40
0.05
 40
0.05
 40
0.1
 40
0.1
 40
0.1
 40
0.15
 40
0.15
 40
0.15
 40
0.2
 40
0.2
 40
0.2
 40
0.25
 40
0.25
 40
0.25
 40
0.3
 40
0.3
 40
0.3
 40
0.35
 40
0.35
 40
0.35
 40
0.4
 40
0.4
 40
0.4
 40
0.45
 40
0.45
 40
0.45
 40
0.5
 40
0.5
 40
0.5
 40
0.55
 40
0.55
 40
0.55
 40
0.6000000000000001
 40
0.6000000000000001
 40
0.6000000000000001
 40
0.65
 40
0.65
 40
0.65
 40
0.7000000000000001
 40
0.7000000000000001
 40
0.7000000000000001
 40
0.75
 40
0.75
 40
0.75
 40
0.8
 40
0.8
 40
0.8
 40
0.8500000000000001
 40
0.8500000000000001
 40
0.8500000000000001
 40
0.9
 40
0.9
 40
0.9
 40
0.9500000000000001
 40
0.9500000000000001
 40
0.9500000000000001
 40
1.0
 40
1.0
 40
1.0
 40
1.0
 10
7.35718
 20
-295.04018
 30
0.0
 10
8.79226
 20
-294.5005
 30
0.0
 10
10.28121
 20
-292.3814
 30
0.0
 10
11.74323
 20
-291.052
 30
0.0
 10
12.79388
 20
-290.21054
 30
0.0
 10
13.85846
 20
-289.55928
 30
0.0
 10
14.93367
 20
-289.05308
 30
0.0
 10
14.93367
 20
-289.05308
 30
0.0
 10
14.91396
 20
-288.79604
 30
0.0
 10
14.91396
 20
-288.79604
 30
0.0
 10
14.91396
 20
-288.79604
 30
0.0
 10
15.0753
 20
-288.9872
 30
0.0
 10
15.0753
 20
-288.9872
 30
0.0
 10
15.0753
 20
-288.9872
 30
0.0
 10
15.10302
 20
-288.97454
 30
0.0
 10
15.10302
 20
-288.97454
 30
0.0
 10
15.10302
 20
-288.97454
 30
0.0
 10
15.079
 20
-288.66123
 30
0.0
 10
15.079
 20
-288.66123
 30
0.0
 10
15.079
 20
-288.66123
 30
0.0
 10
15.27736
 20
-288.89626
 30
0.0
 10
15.27736
 20
-288.89626
 30
0.0
 10
15.27736
 20
-288.89626
 30
0.0
 10
15.28712
 20
-288.89197
 30
0.0
 10
15.28712
 20
-288.89197
 30
0.0
 10
15.28712
 20
-288.89197
 30
0.0
 10
15.26173
 20
-288.56079
 30
0.0
 10
15.26173
 20
-288.56079
 30
0.0
 10
15.26173
 20
-288.56079
 30
0.0
 10
15.47321
 20
-288.81135
 30
0.0
 10
15.47321
 20
-288.81135
 30
0.0
 10
16.22096
 20
-288.49316
 30
0.0
 10
16.97358
 20
-288.24108
 30
0.0
 10
17.72993
 20
-288.04016
 30
0.0
 10
17.97885
 20
-287.06984
 30
0.0
 10
18.04375
 20
-285.96941
 30
0.0
 10
17.54531
 20
-284.53021
 30
0.0
 10
16.908
 20
-282.68998
 30
0.0
 10
15.84095
 20
-281.8792
 30
0.0
 10
15.6148
 20
-279.80619
 30
0.0
 10
15.41343
 20
-277.96015
 30
0.0
 10
15.76317
 20
-275.67038
 30
0.0
 10
16.03082
 20
-273.03156
 30
0.0
 10
14.32575
 20
-273.05107
 30
0.0
 10
12.62791
 20
-273.05217
 30
0.0
 10
10.77883
 20
-273.43753
 30
0.0
 10
9.87113
 20
-273.61013
 30
0.0
 10
9.31061
 20
-274.05712
 30
0.0
 10
9.14665
 20
-274.81757
 30
0.0
 10
8.91518
 20
-275.12769
 30
0.0
 10
8.99252
 20
-281.15674
 30
0.0
 10
8.91544
 20
-284.32634
 30
0.0
 10
8.88033
 20
-285.77068
 30
0.0
 10
8.84519
 20
-287.21503
 30
0.0
 10
8.81007
 20
-288.65937
 30
0.0
 10
8.30926
 20
-288.90492
 30
0.0
 10
7.80845
 20
-289.15046
 30
0.0
 10
7.30763
 20
-289.39601
 30
0.0
 10
7.32415
 20
-291.27739
 30
0.0
 10
7.34066
 20
-293.1588
 30
0.0
 10
7.35718
 20
-295.04018
 30
0.0
  0
SPLINE
  5
85
330
1F
100
AcDbEntity
  8
Layer 1
 62
   242
370
    20
100
AcDbSpline
210
0.0
220
0.0
230
1.0
 70
    11
 71
     3
 72
    56
 73
    52
 74
     0
 42
0.0000000001
 43
0.0000000001
 40
0.0
 40
0.0
 40
0.0
 40
0.0
 40
0.0588235294117647
 40
0.0588235294117647
 40
0.0588235294117647
 40
0.1176470588235294
 40
0.1176470588235294
 40
0.1176470588235294
 40
0.1764705882352941
 40
0.1764705882352941
 40
0.1764705882352941
 40
0.2352941176470588
 40
0.2352941176470588
 40
0.2352941176470588
 40
0.2941176470588235
 40
0.2941176470588235
 40
0.2941176470588235
 40
0.3529411764705882
 40
0.3529411764705882
 40
0.3529411764705882
 40
0.4117647058823529
 40
0.4117647058823529
 40
0.4117647058823529
 40
0.4705882352941176
 40
0.4705882352941176
 40
0.4705882352941176
 40
0.5294117647058824
 40
0.5294117647058824
 40
0.5294117647058824
 40
0.5882352941176471
 40
0.5882352941176471
 40
0.5882352941176471
 40
0.6470588235294118
 40
0.6470588235294118
 40
0.6470588235294118
 40
0.7058823529411764
 40
0.7058823529411764
 40
0.7058823529411764
 40
0.7647058823529411
 40
0.7647058823529411
 40
0.7647058823529411
 40
0.8235294117647058
 40
0.8235294117647058
 40
0.8235294117647058
 40
0.8823529411764706
 40
0.8823529411764706
 40
0.8823529411764706
 40
0.9411764705882353
 40
0.9411764705882353
 40
0.9411764705882353
 40
1.0
 40
1.0
 40
1.0
 40
1.0
 10
-22.43399
 20
-253.50358
 30
0.0
 10
-20.94483
 20
-252.91662
 30
0.0
 10
-19.42541
 20
-250.68008
 30
0.0
 10
-17.9211
 20
-249.26832
 30
0.0
 10
-16.83819
 20
-248.37265
 30
0.0
 10
-15.73762
 20
-247.67533
 30
0.0
 10
-14.62356
 20
-247.12924
 30
0.0
 10
-14.62356
 20
-247.12924
 30
0.0
 10
-14.64836
 20
-246.86125
 30
0.0
 10
-14.64836
 20
-246.86125
 30
0.0
 10
-14.64836
 20
-246.86125
 30
0.0
 10
-14.47681
 20
-247.05815
 30
0.0
 10
-14.47681
 20
-247.05815
 30
0.0
 10
-14.47681
 20
-247.05815
 30
0.0
 10
-14.44807
 20
-247.04446
 30
0.0
 10
-14.44807
 20
-247.04446
 30
0.0
 10
-14.44807
 20
-247.04446
 30
0.0
 10
-14.4783
 20
-246.71779
 30
0.0
 10
-14.4783
 20
-246.71779
 30
0.0
 10
-14.4783
 20
-246.71779
 30
0.0
 10
-14.26737
 20
-246.95989
 30
0.0
 10
-14.26737
 20
-246.95989
 30
0.0
 10
-13.4255
 20
-246.57214
 30
0.0
 10
-12.57619
 20
-246.26749
 30
0.0
 10
-11.72127
 20
-246.02591
 30
0.0
 10
-11.47739
 20
-245.00893
 30
0.0
 10
-11.42774
 20
-243.85914
 30
0.0
 10
-11.97171
 20
-242.36501
 30
0.0
 10
-12.66725
 20
-240.45452
 30
0.0
 10
-13.79444
 20
-239.62572
 30
0.0
 10
-14.06459
 20
-237.46547
 30
0.0
 10
-14.30515
 20
-235.54177
 30
0.0
 10
-13.97773
 20
-233.1458
 30
0.0
 10
-13.74171
 20
-230.38681
 30
0.0
 10
-15.52127
 20
-230.43522
 30
0.0
 10
-17.29357
 20
-230.46428
 30
0.0
 10
-19.21744
 20
-230.89695
 30
0.0
 10
-20.16212
 20
-231.09205
 30
0.0
 10
-20.73989
 20
-231.56786
 30
0.0
 10
-20.89852
 20
-232.36436
 30
0.0
 10
-21.13505
 20
-232.6919
 30
0.0
 10
-20.95519
 20
-238.98417
 30
0.0
 10
-20.98353
 20
-242.29409
 30
0.0
 10
-20.99644
 20
-243.80236
 30
0.0
 10
-21.00937
 20
-245.31067
 30
0.0
 10
-21.02228
 20
-246.81895
 30
0.0
 10
-21.54103
 20
-247.08351
 30
0.0
 10
-22.05977
 20
-247.34805
 30
0.0
 10
-22.57852
 20
-247.61261
 30
0.0
 10
-22.53034
 20
-249.57626
 30
0.0
 10
-22.48218
 20
-251.53993
 30
0.0
 10
-22.43399
 20
-253.50358
 30
0.0
  0
SPLINE
  5
86
330
1F
100
AcDbEntity
  8
Layer 1
 62
   250
370
    20
100
AcDbSpline
210
0.0
220
0.0
230
1.0
 70
    11
 71
     3
 72
    71
 73
    67
 74
     0
 42
0.0000000001
 43
0.0000000001
 40
0.0
 40
0.0
 40
0.0
 40
0.0
 40
0.0454545454545455
 40
0.0454545454545455
 40
0.0454545454545455
 40
0.0909090909090909
 40
0.0909090909090909
 40
0.0909090909090909
 40
0.1363636363636364
 40
0.1363636363636364
 40
0.1363636363636364
 40
0.1818181818181818
 40
0.1818181818181818
 40
0.1818181818181818
 40
0.2272727272727273
 40
0.2272727272727273
 40
0.2272727272727273
 40
0.2727272727272727
 40
0.2727272727272727
 40
0.2727272727272727
 40
0.3181818181818182
 40
0.3181818181818182
 40
0.3181818181818182
 40
0.3636363636363636
 40
0.3636363636363636
 40
0.3636363636363636
 40
0.4090909090909091
 40
0.4090909090909091
 40
0.4090909090909091
 40
0.4545454545454546
 40
0.4545454545454546
 40
0.4545454545454546
 40
0.5
 40
0.5
 40
0.5
 40
0.5454545454545454
 40
0.5454545454545454
 40
0.5454545454545454
 40
0.5909090909090909
 40
0.5909090909090909
 40
0.5909090909090909
 40
0.6363636363636364
 40
0.6363636363636364
 40
0.6363636363636364
 40
0.6818181818181819
 40
0.6818181818181819
 40
0.6818181818181819
 40
0.7272727272727273
 40
0.7272727272727273
 40
0.7272727272727273
 40
0.7727272727272727
 40
0.7727272727272727
 40
0.7727272727272727
 40
0.8181818181818182
 40
0.8181818181818182
 40
0.8181818181818182
 40
0.8636363636363636
 40
0.8636363636363636
 40
0.8636363636363636
 40
0.9090909090909092
 40
0.9090909090909092
 40
0.9090909090909092
 40
0.9545454545454546
 40
0.9545454545454546
 40
0.9545454545454546
 40
1.0
 40
1.0
 40
1.0
 40
1.0
 10
17.12639
 20
-229.33431
 30
0.0
 10
18.58132
 20
-228.76085
 30
0.0
 10
20.06582
 20
-226.57572
 30
0.0
 10
21.53554
 20
-225.19642
 30
0.0
 10
22.59356
 20
-224.32135
 30
0.0
 10
23.66883
 20
-223.64005
 30
0.0
 10
24.75728
 20
-223.10651
 30
0.0
 10
24.75728
 20
-223.10651
 30
0.0
 10
24.73305
 20
-222.84469
 30
0.0
 10
24.73305
 20
-222.84469
 30
0.0
 10
24.73305
 20
-222.84469
 30
0.0
 10
24.90066
 20
-223.03706
 30
0.0
 10
24.90066
 20
-223.03706
 30
0.0
 10
24.90066
 20
-223.03706
 30
0.0
 10
24.92873
 20
-223.02369
 30
0.0
 10
24.92873
 20
-223.02369
 30
0.0
 10
24.92873
 20
-223.02369
 30
0.0
 10
24.89921
 20
-222.70454
 30
0.0
 10
24.89921
 20
-222.70454
 30
0.0
 10
24.89921
 20
-222.70454
 30
0.0
 10
25.10528
 20
-222.94106
 30
0.0
 10
25.10528
 20
-222.94106
 30
0.0
 10
25.10528
 20
-222.94106
 30
0.0
 10
25.11517
 20
-222.93651
 30
0.0
 10
25.11517
 20
-222.93651
 30
0.0
 10
25.11517
 20
-222.93651
 30
0.0
 10
25.08395
 20
-222.59917
 30
0.0
 10
25.08395
 20
-222.59917
 30
0.0
 10
25.08395
 20
-222.59917
 30
0.0
 10
25.28955
 20
-222.83512
 30
0.0
 10
25.28955
 20
-222.83512
 30
0.0
 10
25.28955
 20
-222.83512
 30
0.0
 10
25.25607
 20
-222.47338
 30
0.0
 10
25.25607
 20
-222.47338
 30
0.0
 10
25.25607
 20
-222.47338
 30
0.0
 10
25.50782
 20
-222.7623
 30
0.0
 10
25.50782
 20
-222.7623
 30
0.0
 10
26.19829
 20
-222.46688
 30
0.0
 10
26.89365
 20
-222.22612
 30
0.0
 10
27.59284
 20
-222.02855
 30
0.0
 10
27.83112
 20
-221.03494
 30
0.0
 10
27.87963
 20
-219.9116
 30
0.0
 10
27.34816
 20
-218.45181
 30
0.0
 10
26.66862
 20
-216.58524
 30
0.0
 10
25.56734
 20
-215.77551
 30
0.0
 10
25.30339
 20
-213.6649
 30
0.0
 10
25.06837
 20
-211.78543
 30
0.0
 10
25.38827
 20
-209.44453
 30
0.0
 10
25.61885
 20
-206.74897
 30
0.0
 10
23.88021
 20
-206.79626
 30
0.0
 10
22.14864
 20
-206.82466
 30
0.0
 10
20.26901
 20
-207.24738
 30
0.0
 10
19.34605
 20
-207.43799
 30
0.0
 10
18.78156
 20
-207.90287
 30
0.0
 10
18.62656
 20
-208.68106
 30
0.0
 10
18.39548
 20
-209.00106
 30
0.0
 10
18.57121
 20
-215.14869
 30
0.0
 10
18.54351
 20
-218.38252
 30
0.0
 10
18.5309
 20
-219.85611
 30
0.0
 10
18.51827
 20
-221.32975
 30
0.0
 10
18.50566
 20
-222.80336
 30
0.0
 10
17.99884
 20
-223.06184
 30
0.0
 10
17.49202
 20
-223.3203
 30
0.0
 10
16.9852
 20
-223.57877
 30
0.0
 10
17.03227
 20
-225.49729
 30
0.0
 10
17.07932
 20
-227.41581
 30
0.0
 10
17.12639
 20
-229.33431
 30
0.0
  0
SPLINE
  5
87
330
1F
100
AcDbEntity
  8
Layer 1
 62
   242
370
    20
100
AcDbSpline
210
0.0
220
0.0
230
1.0
 70
    11
 71
     3
 72
    47
 73
    43
 74
     0
 42
0.0000000001
 43
0.0000000001
 40
0.0
 40
0.0
 40
0.0
 40
0.0
 40
0.0714285714285714
 40
0.0714285714285714
 40
0.0714285714285714
 40
0.1428571428571428
 40
0.1428571428571428
 40
0.1428571428571428
 40
0.2142857142857143
 40
0.2142857142857143
 40
0.2142857142857143
 40
0.2857142857142857
 40
0.2857142857142857
 40
0.2857142857142857
 40
0.3571428571428571
 40
0.3571428571428571
 40
0.3571428571428571
 40
0.4285714285714285
 40
0.4285714285714285
 40
0.4285714285714285
 40
0.5
 40
0.5
 40
0.5
 40
0.5714285714285714
 40
0.5714285714285714
 40
0.5714285714285714
 40
0.6428571428571428
 40
0.6428571428571428
 40
0.6428571428571428
 40
0.7142857142857142
 40
0.7142857142857142
 40
0.7142857142857142
 40
0.7857142857142857
 40
0.7857142857142857
 40
0.7857142857142857
 40
0.8571428571428571
 40
0.8571428571428571
 40
0.8571428571428571
 40
0.9285714285714285
 40
0.9285714285714285
 40
0.9285714285714285
 40
1.0
 40
1.0
 40
1.0
 40
1.0
 10
-32.26975
 20
-254.10142
 30
0.0
 10
-30.74206
 20
-253.49929
 30
0.0
 10
-29.18334
 20
-251.2049
 30
0.0
 10
-27.64013
 20
-249.75663
 30
0.0
 10
-26.3478
 20
-248.68777
 30
0.0
 10
-25.03096
 20
-247.89414
 30
0.0
 10
-23.69634
 20
-247.29991
 30
0.0
 10
-23.69634
 20
-247.29991
 30
0.0
 10
-23.73358
 20
-246.89743
 30
0.0
 10
-23.73358
 20
-246.89743
 30
0.0
 10
-23.73358
 20
-246.89743
 30
0.0
 10
-23.46922
 20
-247.20082
 30
0.0
 10
-23.46922
 20
-247.20082
 30
0.0
 10
-22.74423
 20
-246.89065
 30
0.0
 10
-22.01412
 20
-246.63782
 30
0.0
 10
-21.27997
 20
-246.43036
 30
0.0
 10
-21.02977
 20
-245.38708
 30
0.0
 10
-20.97884
 20
-244.20756
 30
0.0
 10
-21.53689
 20
-242.67478
 30
0.0
 10
-22.25041
 20
-240.7149
 30
0.0
 10
-23.40675
 20
-239.86466
 30
0.0
 10
-23.68388
 20
-237.64853
 30
0.0
 10
-23.93066
 20
-235.67507
 30
0.0
 10
-23.59477
 20
-233.21715
 30
0.0
 10
-23.35265
 20
-230.38681
 30
0.0
 10
-25.17824
 20
-230.43647
 30
0.0
 10
-26.99638
 20
-230.46628
 30
0.0
 10
-28.96999
 20
-230.91014
 30
0.0
 10
-29.9391
 20
-231.11027
 30
0.0
 10
-30.53182
 20
-231.5984
 30
0.0
 10
-30.69456
 20
-232.4155
 30
0.0
 10
-30.9372
 20
-232.7515
 30
0.0
 10
-30.75269
 20
-239.20652
 30
0.0
 10
-30.78177
 20
-242.60204
 30
0.0
 10
-30.79501
 20
-244.14931
 30
0.0
 10
-30.80827
 20
-245.69662
 30
0.0
 10
-30.82151
 20
-247.24391
 30
0.0
 10
-31.35367
 20
-247.51532
 30
0.0
 10
-31.88583
 20
-247.7867
 30
0.0
 10
-32.418
 20
-248.05811
 30
0.0
 10
-32.36858
 20
-250.07252
 30
0.0
 10
-32.31916
 20
-252.08698
 30
0.0
 10
-32.26975
 20
-254.10142
 30
0.0
  0
SPLINE
  5
88
330
1F
100
AcDbEntity
  8
Layer 1
 62
   242
370
    20
100
AcDbSpline
210
0.0
220
0.0
230
1.0
 70
    11
 71
     3
 72
    56
 73
    52
 74
     0
 42
0.0000000001
 43
0.0000000001
 40
0.0
 40
0.0
 40
0.0
 40
0.0
 40
0.0588235294117647
 40
0.0588235294117647
 40
0.0588235294117647
 40
0.1176470588235294
 40
0.1176470588235294
 40
0.1176470588235294
 40
0.1764705882352941
 40
0.1764705882352941
 40
0.1764705882352941
 40
0.2352941176470588
 40
0.2352941176470588
 40
0.2352941176470588
 40
0.2941176470588235
 40
0.2941176470588235
 40
0.2941176470588235
 40
0.3529411764705882
 40
0.3529411764705882
 40
0.3529411764705882
 40
0.4117647058823529
 40
0.4117647058823529
 40
0.4117647058823529
 40
0.4705882352941176
 40
0.4705882352941176
 40
0.4705882352941176
 40
0.5294117647058824
 40
0.5294117647058824
 40
0.5294117647058824
 40
0.5882352941176471
 40
0.5882352941176471
 40
0.5882352941176471
 40
0.6470588235294118
 40
0.6470588235294118
 40
0.6470588235294118
 40
0.7058823529411764
 40
0.7058823529411764
 40
0.7058823529411764
 40
0.7647058823529411
 40
0.7647058823529411
 40
0.7647058823529411
 40
0.8235294117647058
 40
0.8235294117647058
 40
0.8235294117647058
 40
0.8823529411764706
 40
0.8823529411764706
 40
0.8823529411764706
 40
0.9411764705882353
 40
0.9411764705882353
 40
0.9411764705882353
 40
1.0
 40
1.0
 40
1.0
 40
1.0
 10
-2.95143
 20
-253.50358
 30
0.0
 10
-1.46227
 20
-252.91662
 30
0.0
 10
0.05715
 20
-250.68008
 30
0.0
 10
1.56146
 20
-249.26832
 30
0.0
 10
2.64437
 20
-248.37265
 30
0.0
 10
3.74494
 20
-247.67533
 30
0.0
 10
4.859
 20
-247.12924
 30
0.0
 10
4.859
 20
-247.12924
 30
0.0
 10
4.8342
 20
-246.86125
 30
0.0
 10
4.8342
 20
-246.86125
 30
0.0
 10
4.8342
 20
-246.86125
 30
0.0
 10
5.00575
 20
-247.05815
 30
0.0
 10
5.00575
 20
-247.05815
 30
0.0
 10
5.00575
 20
-247.05815
 30
0.0
 10
5.03449
 20
-247.04446
 30
0.0
 10
5.03449
 20
-247.04446
 30
0.0
 10
5.03449
 20
-247.04446
 30
0.0
 10
5.00426
 20
-246.71779
 30
0.0
 10
5.00426
 20
-246.71779
 30
0.0
 10
5.00426
 20
-246.71779
 30
0.0
 10
5.21519
 20
-246.95989
 30
0.0
 10
5.21519
 20
-246.95989
 30
0.0
 10
6.05706
 20
-246.57214
 30
0.0
 10
6.90637
 20
-246.26749
 30
0.0
 10
7.76129
 20
-246.02591
 30
0.0
 10
8.00517
 20
-245.00893
 30
0.0
 10
8.05482
 20
-243.85914
 30
0.0
 10
7.51085
 20
-242.36501
 30
0.0
 10
6.81531
 20
-240.45452
 30
0.0
 10
5.68812
 20
-239.62572
 30
0.0
 10
5.41797
 20
-237.46547
 30
0.0
 10
5.17741
 20
-235.54177
 30
0.0
 10
5.50483
 20
-233.1458
 30
0.0
 10
5.74085
 20
-230.38681
 30
0.0
 10
3.96129
 20
-230.43522
 30
0.0
 10
2.18899
 20
-230.46428
 30
0.0
 10
0.26512
 20
-230.89695
 30
0.0
 10
-0.67956
 20
-231.09205
 30
0.0
 10
-1.25733
 20
-231.56786
 30
0.0
 10
-1.41596
 20
-232.36436
 30
0.0
 10
-1.65249
 20
-232.6919
 30
0.0
 10
-1.47263
 20
-238.98417
 30
0.0
 10
-1.50097
 20
-242.29409
 30
0.0
 10
-1.51388
 20
-243.80236
 30
0.0
 10
-1.52681
 20
-245.31067
 30
0.0
 10
-1.53972
 20
-246.81895
 30
0.0
 10
-2.05847
 20
-247.08351
 30
0.0
 10
-2.57721
 20
-247.34805
 30
0.0
 10
-3.09596
 20
-247.61261
 30
0.0
 10
-3.04778
 20
-249.57626
 30
0.0
 10
-2.99962
 20
-251.53993
 30
0.0
 10
-2.95143
 20
-253.50358
 30
0.0
  0
SPLINE
  5
89
330
1F
100
AcDbEntity
  8
Layer 1
 62
   242
370
    20
100
AcDbSpline
210
0.0
220
0.0
230
1.0
 70
    11
 71
     3
 72
    47
 73
    43
 74
     0
 42
0.0000000001
 43
0.0000000001
 40
0.0
 40
0.0
 40
0.0
 40
0.0
 40
0.0714285714285714
 40
0.0714285714285714
 40
0.0714285714285714
 40
0.1428571428571428
 40
0.1428571428571428
 40
0.1428571428571428
 40
0.2142857142857143
 40
0.2142857142857143
 40
0.2142857142857143
 40
0.2857142857142857
 40
0.2857142857142857
 40
0.2857142857142857
 40
0.3571428571428571
 40
0.3571428571428571
 40
0.3571428571428571
 40
0.4285714285714285
 40
0.4285714285714285
 40
0.4285714285714285
 40
0.5
 40
0.5
 40
0.5
 40
0.5714285714285714
 40
0.5714285714285714
 40
0.5714285714285714
 40
0.6428571428571428
 40
0.6428571428571428
 40
0.6428571428571428
 40
0.7142857142857142
 40
0.7142857142857142
 40
0.7142857142857142
 40
0.7857142857142857
 40
0.7857142857142857
 40
0.7857142857142857
 40
0.8571428571428571
 40
0.8571428571428571
 40
0.8571428571428571
 40
0.9285714285714285
 40
0.9285714285714285
 40
0.9285714285714285
 40
1.0
 40
1.0
 40
1.0
 40
1.0
 10
-12.78719
 20
-254.10142
 30
0.0
 10
-11.2595
 20
-253.49929
 30
0.0
 10
-9.70078
 20
-251.2049
 30
0.0
 10
-8.15757
 20
-249.75663
 30
0.0
 10
-6.86524
 20
-248.68777
 30
0.0
 10
-5.5484
 20
-247.89414
 30
0.0
 10
-4.21378
 20
-247.29991
 30
0.0
 10
-4.21378
 20
-247.29991
 30
0.0
 10
-4.25102
 20
-246.89743
 30
0.0
 10
-4.25102
 20
-246.89743
 30
0.0
 10
-4.25102
 20
-246.89743
 30
0.0
 10
-3.98666
 20
-247.20082
 30
0.0
 10
-3.98666
 20
-247.20082
 30
0.0
 10
-3.26167
 20
-246.89065
 30
0.0
 10
-2.53156
 20
-246.63782
 30
0.0
 10
-1.79741
 20
-246.43036
 30
0.0
 10
-1.54721
 20
-245.38708
 30
0.0
 10
-1.49628
 20
-244.20756
 30
0.0
 10
-2.05433
 20
-242.67478
 30
0.0
 10
-2.76785
 20
-240.7149
 30
0.0
 10
-3.92419
 20
-239.86466
 30
0.0
 10
-4.20132
 20
-237.64853
 30
0.0
 10
-4.4481
 20
-235.67507
 30
0.0
 10
-4.11221
 20
-233.21715
 30
0.0
 10
-3.87009
 20
-230.38681
 30
0.0
 10
-5.69568
 20
-230.43647
 30
0.0
 10
-7.51382
 20
-230.46628
 30
0.0
 10
-9.48743
 20
-230.91014
 30
0.0
 10
-10.45654
 20
-231.11027
 30
0.0
 10
-11.04926
 20
-231.5984
 30
0.0
 10
-11.212
 20
-232.4155
 30
0.0
 10
-11.45464
 20
-232.7515
 30
0.0
 10
-11.27013
 20
-239.20652
 30
0.0
 10
-11.29921
 20
-242.60204
 30
0.0
 10
-11.31245
 20
-244.14931
 30
0.0
 10
-11.32571
 20
-245.69662
 30
0.0
 10
-11.33895
 20
-247.24391
 30
0.0
 10
-11.87111
 20
-247.51532
 30
0.0
 10
-12.40327
 20
-247.7867
 30
0.0
 10
-12.93544
 20
-248.05811
 30
0.0
 10
-12.88602
 20
-250.07252
 30
0.0
 10
-12.8366
 20
-252.08698
 30
0.0
 10
-12.78719
 20
-254.10142
 30
0.0
  0
ENDSEC
  0
SECTION
  2
OBJECTS
  0
DICTIONARY
  5
C
330
0
100
AcDbDictionary
281
     1
  3
ACAD_DETAILVIEWSTYLE
350
91
  3
ACAD_GROUP
350
D
  3
ACAD_LAYOUT
350
1A
  3
ACAD_MATERIAL
350
43
  3
ACAD_MLEADERSTYLE
350
5B
  3
ACAD_MLINESTYLE
350
17
  3
ACAD_PLOTSETTINGS
350
19
  3
ACAD_PLOTSTYLENAME
350
E
  3
ACAD_SCALELIST
350
47
  3
ACAD_SECTIONVIEWSTYLE
350
92
  3
ACAD_TABLESTYLE
350
59
  3
ACAD_VISUALSTYLE
350
2A
  3
ACDB_RECOMPOSE_DATA
350
8E
  3
AcDbVariableDictionary
350
8A
  0
SUN
  5
5D
330
29
100
AcDbSun
 90
        1
290
     0
 63
     7
421
 16777215
 40
1.0
291
     1
 91
  2455826
 92
 54000000
292
     0
 70
     2
 71
   256
280
     1
  0
DICTIONARY
  5
91
102
{ACAD_REACTORS
330
C
102
}
330
C
100
AcDbDictionary
281
     1
  0
DICTIONARY
  5
D
102
{ACAD_REACTORS
330
C
102
}
330
C
100
AcDbDictionary
281
     1
  0
DICTIONARY
  5
1A
102
{ACAD_REACTORS
330
C
102
}
330
C
100
AcDbDictionary
281
     1
  3
Layout1
350
1E
  3
Layout2
350
26
  3
Model
350
22
  0
DICTIONARY
  5
43
102
{ACAD_REACTORS
330
C
102
}
330
C
100
AcDbDictionary
281
     1
  3
ByBlock
350
45
  3
ByLayer
350
44
  3
Global
350
46
  0
DICTIONARY
  5
5B
102
{ACAD_REACTORS
330
C
102
}
330
C
100
AcDbDictionary
281
     1
  3
Standard
350
5C
  0
DICTIONARY
  5
17
102
{ACAD_REACTORS
330
C
102
}
330
C
100
AcDbDictionary
281
     1
  3
Standard
350
18
  0
DICTIONARY
  5
19
102
{ACAD_REACTORS
330
C
102
}
330
C
100
AcDbDictionary
281
     1
  0
ACDBDICTIONARYWDFLT
  5
E
102
{ACAD_REACTORS
330
C
102
}
330
C
100
AcDbDictionary
281
     1
  3
Normal
350
F
100
AcDbDictionaryWithDefault
340
F
  0
DICTIONARY
  5
47
102
{ACAD_REACTORS
330
C
102
}
330
C
100
AcDbDictionary
281
     1
  3
A0
350
48
  3
A1
350
49
  3
A2
350
4A
  3
A3
350
4B
  3
A4
350
4C
  3
A5
350
4D
  3
A6
350
4E
  3
A7
350
4F
  3
A8
350
50
  3
A9
350
51
  3
B1
350
52
  3
B2
350
53
  3
B3
350
54
  3
B4
350
55
  3
B5
350
56
  3
B6
350
57
  3
B7
350
58
  0
DICTIONARY
  5
92
102
{ACAD_REACTORS
330
C
102
}
330
C
100
AcDbDictionary
281
     1
  0
DICTIONARY
  5
59
102
{ACAD_REACTORS
330
C
102
}
330
C
100
AcDbDictionary
281
     1
  3
Standard
350
5A
  0
DICTIONARY
  5
2A
102
{ACAD_REACTORS
330
C
102
}
330
C
100
AcDbDictionary
281
     1
  3
2dWireframe
350
2F
  3
Basic
350
32
  3
Brighten
350
36
  3
ColorChange
350
3A
  3
Conceptual
350
34
  3
Dim
350
35
  3
EdgeColorOff
350
3D
  3
Facepattern
350
39
  3
Flat
350
2B
  3
FlatWithEdges
350
2C
  3
Gouraud
350
2D
  3
GouraudWithEdges
350
2E
  3
Hidden
350
31
  3
JitterOff
350
3B
  3
Linepattern
350
38
  3
OverhangOff
350
3C
  3
Realistic
350
33
  3
Shaded
350
42
  3
Shaded with edges
350
41
  3
Shades of Gray
350
3E
  3
Sketchy
350
3F
  3
Thicken
350
37
  3
Wireframe
350
30
  3
X-Ray
350
40
  0
XRECORD
  5
8E
102
{ACAD_REACTORS
330
C
102
}
330
C
100
AcDbXrecord
280
     1
 90
        1
330
5A
  0
DICTIONARY
  5
8A
102
{ACAD_REACTORS
330
C
102
}
330
C
100
AcDbDictionary
281
     1
  3
CANNOSCALE
350
8B
  3
CMLEADERSTYLE
350
90
  3
CTABLESTYLE
350
8F
  0
LAYOUT
  5
1E
102
{ACAD_REACTORS
330
1A
102
}
330
1A
100
AcDbPlotSettings
  1

  2
none_device
  4

  6

 40
0.0
 41
0.0
 42
0.0
 43
0.0
 44
0.0
 45
0.0
 46
0.0
 47
0.0
 48
0.0
 49
0.0
140
0.0
141
0.0
142
1.0
143
1.0
 70
   688
 72
     0
 73
     0
 74
     5
  7

 75
    16
 76
     0
 77
     2
 78
   300
147
1.0
148
0.0
149
0.0
100
AcDbLayout
  1
Layout1
 70
     1
 71
     1
 10
0.0
 20
0.0
 11
12.0
 21
9.0
 12
0.0
 22
0.0
 32
0.0
 14
1.000000000000000E+20
 24
1.000000000000000E+20
 34
1.000000000000000E+20
 15
-1.000000000000000E+20
 25
-1.000000000000000E+20
 35
-1.000000000000000E+20
146
0.0
 13
0.0
 23
0.0
 33
0.0
 16
1.0
 26
0.0
 36
0.0
 17
0.0
 27
1.0
 37
0.0
 76
     0
330
1B
  0
LAYOUT
  5
26
102
{ACAD_REACTORS
330
1A
102
}
330
1A
100
AcDbPlotSettings
  1

  2
none_device
  4

  6

 40
0.0
 41
0.0
 42
0.0
 43
0.0
 44
0.0
 45
0.0
 46
0.0
 47
0.0
 48
0.0
 49
0.0
140
0.0
141
0.0
142
1.0
143
1.0
 70
   688
 72
     0
 73
     0
 74
     5
  7

 75
    16
 76
     0
 77
     2
 78
   300
147
1.0
148
0.0
149
0.0
100
AcDbLayout
  1
Layout2
 70
     1
 71
     2
 10
0.0
 20
0.0
 11
0.0
 21
0.0
 12
0.0
 22
0.0
 32
0.0
 14
0.0
 24
0.0
 34
0.0
 15
0.0
 25
0.0
 35
0.0
146
0.0
 13
0.0
 23
0.0
 33
0.0
 16
1.0
 26
0.0
 36
0.0
 17
0.0
 27
1.0
 37
0.0
 76
     0
330
23
  0
LAYOUT
  5
22
102
{ACAD_REACTORS
330
1A
102
}
330
1A
100
AcDbPlotSettings
  1

  2
none_device
  4
Letter_(8.50_x_11.00_Inches)
  6

 40
6.35
 41
6.35
 42
6.35000508
 43
6.35000508
 44
215.9
 45
279.4
 46
0.0
 47
0.0
 48
0.0
 49
0.0
140
0.0
141
0.0
142
1.0
143
1.0
 70
  1712
 72
     0
 73
     0
 74
     0
  7

 75
     0
 76
     0
 77
     2
 78
   300
147
1.0
148
0.0
149
0.0
100
AcDbLayout
  1
Model
 70
     1
 71
     0
 10
0.0
 20
0.0
 11
12.0
 21
9.0
 12
0.0
 22
0.0
 32
0.0
 14
-32.49778
 24
-295.04954
 34
0.0
 15
32.49778
 25
-71.19538
 35
0.0
146
0.0
 13
0.0
 23
0.0
 33
0.0
 16
1.0
 26
0.0
 36
0.0
 17
0.0
 27
1.0
 37
0.0
 76
     0
330
1F
331
29
  0
MATERIAL
  5
45
102
{ACAD_REACTORS
330
43
102
}
330
43
100
AcDbMaterial
  1
ByBlock
 72
     1
 94
      127
  0
MATERIAL
  5
44
102
{ACAD_REACTORS
330
43
102
}
330
43
100
AcDbMaterial
  1
ByLayer
 72
     1
 94
      127
  0
MATERIAL
  5
46
102
{ACAD_REACTORS
330
43
102
}
330
43
100
AcDbMaterial
  1
Global
 72
     1
 94
      127
  0
MLEADERSTYLE
  5
5C
102
{ACAD_REACTORS
330
5B
102
}
330
5B
100
AcDbMLeaderStyle
179
     2
170
     2
171
     1
172
     0
 90
        2
 40
0.0
 41
0.0
173
     1
 91
-1056964608
340
14
 92
       -2
290
     1
 42
0.09
291
     1
 43
0.36
  3
Standard
341
0
 44
0.18
300

342
11
174
     1
178
     6
175
     1
176
     0
 93
-1056964608
 45
0.18
292
     0
297
     0
 46
0.18
343
0
 94
-1056964608
 47
1.0
 49
1.0
140
1.0
293
     1
141
0.0
294
     1
177
     0
142
1.0
295
     0
296
     0
143
0.125
271
     0
272
     9
273
     9
298
     0
  0
MLINESTYLE
  5
18
102
{ACAD_REACTORS
330
17
102
}
330
17
100
AcDbMlineStyle
  2
Standard
 70
     0
  3

 62
   256
 51
90.0
 52
90.0
 71
     2
 49
0.5
 62
   256
  6
BYLAYER
 49
-0.5
 62
   256
  6
BYLAYER
  0
ACDBPLACEHOLDER
  5
F
102
{ACAD_REACTORS
330
E
102
}
330
E
  0
SCALE
  5
48
102
{ACAD_REACTORS
330
47
102
}
330
47
100
AcDbScale
 70
     0
300
1:1
140
1.0
141
1.0
290
     1
  0
SCALE
  5
49
102
{ACAD_REACTORS
330
47
102
}
330
47
100
AcDbScale
 70
     0
300
1/128" = 1'-0"
140
0.0078125
141
12.0
290
     0
  0
SCALE
  5
4A
102
{ACAD_REACTORS
330
47
102
}
330
47
100
AcDbScale
 70
     0
300
1/64" = 1'-0"
140
0.015625
141
12.0
290
     0
  0
SCALE
  5
4B
102
{ACAD_REACTORS
330
47
102
}
330
47
100
AcDbScale
 70
     0
300
1/32" = 1'-0"
140
0.03125
141
12.0
290
     0
  0
SCALE
  5
4C
102
{ACAD_REACTORS
330
47
102
}
330
47
100
AcDbScale
 70
     0
300
1/16" = 1'-0"
140
0.0625
141
12.0
290
     0
  0
SCALE
  5
4D
102
{ACAD_REACTORS
330
47
102
}
330
47
100
AcDbScale
 70
     0
300
3/32" = 1'-0"
140
0.09375
141
12.0
290
     0
  0
SCALE
  5
4E
102
{ACAD_REACTORS
330
47
102
}
330
47
100
AcDbScale
 70
     0
300
1/8" = 1'-0"
140
0.125
141
12.0
290
     0
  0
SCALE
  5
4F
102
{ACAD_REACTORS
330
47
102
}
330
47
100
AcDbScale
 70
     0
300
3/16" = 1'-0"
140
0.1875
141
12.0
290
     0
  0
SCALE
  5
50
102
{ACAD_REACTORS
330
47
102
}
330
47
100
AcDbScale
 70
     0
300
1/4" = 1'-0"
140
0.25
141
12.0
290
     0
  0
SCALE
  5
51
102
{ACAD_REACTORS
330
47
102
}
330
47
100
AcDbScale
 70
     0
300
3/8" = 1'-0"
140
0.375
141
12.0
290
     0
  0
SCALE
  5
52
102
{ACAD_REACTORS
330
47
102
}
330
47
100
AcDbScale
 70
     0
300
1/2" = 1'-0"
140
0.5
141
12.0
290
     0
  0
SCALE
  5
53
102
{ACAD_REACTORS
330
47
102
}
330
47
100
AcDbScale
 70
     0
300
3/4" = 1'-0"
140
0.75
141
12.0
290
     0
  0
SCALE
  5
54
102
{ACAD_REACTORS
330
47
102
}
330
47
100
AcDbScale
 70
     0
300
1" = 1'-0"
140
1.0
141
12.0
290
     0
  0
SCALE
  5
55
102
{ACAD_REACTORS
330
47
102
}
330
47
100
AcDbScale
 70
     0
300
1-1/2" = 1'-0"
140
1.5
141
12.0
290
     0
  0
SCALE
  5
56
102
{ACAD_REACTORS
330
47
102
}
330
47
100
AcDbScale
 70
     0
300
3" = 1'-0"
140
3.0
141
12.0
290
     0
  0
SCALE
  5
57
102
{ACAD_REACTORS
330
47
102
}
330
47
100
AcDbScale
 70
     0
300
6" = 1'-0"
140
6.0
141
12.0
290
     0
  0
SCALE
  5
58
102
{ACAD_REACTORS
330
47
102
}
330
47
100
AcDbScale
 70
     0
300
1'-0" = 1'-0"
140
12.0
141
12.0
290
     0
  0
TABLESTYLE
  5
5A
102
{ACAD_REACTORS
330
59
102
}
102
{ACAD_XDICTIONARY
360
8C
102
}
330
59
100
AcDbTableStyle
  3
Standard
 70
     0
 71
     0
 40
0.06
 41
0.06
280
     0
281
     0
  7
Standard
140
0.18
170
     2
 62
     0
 63
   257
283
     0
 90
        4
 91
        0
  1

274
    -2
284
     1
 64
     0
275
    -2
285
     1
 65
     0
276
    -2
286
     1
 66
     0
277
    -2
287
     1
 67
     0
278
    -2
288
     1
 68
     0
279
    -2
289
     1
 69
     0
  7
Standard
140
0.25
170
     5
 62
     0
 63
   257
283
     0
 90
        4
 91
        0
  1

274
    -2
284
     1
 64
     0
275
    -2
285
     1
 65
     0
276
    -2
286
     1
 66
     0
277
    -2
287
     1
 67
     0
278
    -2
288
     1
 68
     0
279
    -2
289
     1
 69
     0
  7
Standard
140
0.18
170
     5
 62
     0
 63
   257
283
     0
 90
        4
 91
        0
  1

274
    -2
284
     1
 64
     0
275
    -2
285
     1
 65
     0
276
    -2
286
     1
 66
     0
277
    -2
287
     1
 67
     0
278
    -2
288
     1
 68
     0
279
    -2
289
     1
 69
     0
  0
VISUALSTYLE
  5
2F
102
{ACAD_REACTORS
330
2A
102
}
330
2A
100
AcDbVisualStyle
  2
2dWireframe
 70
     4
177
     3
291
     0
 70
    58
 90
        0
176
     1
 90
        2
176
     1
 90
        0
176
     1
 90
        0
176
     1
 40
0.6
176
     1
 40
30.0
176
     1
 62
     7
420
 16777215
176
     1
 90
        1
176
     1
 90
        4
176
     1
 62
     7
176
     1
 62
   257
176
     1
 90
        1
176
     1
 90
        1
176
     1
 40
1.0
176
     1
 90
        0
176
     1
 62
   257
176
     1
 40
1.0
176
     1
 90
        1
176
     1
 90
        6
176
     1
 90
        2
176
     1
 62
     7
176
     1
 90
        5
176
     1
 90
        0
176
     1
 90
        0
176
     1
290
     0
176
     1
 90
        1
176
     1
 40
0.0
176
     1
 90
        0
176
     1
290
     1
176
     1
290
     1
176
     1
290
     0
176
     1
290
     0
176
     1
290
     0
176
     1
290
     0
176
     1
290
     0
176
     1
290
     0
176
     1
290
     0
176
     1
 90
       50
176
     1
 40
0.0
176
     1
 40
1.0
176
     1
 90
        0
176
     1
 62
    18
420
        0
176
     1
 90
       50
176
     1
 90
        3
176
     1
 62
     5
420
      255
176
     1
290
     0
176
     1
 90
       50
176
     1
 90
       50
176
     1
 90
       50
176
     1
290
     0
176
     1
 90
       50
176
     1
 62
   256
176
     0
 40
1.0
176
     0
 90
        2
176
     1
  1
strokes_ogs.tif
176
     1
290
     0
176
     1
 40
1.0
176
     1
 40
1.0
176
     1
  0
VISUALSTYLE
  5
32
102
{ACAD_REACTORS
330
2A
102
}
330
2A
100
AcDbVisualStyle
  2
Basic
 70
     7
177
     3
291
     1
 70
    58
 90
        1
176
     1
 90
        0
176
     1
 90
        1
176
     1
 90
        0
176
     1
 40
0.6
176
     1
 40
30.0
176
     1
 62
     7
420
 16777215
176
     1
 90
        0
176
     1
 90
        4
176
     1
 62
     7
176
     1
 62
   257
176
     1
 90
        1
176
     1
 90
        1
176
     1
 40
1.0
176
     1
 90
        8
176
     1
 62
     7
176
     1
 40
1.0
176
     1
 90
        1
176
     1
 90
        6
176
     1
 90
        2
176
     1
 62
     7
176
     1
 90
        5
176
     1
 90
        0
176
     1
 90
        0
176
     1
290
     0
176
     1
 90
        1
176
     1
 40
0.0
176
     1
 90
        0
176
     1
290
     0
176
     1
290
     1
176
     1
290
     1
176
     1
290
     0
176
     1
290
     0
176
     1
290
     0
176
     1
290
     0
176
     1
290
     0
176
     1
290
     0
176
     1
 90
       50
176
     1
 40
0.0
176
     1
 40
1.0
176
     1
 90
        0
176
     1
 62
    18
420
        0
176
     1
 90
       50
176
     1
 90
        3
176
     1
 62
     5
420
      255
176
     1
290
     0
176
     1
 90
       50
176
     1
 90
       50
176
     1
 90
       50
176
     1
290
     0
176
     1
 90
       50
176
     1
 62
   256
176
     0
 40
1.0
176
     0
 90
        2
176
     1
  1
strokes_ogs.tif
176
     1
290
     0
176
     1
 40
1.0
176
     1
 40
1.0
176
     1
  0
VISUALSTYLE
  5
36
102
{ACAD_REACTORS
330
2A
102
}
330
2A
100
AcDbVisualStyle
  2
Brighten
 70
    12
177
     3
291
     1
 70
    58
 90
        2
176
     1
 90
        2
176
     1
 90
        0
176
     1
 90
        0
176
     1
 40
0.6
176
     1
 40
30.0
176
     1
 62
     7
420
 16777215
176
     1
 90
        1
176
     1
 90
        4
176
     1
 62
     7
176
     1
 62
   257
176
     1
 90
        1
176
     1
 90
        1
176
     1
 40
1.0
176
     1
 90
        8
176
     1
 62
     7
176
     1
 40
1.0
176
     1
 90
        1
176
     1
 90
        6
176
     1
 90
        2
176
     1
 62
     7
176
     1
 90
        5
176
     1
 90
        0
176
     1
 90
        0
176
     1
290
     0
176
     1
 90
        1
176
     1
 40
50.0
176
     1
 90
        0
176
     1
290
     0
176
     1
290
     1
176
     1
290
     1
176
     1
290
     0
176
     1
290
     0
176
     1
290
     0
176
     1
290
     0
176
     1
290
     0
176
     1
290
     0
176
     1
 90
       50
176
     1
 40
0.0
176
     1
 40
1.0
176
     1
 90
        0
176
     1
 62
    18
420
        0
176
     1
 90
       50
176
     1
 90
        3
176
     1
 62
     5
420
      255
176
     1
290
     0
176
     1
 90
       50
176
     1
 90
       50
176
     1
 90
       50
176
     1
290
     0
176
     1
 90
       50
176
     1
 62
   256
176
     0
 40
1.0
176
     0
 90
        2
176
     1
  1
strokes_ogs.tif
176
     1
290
     0
176
     1
 40
1.0
176
     1
 40
1.0
176
     1
  0
VISUALSTYLE
  5
3A
102
{ACAD_REACTORS
330
2A
102
}
330
2A
100
AcDbVisualStyle
  2
ColorChange
 70
    16
177
     3
291
     1
 70
    58
 90
        2
176
     1
 90
        2
176
     1
 90
        3
176
     1
 90
        0
176
     1
 40
0.6
176
     1
 40
30.0
176
     1
 62
     8
420
  8421504
176
     1
 90
        1
176
     1
 90
        4
176
     1
 62
     7
176
     1
 62
   257
176
     1
 90
        1
176
     1
 90
        1
176
     1
 40
1.0
176
     1
 90
        8
176
     1
 62
     8
420
  8421504
176
     1
 40
1.0
176
     1
 90
        1
176
     1
 90
        6
176
     1
 90
        2
176
     1
 62
     7
176
     1
 90
        5
176
     1
 90
        0
176
     1
 90
        0
176
     1
290
     0
176
     1
 90
        1
176
     1
 40
0.0
176
     1
 90
        0
176
     1
290
     0
176
     1
290
     1
176
     1
290
     1
176
     1
290
     0
176
     1
290
     0
176
     1
290
     0
176
     1
290
     0
176
     1
290
     0
176
     1
290
     0
176
     1
 90
       50
176
     1
 40
0.0
176
     1
 40
1.0
176
     1
 90
        0
176
     1
 62
    18
420
        0
176
     1
 90
       50
176
     1
 90
        3
176
     1
 62
     5
420
      255
176
     1
290
     0
176
     1
 90
       50
176
     1
 90
       50
176
     1
 90
       50
176
     1
290
     0
176
     1
 90
       50
176
     1
 62
   256
176
     0
 40
1.0
176
     0
 90
        2
176
     1
  1
strokes_ogs.tif
176
     1
290
     0
176
     1
 40
1.0
176
     1
 40
1.0
176
     1
  0
VISUALSTYLE
  5
34
102
{ACAD_REACTORS
330
2A
102
}
330
2A
100
AcDbVisualStyle
  2
Conceptual
 70
     9
177
     3
291
     0
 70
    58
 90
        3
176
     1
 90
        2
176
     1
 90
        0
176
     1
 90
        0
176
     1
 40
0.6
176
     1
 40
30.0
176
     1
 62
     7
420
 16777215
176
     1
 90
        2
176
     1
 90
        2
176
     1
 62
     7
176
     1
 62
   257
176
     1
 90
        1
176
     1
 90
        1
176
     1
 40
179.0
176
     1
 90
        8
176
     1
 62
     7
176
     1
 40
1.0
176
     1
 90
        1
176
     1
 90
        6
176
     1
 90
        2
176
     1
 62
     7
176
     1
 90
        3
176
     1
 90
        0
176
     1
 90
        0
176
     1
290
     0
176
     1
 90
        1
176
     1
 40
0.0
176
     1
 90
        0
176
     1
290
     0
176
     1
290
     1
176
     1
290
     1
176
     1
290
     0
176
     1
290
     0
176
     1
290
     0
176
     1
290
     0
176
     1
290
     0
176
     1
290
     0
176
     1
 90
       50
176
     1
 40
0.0
176
     1
 40
1.0
176
     1
 90
        0
176
     1
 62
    18
420
        0
176
     1
 90
       50
176
     1
 90
        3
176
     1
 62
     5
420
      255
176
     1
290
     0
176
     1
 90
       50
176
     1
 90
       50
176
     1
 90
       50
176
     1
290
     0
176
     1
 90
       50
176
     1
 62
   256
176
     0
 40
1.0
176
     0
 90
        2
176
     1
  1
strokes_ogs.tif
176
     1
290
     0
176
     1
 40
1.0
176
     1
 40
1.0
176
     1
  0
VISUALSTYLE
  5
35
102
{ACAD_REACTORS
330
2A
102
}
330
2A
100
AcDbVisualStyle
  2
Dim
 70
    11
177
     3
291
     1
 70
    58
 90
        2
176
     1
 90
        2
176
     1
 90
        0
176
     1
 90
        0
176
     1
 40
0.6
176
     1
 40
30.0
176
     1
 62
     7
420
 16777215
176
     1
 90
        1
176
     1
 90
        4
176
     1
 62
     7
176
     1
 62
   257
176
     1
 90
        1
176
     1
 90
        1
176
     1
 40
1.0
176
     1
 90
        8
176
     1
 62
     7
176
     1
 40
1.0
176
     1
 90
        1
176
     1
 90
        6
176
     1
 90
        2
176
     1
 62
     7
176
     1
 90
        5
176
     1
 90
        0
176
     1
 90
        0
176
     1
290
     0
176
     1
 90
        1
176
     1
 40
-50.0
176
     1
 90
        0
176
     1
290
     0
176
     1
290
     1
176
     1
290
     1
176
     1
290
     0
176
     1
290
     0
176
     1
290
     0
176
     1
290
     0
176
     1
290
     0
176
     1
290
     0
176
     1
 90
       50
176
     1
 40
0.0
176
     1
 40
1.0
176
     1
 90
        0
176
     1
 62
    18
420
        0
176
     1
 90
       50
176
     1
 90
        3
176
     1
 62
     5
420
      255
176
     1
290
     0
176
     1
 90
       50
176
     1
 90
       50
176
     1
 90
       50
176
     1
290
     0
176
     1
 90
       50
176
     1
 62
   256
176
     0
 40
1.0
176
     0
 90
        2
176
     1
  1
strokes_ogs.tif
176
     1
290
     0
176
     1
 40
1.0
176
     1
 40
1.0
176
     1
  0
VISUALSTYLE
  5
3D
102
{ACAD_REACTORS
330
2A
102
}
330
2A
100
AcDbVisualStyle
  2
EdgeColorOff
 70
    22
177
     3
291
     1
 70
    58
 90
        2
176
     0
 90
        2
176
     0
 90
        0
176
     0
 90
        0
176
     0
 40
0.6
176
     0
 40
30.0
176
     0
 62
     7
420
 16777215
176
     0
 90
        1
176
     0
 90
        4
176
     0
 62
     7
176
     0
 62
   257
176
     0
 90
        1
176
     0
 90
        1
176
     0
 40
1.0
176
     0
 90
        8
176
     2
 62
     7
176
     0
 40
1.0
176
     0
 90
        1
176
     0
 90
        6
176
     0
 90
        2
176
     0
 62
     7
176
     0
 90
        5
176
     0
 90
        0
176
     0
 90
        0
176
     0
290
     0
176
     0
 90
        1
176
     0
 40
0.0
176
     0
 90
        0
176
     0
290
     0
176
     0
290
     1
176
     0
290
     1
176
     0
290
     0
176
     0
290
     0
176
     0
290
     0
176
     0
290
     0
176
     0
290
     0
176
     0
290
     0
176
     0
 90
       50
176
     0
 40
0.0
176
     0
 40
1.0
176
     0
 90
        0
176
     0
 62
    18
420
        0
176
     0
 90
       50
176
     0
 90
        3
176
     0
 62
     5
420
      255
176
     0
290
     0
176
     0
 90
       50
176
     0
 90
       50
176
     0
 90
       50
176
     0
290
     0
176
     0
 90
       50
176
     0
 62
   256
176
     0
 40
1.0
176
     0
 90
        2
176
     0
  1
strokes_ogs.tif
176
     0
290
     0
176
     0
 40
1.0
176
     0
 40
1.0
176
     0
  0
VISUALSTYLE
  5
39
102
{ACAD_REACTORS
330
2A
102
}
330
2A
100
AcDbVisualStyle
  2
Facepattern
 70
    15
177
     3
291
     1
 70
    58
 90
        2
176
     1
 90
        2
176
     1
 90
        0
176
     1
 90
        0
176
     1
 40
0.6
176
     1
 40
30.0
176
     1
 62
     7
420
 16777215
176
     1
 90
        1
176
     1
 90
        4
176
     1
 62
     7
176
     1
 62
   257
176
     1
 90
        1
176
     1
 90
        1
176
     1
 40
1.0
176
     1
 90
        8
176
     1
 62
     7
176
     1
 40
1.0
176
     1
 90
        1
176
     1
 90
        6
176
     1
 90
        2
176
     1
 62
     7
176
     1
 90
        5
176
     1
 90
        0
176
     1
 90
        0
176
     1
290
     0
176
     1
 90
        1
176
     1
 40
0.0
176
     1
 90
        0
176
     1
290
     0
176
     1
290
     1
176
     1
290
     1
176
     1
290
     0
176
     1
290
     0
176
     1
290
     0
176
     1
290
     0
176
     1
290
     0
176
     1
290
     0
176
     1
 90
       50
176
     1
 40
0.0
176
     1
 40
1.0
176
     1
 90
        0
176
     1
 62
    18
420
        0
176
     1
 90
       50
176
     1
 90
        3
176
     1
 62
     5
420
      255
176
     1
290
     0
176
     1
 90
       50
176
     1
 90
       50
176
     1
 90
       50
176
     1
290
     0
176
     1
 90
       50
176
     1
 62
   256
176
     0
 40
1.0
176
     0
 90
        2
176
     1
  1
strokes_ogs.tif
176
     1
290
     0
176
     1
 40
1.0
176
     1
 40
1.0
176
     1
  0
VISUALSTYLE
  5
2B
102
{ACAD_REACTORS
330
2A
102
}
330
2A
100
AcDbVisualStyle
  2
Flat
 70
     0
177
     3
291
     1
 70
    58
 90
        2
176
     1
 90
        1
176
     1
 90
        1
176
     1
 90
        2
176
     1
 40
0.6
176
     1
 40
30.0
176
     1
 62
     7
420
 16777215
176
     1
 90
        0
176
     1
 90
        0
176
     1
 62
     7
176
     1
 62
   257
176
     1
 90
        1
176
     1
 90
        1
176
     1
 40
1.0
176
     1
 90
        8
176
     1
 62
     7
176
     1
 40
1.0
176
     1
 90
        1
176
     1
 90
        6
176
     1
 90
        2
176
     1
 62
     7
176
     1
 90
        5
176
     1
 90
        0
176
     1
 90
        0
176
     1
290
     0
176
     1
 90
       13
176
     1
 40
0.0
176
     1
 90
        0
176
     1
290
     0
176
     1
290
     1
176
     1
290
     1
176
     1
290
     0
176
     1
290
     0
176
     1
290
     0
176
     1
290
     0
176
     1
290
     0
176
     1
290
     0
176
     1
 90
       50
176
     1
 40
0.0
176
     1
 40
1.0
176
     1
 90
        0
176
     1
 62
    18
420
        0
176
     1
 90
       50
176
     1
 90
        3
176
     1
 62
     5
420
      255
176
     1
290
     0
176
     1
 90
       50
176
     1
 90
       50
176
     1
 90
       50
176
     1
290
     0
176
     1
 90
       50
176
     1
 62
   256
176
     0
 40
1.0
176
     0
 90
        2
176
     1
  1
strokes_ogs.tif
176
     1
290
     0
176
     1
 40
1.0
176
     1
 40
1.0
176
     1
  0
VISUALSTYLE
  5
2C
102
{ACAD_REACTORS
330
2A
102
}
330
2A
100
AcDbVisualStyle
  2
FlatWithEdges
 70
     1
177
     3
291
     1
 70
    58
 90
        2
176
     1
 90
        1
176
     1
 90
        1
176
     1
 90
        2
176
     1
 40
0.6
176
     1
 40
30.0
176
     1
 62
     7
420
 16777215
176
     1
 90
        1
176
     1
 90
        0
176
     1
 62
     7
176
     1
 62
   257
176
     1
 90
        1
176
     1
 90
        1
176
     1
 40
1.0
176
     1
 90
        0
176
     1
 62
   257
176
     1
 40
1.0
176
     1
 90
        1
176
     1
 90
        6
176
     1
 90
        2
176
     1
 62
     7
176
     1
 90
        5
176
     1
 90
        0
176
     1
 90
        0
176
     1
290
     0
176
     1
 90
       13
176
     1
 40
0.0
176
     1
 90
        0
176
     1
290
     0
176
     1
290
     1
176
     1
290
     1
176
     1
290
     0
176
     1
290
     0
176
     1
290
     0
176
     1
290
     0
176
     1
290
     0
176
     1
290
     0
176
     1
 90
       50
176
     1
 40
0.0
176
     1
 40
1.0
176
     1
 90
        0
176
     1
 62
    18
420
        0
176
     1
 90
       50
176
     1
 90
        3
176
     1
 62
     5
420
      255
176
     1
290
     0
176
     1
 90
       50
176
     1
 90
       50
176
     1
 90
       50
176
     1
290
     0
176
     1
 90
       50
176
     1
 62
   256
176
     0
 40
1.0
176
     0
 90
        2
176
     1
  1
strokes_ogs.tif
176
     1
290
     0
176
     1
 40
1.0
176
     1
 40
1.0
176
     1
  0
VISUALSTYLE
  5
2D
102
{ACAD_REACTORS
330
2A
102
}
330
2A
100
AcDbVisualStyle
  2
Gouraud
 70
     2
177
     3
291
     1
 70
    58
 90
        2
176
     1
 90
        2
176
     1
 90
        1
176
     1
 90
        2
176
     1
 40
0.6
176
     1
 40
30.0
176
     1
 62
     7
420
 16777215
176
     1
 90
        0
176
     1
 90
        0
176
     1
 62
     7
176
     1
 62
   257
176
     1
 90
        1
176
     1
 90
        1
176
     1
 40
1.0
176
     1
 90
        0
176
     1
 62
     7
176
     1
 40
1.0
176
     1
 90
        1
176
     1
 90
        6
176
     1
 90
        2
176
     1
 62
     7
176
     1
 90
        5
176
     1
 90
        0
176
     1
 90
        0
176
     1
290
     0
176
     1
 90
       13
176
     1
 40
0.0
176
     1
 90
        0
176
     1
290
     0
176
     1
290
     1
176
     1
290
     1
176
     1
290
     0
176
     1
290
     0
176
     1
290
     0
176
     1
290
     0
176
     1
290
     0
176
     1
290
     0
176
     1
 90
       50
176
     1
 40
0.0
176
     1
 40
1.0
176
     1
 90
        0
176
     1
 62
    18
420
        0
176
     1
 90
       50
176
     1
 90
        3
176
     1
 62
     5
420
      255
176
     1
290
     0
176
     1
 90
       50
176
     1
 90
       50
176
     1
 90
       50
176
     1
290
     0
176
     1
 90
       50
176
     1
 62
   256
176
     0
 40
1.0
176
     0
 90
        2
176
     1
  1
strokes_ogs.tif
176
     1
290
     0
176
     1
 40
1.0
176
     1
 40
1.0
176
     1
  0
VISUALSTYLE
  5
2E
102
{ACAD_REACTORS
330
2A
102
}
330
2A
100
AcDbVisualStyle
  2
GouraudWithEdges
 70
     3
177
     3
291
     1
 70
    58
 90
        2
176
     1
 90
        2
176
     1
 90
        1
176
     1
 90
        2
176
     1
 40
0.6
176
     1
 40
30.0
176
     1
 62
     7
420
 16777215
176
     1
 90
        1
176
     1
 90
        0
176
     1
 62
     7
176
     1
 62
   257
176
     1
 90
        1
176
     1
 90
        1
176
     1
 40
1.0
176
     1
 90
        0
176
     1
 62
   257
176
     1
 40
1.0
176
     1
 90
        1
176
     1
 90
        6
176
     1
 90
        2
176
     1
 62
     7
176
     1
 90
        5
176
     1
 90
        0
176
     1
 90
        0
176
     1
290
     0
176
     1
 90
       13
176
     1
 40
0.0
176
     1
 90
        0
176
     1
290
     0
176
     1
290
     1
176
     1
290
     1
176
     1
290
     0
176
     1
290
     0
176
     1
290
     0
176
     1
290
     0
176
     1
290
     0
176
     1
290
     0
176
     1
 90
       50
176
     1
 40
0.0
176
     1
 40
1.0
176
     1
 90
        0
176
     1
 62
    18
420
        0
176
     1
 90
       50
176
     1
 90
        3
176
     1
 62
     5
420
      255
176
     1
290
     0
176
     1
 90
       50
176
     1
 90
       50
176
     1
 90
       50
176
     1
290
     0
176
     1
 90
       50
176
     1
 62
   256
176
     0
 40
1.0
176
     0
 90
        2
176
     1
  1
strokes_ogs.tif
176
     1
290
     0
176
     1
 40
1.0
176
     1
 40
1.0
176
     1
  0
VISUALSTYLE
  5
31
102
{ACAD_REACTORS
330
2A
102
}
330
2A
100
AcDbVisualStyle
  2
Hidden
 70
     6
177
     3
291
     0
 70
    58
 90
        1
176
     1
 90
        2
176
     1
 90
        2
176
     1
 90
        0
176
     1
 40
0.6
176
     1
 40
30.0
176
     1
 62
     7
420
 16777215
176
     1
 90
        2
176
     1
 90
        2
176
     1
 62
     7
176
     1
 62
   257
176
     1
 90
        2
176
     1
 90
        1
176
     1
 40
40.0
176
     1
 90
        0
176
     1
 62
   257
176
     1
 40
1.0
176
     1
 90
        1
176
     1
 90
        6
176
     1
 90
        2
176
     1
 62
     7
176
     1
 90
        3
176
     1
 90
        0
176
     1
 90
        0
176
     1
290
     0
176
     1
 90
        1
176
     1
 40
0.0
176
     1
 90
        0
176
     1
290
     0
176
     1
290
     1
176
     1
290
     1
176
     1
290
     0
176
     1
290
     0
176
     1
290
     0
176
     1
290
     0
176
     1
290
     0
176
     1
290
     0
176
     1
 90
       50
176
     1
 40
0.0
176
     1
 40
1.0
176
     1
 90
        0
176
     1
 62
    18
420
        0
176
     1
 90
       50
176
     1
 90
        3
176
     1
 62
     5
420
      255
176
     1
290
     0
176
     1
 90
       50
176
     1
 90
       50
176
     1
 90
       50
176
     1
290
     0
176
     1
 90
       50
176
     1
 62
   256
176
     0
 40
1.0
176
     0
 90
        2
176
     1
  1
strokes_ogs.tif
176
     1
290
     0
176
     1
 40
1.0
176
     1
 40
1.0
176
     1
  0
VISUALSTYLE
  5
3B
102
{ACAD_REACTORS
330
2A
102
}
330
2A
100
AcDbVisualStyle
  2
JitterOff
 70
    20
177
     3
291
     1
 70
    58
 90
        2
176
     0
 90
        2
176
     0
 90
        0
176
     0
 90
        0
176
     0
 40
0.6
176
     0
 40
30.0
176
     0
 62
     7
420
 16777215
176
     0
 90
        1
176
     0
 90
        4
176
     0
 62
     7
176
     0
 62
   257
176
     0
 90
        1
176
     0
 90
        1
176
     0
 40
1.0
176
     0
 90
       10
176
     2
 62
     7
176
     0
 40
1.0
176
     0
 90
        1
176
     0
 90
        6
176
     0
 90
        2
176
     0
 62
     7
176
     0
 90
        5
176
     0
 90
        0
176
     0
 90
        0
176
     0
290
     0
176
     0
 90
        1
176
     0
 40
0.0
176
     0
 90
        0
176
     0
290
     0
176
     0
290
     1
176
     0
290
     1
176
     0
290
     0
176
     0
290
     0
176
     0
290
     0
176
     0
290
     0
176
     0
290
     0
176
     0
290
     0
176
     0
 90
       50
176
     0
 40
0.0
176
     0
 40
1.0
176
     0
 90
        0
176
     0
 62
    18
420
        0
176
     0
 90
       50
176
     0
 90
        3
176
     0
 62
     5
420
      255
176
     0
290
     0
176
     0
 90
       50
176
     0
 90
       50
176
     0
 90
       50
176
     0
290
     0
176
     0
 90
       50
176
     0
 62
   256
176
     0
 40
1.0
176
     0
 90
        2
176
     0
  1
strokes_ogs.tif
176
     0
290
     0
176
     0
 40
1.0
176
     0
 40
1.0
176
     0
  0
VISUALSTYLE
  5
38
102
{ACAD_REACTORS
330
2A
102
}
330
2A
100
AcDbVisualStyle
  2
Linepattern
 70
    14
177
     3
291
     1
 70
    58
 90
        2
176
     1
 90
        2
176
     1
 90
        0
176
     1
 90
        0
176
     1
 40
0.6
176
     1
 40
30.0
176
     1
 62
     7
420
 16777215
176
     1
 90
        1
176
     1
 90
        4
176
     1
 62
     7
176
     1
 62
   257
176
     1
 90
        7
176
     1
 90
        7
176
     1
 40
1.0
176
     1
 90
        8
176
     1
 62
     7
176
     1
 40
1.0
176
     1
 90
        1
176
     1
 90
        6
176
     1
 90
        2
176
     1
 62
     7
176
     1
 90
        5
176
     1
 90
        0
176
     1
 90
        0
176
     1
290
     0
176
     1
 90
        1
176
     1
 40
0.0
176
     1
 90
        0
176
     1
290
     0
176
     1
290
     1
176
     1
290
     1
176
     1
290
     0
176
     1
290
     0
176
     1
290
     0
176
     1
290
     0
176
     1
290
     0
176
     1
290
     0
176
     1
 90
       50
176
     1
 40
0.0
176
     1
 40
1.0
176
     1
 90
        0
176
     1
 62
    18
420
        0
176
     1
 90
       50
176
     1
 90
        3
176
     1
 62
     5
420
      255
176
     1
290
     0
176
     1
 90
       50
176
     1
 90
       50
176
     1
 90
       50
176
     1
290
     0
176
     1
 90
       50
176
     1
 62
   256
176
     0
 40
1.0
176
     0
 90
        2
176
     1
  1
strokes_ogs.tif
176
     1
290
     0
176
     1
 40
1.0
176
     1
 40
1.0
176
     1
  0
VISUALSTYLE
  5
3C
102
{ACAD_REACTORS
330
2A
102
}
330
2A
100
AcDbVisualStyle
  2
OverhangOff
 70
    21
177
     3
291
     1
 70
    58
 90
        2
176
     0
 90
        2
176
     0
 90
        0
176
     0
 90
        0
176
     0
 40
0.6
176
     0
 40
30.0
176
     0
 62
     7
420
 16777215
176
     0
 90
        1
176
     0
 90
        4
176
     0
 62
     7
176
     0
 62
   257
176
     0
 90
        1
176
     0
 90
        1
176
     0
 40
1.0
176
     0
 90
        9
176
     2
 62
     7
176
     0
 40
1.0
176
     0
 90
        1
176
     0
 90
        6
176
     0
 90
        2
176
     0
 62
     7
176
     0
 90
        5
176
     0
 90
        0
176
     0
 90
        0
176
     0
290
     0
176
     0
 90
        1
176
     0
 40
0.0
176
     0
 90
        0
176
     0
290
     0
176
     0
290
     1
176
     0
290
     1
176
     0
290
     0
176
     0
290
     0
176
     0
290
     0
176
     0
290
     0
176
     0
290
     0
176
     0
290
     0
176
     0
 90
       50
176
     0
 40
0.0
176
     0
 40
1.0
176
     0
 90
        0
176
     0
 62
    18
420
        0
176
     0
 90
       50
176
     0
 90
        3
176
     0
 62
     5
420
      255
176
     0
290
     0
176
     0
 90
       50
176
     0
 90
       50
176
     0
 90
       50
176
     0
290
     0
176
     0
 90
       50
176
     0
 62
   256
176
     0
 40
1.0
176
     0
 90
        2
176
     0
  1
strokes_ogs.tif
176
     0
290
     0
176
     0
 40
1.0
176
     0
 40
1.0
176
     0
  0
VISUALSTYLE
  5
33
102
{ACAD_REACTORS
330
2A
102
}
330
2A
100
AcDbVisualStyle
  2
Realistic
 70
     8
177
     3
291
     0
 70
    58
 90
        2
176
     1
 90
        3
176
     1
 90
        0
176
     1
 90
        2
176
     1
 40
0.6
176
     1
 40
30.0
176
     1
 62
     7
420
 16777215
176
     1
 90
        0
176
     1
 90
        0
176
     1
 62
     7
176
     1
 62
   257
176
     1
 90
        1
176
     1
 90
        1
176
     1
 40
1.0
176
     1
 90
        8
176
     1
 62
   257
176
     1
 40
1.0
176
     1
 90
        1
176
     1
 90
        6
176
     1
 90
        2
176
     1
 62
     7
176
     1
 90
        3
176
     1
 90
        0
176
     1
 90
        0
176
     1
290
     0
176
     1
 90
       13
176
     1
 40
0.0
176
     1
 90
        0
176
     1
290
     0
176
     1
290
     1
176
     1
290
     1
176
     1
290
     0
176
     1
290
     0
176
     1
290
     0
176
     1
290
     0
176
     1
290
     0
176
     1
290
     0
176
     1
 90
       50
176
     1
 40
0.0
176
     1
 40
1.0
176
     1
 90
        0
176
     1
 62
    18
420
        0
176
     1
 90
       50
176
     1
 90
        3
176
     1
 62
     5
420
      255
176
     1
290
     0
176
     1
 90
       50
176
     1
 90
       50
176
     1
 90
       50
176
     1
290
     0
176
     1
 90
       50
176
     1
 62
   256
176
     0
 40
1.0
176
     0
 90
        2
176
     1
  1
strokes_ogs.tif
176
     1
290
     0
176
     1
 40
1.0
176
     1
 40
1.0
176
     1
  0
VISUALSTYLE
  5
42
102
{ACAD_REACTORS
330
2A
102
}
330
2A
100
AcDbVisualStyle
  2
Shaded
 70
    27
177
     3
291
     0
 70
    58
 90
        2
176
     1
 90
        2
176
     1
 90
        1
176
     1
 90
        2
176
     1
 40
0.6
176
     1
 40
30.0
176
     1
 62
     7
420
 16777215
176
     1
 90
        0
176
     1
 90
        4
176
     1
 62
     7
176
     1
 62
   257
176
     1
 90
        1
176
     1
 90
        1
176
     1
 40
1.0
176
     1
 90
        8
176
     1
 62
   257
176
     1
 40
1.0
176
     1
 90
        1
176
     1
 90
        6
176
     1
 90
        2
176
     1
 62
     8
420
  7895160
176
     1
 90
        3
176
     1
 90
        0
176
     1
 90
        0
176
     1
290
     0
176
     1
 90
        5
176
     1
 40
0.0
176
     1
 90
        0
176
     1
290
     0
176
     1
290
     1
176
     1
290
     1
176
     1
290
     0
176
     1
290
     0
176
     1
290
     0
176
     1
290
     0
176
     1
290
     0
176
     1
290
     0
176
     1
 90
       50
176
     1
 40
0.0
176
     1
 40
1.0
176
     1
 90
        0
176
     1
 62
    18
420
        0
176
     1
 90
       50
176
     1
 90
        3
176
     1
 62
     5
420
      255
176
     1
290
     0
176
     1
 90
       50
176
     1
 90
       50
176
     1
 90
       50
176
     1
290
     0
176
     1
 90
       50
176
     1
 62
   256
176
     0
 40
1.0
176
     0
 90
        2
176
     1
  1
strokes_ogs.tif
176
     1
290
     0
176
     1
 40
1.0
176
     1
 40
1.0
176
     1
  0
VISUALSTYLE
  5
41
102
{ACAD_REACTORS
330
2A
102
}
330
2A
100
AcDbVisualStyle
  2
Shaded with edges
 70
    26
177
     3
291
     0
 70
    58
 90
        2
176
     1
 90
        2
176
     1
 90
        1
176
     1
 90
        2
176
     1
 40
0.6
176
     1
 40
30.0
176
     1
 62
     7
420
 16777215
176
     1
 90
        1
176
     1
 90
       10
176
     1
 62
     7
176
     1
 62
   257
176
     1
 90
        2
176
     1
 90
        1
176
     1
 40
1.0
176
     1
 90
        8
176
     1
 62
   257
176
     1
 40
1.0
176
     1
 90
        1
176
     1
 90
        6
176
     1
 90
        2
176
     1
 62
     7
176
     1
 90
        3
176
     1
 90
        0
176
     1
 90
        0
176
     1
290
     0
176
     1
 90
        5
176
     1
 40
0.0
176
     1
 90
        0
176
     1
290
     0
176
     1
290
     1
176
     1
290
     1
176
     1
290
     0
176
     1
290
     0
176
     1
290
     0
176
     1
290
     0
176
     1
290
     0
176
     1
290
     0
176
     1
 90
       50
176
     1
 40
0.0
176
     1
 40
1.0
176
     1
 90
        0
176
     1
 62
    18
420
        0
176
     1
 90
       50
176
     1
 90
        3
176
     1
 62
     5
420
      255
176
     1
290
     0
176
     1
 90
       50
176
     1
 90
       50
176
     1
 90
       50
176
     1
290
     0
176
     1
 90
       50
176
     1
 62
   256
176
     0
 40
1.0
176
     0
 90
        2
176
     1
  1
strokes_ogs.tif
176
     1
290
     0
176
     1
 40
1.0
176
     1
 40
1.0
176
     1
  0
VISUALSTYLE
  5
3E
102
{ACAD_REACTORS
330
2A
102
}
330
2A
100
AcDbVisualStyle
  2
Shades of Gray
 70
    23
177
     3
291
     0
 70
    58
 90
        2
176
     1
 90
        2
176
     1
 90
        3
176
     1
 90
        0
176
     1
 40
0.6
176
     1
 40
30.0
176
     1
 62
     7
420
 16777215
176
     1
 90
        2
176
     1
 90
        2
176
     1
 62
     7
176
     1
 62
     7
176
     1
 90
        1
176
     1
 90
        1
176
     1
 40
40.0
176
     1
 90
        8
176
     1
 62
     7
176
     1
 40
1.0
176
     1
 90
        1
176
     1
 90
        6
176
     1
 90
        2
176
     1
 62
     7
176
     1
 90
        3
176
     1
 90
        0
176
     1
 90
        0
176
     1
290
     0
176
     1
 90
        1
176
     1
 40
0.0
176
     1
 90
        0
176
     1
290
     0
176
     1
290
     1
176
     1
290
     1
176
     1
290
     0
176
     1
290
     0
176
     1
290
     0
176
     1
290
     0
176
     1
290
     0
176
     1
290
     0
176
     1
 90
       50
176
     1
 40
0.0
176
     1
 40
1.0
176
     1
 90
        0
176
     1
 62
    18
420
        0
176
     1
 90
       50
176
     1
 90
        3
176
     1
 62
     5
420
      255
176
     1
290
     0
176
     1
 90
       50
176
     1
 90
       50
176
     1
 90
       50
176
     1
290
     0
176
     1
 90
       50
176
     1
 62
   256
176
     0
 40
1.0
176
     0
 90
        2
176
     1
  1
strokes_ogs.tif
176
     1
290
     0
176
     1
 40
1.0
176
     1
 40
1.0
176
     1
  0
VISUALSTYLE
  5
3F
102
{ACAD_REACTORS
330
2A
102
}
330
2A
100
AcDbVisualStyle
  2
Sketchy
 70
    24
177
     3
291
     0
 70
    58
 90
        1
176
     1
 90
        2
176
     1
 90
        2
176
     1
 90
        0
176
     1
 40
0.6
176
     1
 40
30.0
176
     1
 62
     7
420
 16777215
176
     1
 90
        2
176
     1
 90
        2
176
     1
 62
     7
176
     1
 62
     7
176
     1
 90
        1
176
     1
 90
        1
176
     1
 40
40.0
176
     1
 90
       11
176
     1
 62
     7
176
     1
 40
1.0
176
     1
 90
        1
176
     1
 90
        6
176
     1
 90
        2
176
     1
 62
     7
176
     1
 90
        6
176
     1
 90
        0
176
     1
 90
        0
176
     1
290
     0
176
     1
 90
        1
176
     1
 40
0.0
176
     1
 90
        0
176
     1
290
     0
176
     1
290
     1
176
     1
290
     1
176
     1
290
     0
176
     1
290
     0
176
     1
290
     0
176
     1
290
     0
176
     1
290
     0
176
     1
290
     0
176
     1
 90
       50
176
     1
 40
0.0
176
     1
 40
1.0
176
     1
 90
        0
176
     1
 62
    18
420
        0
176
     1
 90
       50
176
     1
 90
        3
176
     1
 62
     5
420
      255
176
     1
290
     0
176
     1
 90
       50
176
     1
 90
       50
176
     1
 90
       50
176
     1
290
     0
176
     1
 90
       50
176
     1
 62
   256
176
     0
 40
1.0
176
     0
 90
        2
176
     1
  1
strokes_ogs.tif
176
     1
290
     0
176
     1
 40
1.0
176
     1
 40
1.0
176
     1
  0
VISUALSTYLE
  5
37
102
{ACAD_REACTORS
330
2A
102
}
330
2A
100
AcDbVisualStyle
  2
Thicken
 70
    13
177
     3
291
     1
 70
    58
 90
        2
176
     1
 90
        2
176
     1
 90
        0
176
     1
 90
        0
176
     1
 40
0.6
176
     1
 40
30.0
176
     1
 62
     7
420
 16777215
176
     1
 90
        1
176
     1
 90
        4
176
     1
 62
     7
176
     1
 62
   257
176
     1
 90
        1
176
     1
 90
        1
176
     1
 40
1.0
176
     1
 90
       12
176
     1
 62
     7
176
     1
 40
1.0
176
     1
 90
        1
176
     1
 90
        6
176
     1
 90
        2
176
     1
 62
     7
176
     1
 90
        5
176
     1
 90
        0
176
     1
 90
        0
176
     1
290
     0
176
     1
 90
        1
176
     1
 40
0.0
176
     1
 90
        0
176
     1
290
     0
176
     1
290
     1
176
     1
290
     1
176
     1
290
     0
176
     1
290
     0
176
     1
290
     0
176
     1
290
     0
176
     1
290
     0
176
     1
290
     0
176
     1
 90
       50
176
     1
 40
0.0
176
     1
 40
1.0
176
     1
 90
        0
176
     1
 62
    18
420
        0
176
     1
 90
       50
176
     1
 90
        3
176
     1
 62
     5
420
      255
176
     1
290
     0
176
     1
 90
       50
176
     1
 90
       50
176
     1
 90
       50
176
     1
290
     0
176
     1
 90
       50
176
     1
 62
   256
176
     0
 40
1.0
176
     0
 90
        2
176
     1
  1
strokes_ogs.tif
176
     1
290
     0
176
     1
 40
1.0
176
     1
 40
1.0
176
     1
  0
VISUALSTYLE
  5
30
102
{ACAD_REACTORS
330
2A
102
}
330
2A
100
AcDbVisualStyle
  2
Wireframe
 70
     5
177
     3
291
     0
 70
    58
 90
        0
176
     1
 90
        2
176
     1
 90
        0
176
     1
 90
        0
176
     1
 40
0.6
176
     1
 40
30.0
176
     1
 62
     7
420
 16777215
176
     1
 90
        1
176
     1
 90
        4
176
     1
 62
     7
176
     1
 62
   257
176
     1
 90
        1
176
     1
 90
        1
176
     1
 40
1.0
176
     1
 90
        0
176
     1
 62
   257
176
     1
 40
1.0
176
     1
 90
        1
176
     1
 90
        6
176
     1
 90
        2
176
     1
 62
     7
176
     1
 90
        3
176
     1
 90
        0
176
     1
 90
        0
176
     1
290
     0
176
     1
 90
        1
176
     1
 40
0.0
176
     1
 90
        0
176
     1
290
     0
176
     1
290
     1
176
     1
290
     1
176
     1
290
     0
176
     1
290
     0
176
     1
290
     0
176
     1
290
     0
176
     1
290
     0
176
     1
290
     0
176
     1
 90
       50
176
     1
 40
0.0
176
     1
 40
1.0
176
     1
 90
        0
176
     1
 62
    18
420
        0
176
     1
 90
       50
176
     1
 90
        3
176
     1
 62
     5
420
      255
176
     1
290
     0
176
     1
 90
       50
176
     1
 90
       50
176
     1
 90
       50
176
     1
290
     0
176
     1
 90
       50
176
     1
 62
   256
176
     0
 40
1.0
176
     0
 90
        2
176
     1
  1
strokes_ogs.tif
176
     1
290
     0
176
     1
 40
1.0
176
     1
 40
1.0
176
     1
  0
VISUALSTYLE
  5
40
102
{ACAD_REACTORS
330
2A
102
}
330
2A
100
AcDbVisualStyle
  2
X-Ray
 70
    25
177
     3
291
     0
 70
    58
 90
        2
176
     1
 90
        2
176
     1
 90
        1
176
     1
 90
        1
176
     1
 40
0.5
176
     1
 40
30.0
176
     1
 62
     7
420
 16777215
176
     1
 90
        1
176
     1
 90
        0
176
     1
 62
     7
176
     1
 62
   257
176
     1
 90
        1
176
     1
 90
        1
176
     1
 40
1.0
176
     1
 90
        8
176
     1
 62
     7
176
     1
 40
1.0
176
     1
 90
        1
176
     1
 90
        6
176
     1
 90
        2
176
     1
 62
     7
176
     1
 90
        3
176
     1
 90
        0
176
     1
 90
        0
176
     1
290
     0
176
     1
 90
       13
176
     1
 40
0.0
176
     1
 90
        0
176
     1
290
     0
176
     1
290
     1
176
     1
290
     1
176
     1
290
     0
176
     1
290
     0
176
     1
290
     0
176
     1
290
     0
176
     1
290
     0
176
     1
290
     0
176
     1
 90
       50
176
     1
 40
0.0
176
     1
 40
1.0
176
     1
 90
        0
176
     1
 62
    18
420
        0
176
     1
 90
       50
176
     1
 90
        3
176
     1
 62
     5
420
      255
176
     1
290
     0
176
     1
 90
       50
176
     1
 90
       50
176
     1
 90
       50
176
     1
290
     0
176
     1
 90
       50
176
     1
 62
   256
176
     0
 40
1.0
176
     0
 90
        2
176
     1
  1
strokes_ogs.tif
176
     1
290
     0
176
     1
 40
1.0
176
     1
 40
1.0
176
     1
  0
DICTIONARYVAR
  5
8B
102
{ACAD_REACTORS
330
8A
102
}
330
8A
100
DictionaryVariables
280
     0
  1
1:1
  0
DICTIONARYVAR
  5
90
102
{ACAD_REACTORS
330
8A
102
}
330
8A
100
DictionaryVariables
280
     0
  1
Standard
  0
DICTIONARYVAR
  5
8F
102
{ACAD_REACTORS
330
8A
102
}
330
8A
100
DictionaryVariables
280
     0
  1
Standard
  0
DICTIONARY
  5
8C
330
5A
100
AcDbDictionary
280
     1
281
     1
  3
ACAD_ROUNDTRIP_2008_TABLESTYLE_CELLSTYLEMAP
360
8D
  0
CELLSTYLEMAP
  5
8D
102
{ACAD_REACTORS
330
8C
102
}
330
8C
100
AcDbCellStyleMap
 90
        3
300
CELLSTYLE
  1
TABLEFORMAT_BEGIN
 90
        5
170
     1
 91
        0
 92
    32768
 62
   257
 93
        1
300
CONTENTFORMAT
  1
CONTENTFORMAT_BEGIN
 90
        0
 91
        0
 92
        4
 93
        0
300

 40
0.0
140
1.0
 94
        5
 62
     0
340
11
144
0.25
309
CONTENTFORMAT_END
171
     1
301
MARGIN
  1
CELLMARGIN_BEGIN
 40
0.06
 40
0.06
 40
0.06
 40
0.06
 40
0.06
 40
0.06
309
CELLMARGIN_END
 94
        6
 95
        1
302
GRIDFORMAT
  1
GRIDFORMAT_BEGIN
 90
        0
 91
        1
 62
     0
 92
       -2
340
14
 93
        0
 40
0.045
309
GRIDFORMAT_END
 95
        2
302
GRIDFORMAT
  1
GRIDFORMAT_BEGIN
 90
        0
 91
        1
 62
     0
 92
       -2
340
14
 93
        0
 40
0.045
309
GRIDFORMAT_END
 95
        4
302
GRIDFORMAT
  1
GRIDFORMAT_BEGIN
 90
        0
 91
        1
 62
     0
 92
       -2
340
14
 93
        0
 40
0.045
309
GRIDFORMAT_END
 95
        8
302
GRIDFORMAT
  1
GRIDFORMAT_BEGIN
 90
        0
 91
        1
 62
     0
 92
       -2
340
14
 93
        0
 40
0.045
309
GRIDFORMAT_END
 95
       16
302
GRIDFORMAT
  1
GRIDFORMAT_BEGIN
 90
        0
 91
        1
 62
     0
 92
       -2
340
14
 93
        0
 40
0.045
309
GRIDFORMAT_END
 95
       32
302
GRIDFORMAT
  1
GRIDFORMAT_BEGIN
 90
        0
 91
        1
 62
     0
 92
       -2
340
14
 93
        0
 40
0.045
309
GRIDFORMAT_END
309
TABLEFORMAT_END
  1
CELLSTYLE_BEGIN
 90
        1
 91
        1
300
_TITLE
309
CELLSTYLE_END
300
CELLSTYLE
  1
TABLEFORMAT_BEGIN
 90
        5
170
     1
 91
        0
 92
        0
 62
   257
 93
        1
300
CONTENTFORMAT
  1
CONTENTFORMAT_BEGIN
 90
        0
 91
        0
 92
        4
 93
        0
300

 40
0.0
140
1.0
 94
        5
 62
     0
340
11
144
0.18
309
CONTENTFORMAT_END
171
     1
301
MARGIN
  1
CELLMARGIN_BEGIN
 40
0.06
 40
0.06
 40
0.06
 40
0.06
 40
0.06
 40
0.06
309
CELLMARGIN_END
 94
        6
 95
        1
302
GRIDFORMAT
  1
GRIDFORMAT_BEGIN
 90
        0
 91
        1
 62
     0
 92
       -2
340
14
 93
        0
 40
0.045
309
GRIDFORMAT_END
 95
        2
302
GRIDFORMAT
  1
GRIDFORMAT_BEGIN
 90
        0
 91
        1
 62
     0
 92
       -2
340
14
 93
        0
 40
0.045
309
GRIDFORMAT_END
 95
        4
302
GRIDFORMAT
  1
GRIDFORMAT_BEGIN
 90
        0
 91
        1
 62
     0
 92
       -2
340
14
 93
        0
 40
0.045
309
GRIDFORMAT_END
 95
        8
302
GRIDFORMAT
  1
GRIDFORMAT_BEGIN
 90
        0
 91
        1
 62
     0
 92
       -2
340
14
 93
        0
 40
0.045
309
GRIDFORMAT_END
 95
       16
302
GRIDFORMAT
  1
GRIDFORMAT_BEGIN
 90
        0
 91
        1
 62
     0
 92
       -2
340
14
 93
        0
 40
0.045
309
GRIDFORMAT_END
 95
       32
302
GRIDFORMAT
  1
GRIDFORMAT_BEGIN
 90
        0
 91
        1
 62
     0
 92
       -2
340
14
 93
        0
 40
0.045
309
GRIDFORMAT_END
309
TABLEFORMAT_END
  1
CELLSTYLE_BEGIN
 90
        2
 91
        1
300
_HEADER
309
CELLSTYLE_END
300
CELLSTYLE
  1
TABLEFORMAT_BEGIN
 90
        5
170
     1
 91
        0
 92
        0
 62
   257
 93
        1
300
CONTENTFORMAT
  1
CONTENTFORMAT_BEGIN
 90
        0
 91
        0
 92
        4
 93
        0
300

 40
0.0
140
1.0
 94
        2
 62
     0
340
11
144
0.18
309
CONTENTFORMAT_END
171
     1
301
MARGIN
  1
CELLMARGIN_BEGIN
 40
0.06
 40
0.06
 40
0.06
 40
0.06
 40
0.06
 40
0.06
309
CELLMARGIN_END
 94
        6
 95
        1
302
GRIDFORMAT
  1
GRIDFORMAT_BEGIN
 90
        0
 91
        1
 62
     0
 92
       -2
340
14
 93
        0
 40
0.045
309
GRIDFORMAT_END
 95
        2
302
GRIDFORMAT
  1
GRIDFORMAT_BEGIN
 90
        0
 91
        1
 62
     0
 92
       -2
340
14
 93
        0
 40
0.045
309
GRIDFORMAT_END
 95
        4
302
GRIDFORMAT
  1
GRIDFORMAT_BEGIN
 90
        0
 91
        1
 62
     0
 92
       -2
340
14
 93
        0
 40
0.045
309
GRIDFORMAT_END
 95
        8
302
GRIDFORMAT
  1
GRIDFORMAT_BEGIN
 90
        0
 91
        1
 62
     0
 92
       -2
340
14
 93
        0
 40
0.045
309
GRIDFORMAT_END
 95
       16
302
GRIDFORMAT
  1
GRIDFORMAT_BEGIN
 90
        0
 91
        1
 62
     0
 92
       -2
340
14
 93
        0
 40
0.045
309
GRIDFORMAT_END
 95
       32
302
GRIDFORMAT
  1
GRIDFORMAT_BEGIN
 90
        0
 91
        1
 62
     0
 92
       -2
340
14
 93
        0
 40
0.045
309
GRIDFORMAT_END
309
TABLEFORMAT_END
  1
CELLSTYLE_BEGIN
 90
        3
 91
        2
300
_DATA
309
CELLSTYLE_END
  0
ENDSEC
  0
EOF
